M48
;GenerationSoftware,Autodesk,EAGLE,9.6.2*%
;CreationDate,2022-10-10T22:32:51Z*%
FMAT,2
ICI,OFF
METRIC,TZ,000.000
T6C0.350
T5C0.381
T4C0.400
T3C0.650
T2C0.850
T1C1.016
%
G90
M71
T1
X22860Y10160
X25400Y10160
X27940Y10160
X30480Y10160
X33020Y10160
X35560Y10160
X38100Y10160
X40640Y10160
X43180Y10160
X45720Y10160
X7620Y7620
X10160Y7620
X12700Y7620
X15240Y7620
X17780Y7620
X20320Y7620
X22860Y7620
X25400Y7620
X27940Y7620
X30480Y7620
X33020Y7620
X35560Y7620
X38100Y7620
X40640Y7620
X43180Y7620
X45720Y7620
X7620Y5080
X10160Y5080
X12700Y5080
X17780Y5080
X20320Y5080
X22860Y5080
X25400Y5080
X27940Y5080
X15240Y5080
X30480Y5080
X33020Y5080
X35560Y5080
X38100Y5080
X40640Y5080
X43180Y5080
X45720Y5080
X7620Y2540
X10160Y2540
X12700Y2540
X15240Y2540
X17780Y2540
X20320Y2540
X22860Y2540
X25400Y2540
X27940Y2540
X30480Y2540
X33020Y2540
X35560Y2540
X38100Y2540
X40640Y2540
X43180Y2540
X45720Y2540
X7620Y0
X10160Y0
X12700Y0
X15240Y0
X17780Y0
X20320Y0
X22860Y0
X25400Y0
X27940Y0
X30480Y0
X33020Y0
X35560Y0
X38100Y0
X40640Y0
X43180Y0
X45720Y0
X7620Y15240
X10160Y15240
X12700Y15240
X15240Y15240
X17780Y15240
X20320Y15240
X22860Y15240
X25400Y15240
X27940Y15240
X30480Y15240
X33020Y15240
X35560Y15240
X38100Y15240
X43180Y15240
X45720Y15240
X50800Y21590
X50800Y24130
X50800Y26670
X50800Y29210
X50800Y31750
X50800Y34290
X50800Y39370
X50800Y41910
X50800Y44450
X50800Y46990
X50800Y49530
X50800Y52070
X2540Y52070
X2540Y49530
X2540Y46990
X2540Y44450
X10160Y10160
X2540Y41910
X2540Y39370
X2540Y36830
X2540Y34290
X2540Y30480
X2540Y27940
X2540Y25400
X2540Y22860
X2540Y20320
X2540Y17780
X2540Y15240
X2540Y12700
X2540Y10160
X2540Y7620
X50800Y19050
X50800Y16510
X7620Y12700
X10160Y12700
X12700Y12700
X15240Y12700
X17780Y12700
X20320Y12700
X22860Y12700
X25400Y12700
X27940Y12700
X30480Y12700
X33020Y12700
X35560Y12700
X38100Y12700
X40640Y12700
X43180Y12700
X45720Y12700
X7620Y10160
X40640Y15240
X12700Y10160
X15240Y10160
X17780Y10160
X20320Y10160
T2
X13740Y49911
X16740Y49911
X16740Y41910
X13740Y41910
T3
X38323Y52245
X32543Y52245
T4
X39751Y55895
X31115Y55895
X31115Y51715
X39751Y51715
T5
X5080Y-1270
X5080Y3810
X5080Y1270
X46990Y52070
X44450Y52070
X46990Y49530
X44450Y48260
X17780Y55880
X50800Y12700
X50800Y10160
X50800Y7620
X50800Y2540
X26670Y40767
X24130Y41275
X27305Y40005
X41910Y52070
X15240Y54610
X5080Y6350
X5080Y8890
X50800Y5080
X48260Y3810
X48260Y6350
X48260Y8890
X48260Y11430
X50800Y36830
X48260Y1270
X50800Y0
X5080Y11430
X19050Y54610
X45720Y25400
X31623Y50292
X12065Y29845
X5080Y29210
X22225Y48895
X26670Y48260
X27940Y44450
X31750Y44450
X29845Y44450
X34290Y36830
X37211Y36830
X12065Y31750
X19050Y35560
X24130Y34290
X24130Y27940
X22860Y24130
X22860Y21590
X21590Y20320
X8255Y22225
X5842Y22225
X5080Y26670
X5080Y43180
X5080Y40640
X6350Y50800
X6350Y53340
X8890Y53340
X41910Y45720
X44450Y45720
X46990Y45720
X41910Y43180
X44450Y43180
X46990Y43180
X41910Y40640
X44450Y40640
X46990Y40640
X45720Y35560
X45720Y33020
X43180Y33020
X45720Y30480
X43180Y30480
X45720Y27940
X20320Y55880
X5080Y48260
X5715Y35560
X10795Y39370
X10160Y43815
X5080Y45720
X10160Y45720
X20193Y48260
X20320Y45720
X23749Y43434
X21590Y41910
X26289Y36068
X31115Y27940
X31750Y31115
X33020Y21590
X30480Y21590
X29210Y17780
X48260Y16510
X45720Y22860
X41910Y20828
X8255Y26670
X29845Y48768
X20320Y53340
X10160Y48260
X33274Y25654
X41910Y49530
X38989Y37973
X36810Y40259
X17145Y20955
X41031Y37211
X19456Y40640
X40136Y35856
X13335Y20955
X41021Y36322
X15875Y20955
X41910Y36830
X29845Y55880
X42164Y34925
X19685Y29337
X13970Y38608
X37675Y43548
X25273Y29464
X7181Y30422
X10033Y22987
X21082Y30480
X30949Y42965
X48260Y13970
X43688Y35560
X33655Y45720
X39370Y45720
X9975Y25146
X6350Y18415
X18415Y20955
T6
X31711Y29425
M30