G04 EAGLE Gerber RS-274X export*
G75*
%MOMM*%
%FSLAX34Y34*%
%LPD*%
%INSolderpaste Top*%
%IPPOS*%
%AMOC8*
5,1,8,0,0,1.08239X$1,22.5*%
G01*
%ADD10C,0.100000*%
%ADD11C,0.098000*%
%ADD12C,0.300000*%
%ADD13C,0.096000*%
%ADD14C,0.102000*%
%ADD15C,0.099059*%
%ADD16C,0.097534*%
%ADD17C,0.110000*%
%ADD18C,0.099000*%
%ADD19C,0.106400*%
%ADD20C,0.100800*%

G36*
X311334Y506455D02*
X311334Y506455D01*
X311337Y506451D01*
X312445Y506621D01*
X312451Y506627D01*
X312456Y506624D01*
X313498Y507036D01*
X313502Y507043D01*
X313507Y507041D01*
X314432Y507675D01*
X314434Y507683D01*
X314440Y507682D01*
X315200Y508506D01*
X315201Y508514D01*
X315207Y508514D01*
X315764Y509486D01*
X315764Y509490D01*
X315765Y509491D01*
X315763Y509493D01*
X315763Y509494D01*
X315769Y509496D01*
X316096Y510568D01*
X316095Y510573D01*
X316097Y510574D01*
X316095Y510577D01*
X316098Y510579D01*
X316179Y511696D01*
X316178Y511699D01*
X316179Y511700D01*
X316179Y523700D01*
X316174Y523707D01*
X316178Y523711D01*
X315959Y524655D01*
X315953Y524661D01*
X315955Y524666D01*
X315532Y525538D01*
X315524Y525541D01*
X315526Y525547D01*
X314919Y526303D01*
X314911Y526305D01*
X314911Y526311D01*
X314151Y526912D01*
X314142Y526912D01*
X314141Y526918D01*
X313266Y527336D01*
X313258Y527334D01*
X313256Y527339D01*
X312310Y527552D01*
X312303Y527548D01*
X312299Y527553D01*
X311330Y527549D01*
X311329Y527549D01*
X310261Y527530D01*
X310260Y527530D01*
X310254Y527526D01*
X310250Y527529D01*
X309213Y527273D01*
X309208Y527266D01*
X309202Y527269D01*
X308248Y526788D01*
X308245Y526781D01*
X308239Y526782D01*
X307416Y526101D01*
X307414Y526093D01*
X307408Y526093D01*
X306757Y525246D01*
X306757Y525238D01*
X306751Y525237D01*
X306304Y524266D01*
X306306Y524258D01*
X306301Y524256D01*
X306082Y523210D01*
X306085Y523203D01*
X306081Y523200D01*
X306081Y511200D01*
X306084Y511195D01*
X306081Y511192D01*
X306261Y510097D01*
X306267Y510091D01*
X306264Y510086D01*
X306683Y509058D01*
X306690Y509054D01*
X306688Y509049D01*
X307326Y508140D01*
X307333Y508138D01*
X307333Y508132D01*
X308156Y507388D01*
X308164Y507387D01*
X308165Y507381D01*
X309133Y506839D01*
X309142Y506840D01*
X309144Y506834D01*
X310208Y506521D01*
X310216Y506524D01*
X310219Y506519D01*
X311327Y506451D01*
X311334Y506455D01*
G37*
G36*
X397832Y506454D02*
X397832Y506454D01*
X397836Y506451D01*
X398881Y506569D01*
X398887Y506575D01*
X398892Y506571D01*
X399886Y506919D01*
X399890Y506926D01*
X399895Y506924D01*
X400787Y507484D01*
X400790Y507491D01*
X400795Y507491D01*
X401539Y508235D01*
X401541Y508243D01*
X401546Y508243D01*
X402106Y509135D01*
X402106Y509142D01*
X402107Y509143D01*
X402111Y509144D01*
X402459Y510138D01*
X402456Y510146D01*
X402461Y510149D01*
X402579Y511195D01*
X402577Y511198D01*
X402579Y511200D01*
X402579Y523200D01*
X402576Y523205D01*
X402579Y523208D01*
X402421Y524204D01*
X402415Y524210D01*
X402418Y524215D01*
X402043Y525151D01*
X402036Y525155D01*
X402038Y525161D01*
X401464Y525990D01*
X401456Y525993D01*
X401457Y525998D01*
X400713Y526679D01*
X400704Y526680D01*
X400704Y526686D01*
X399827Y527184D01*
X399819Y527183D01*
X399816Y527188D01*
X398851Y527479D01*
X398843Y527476D01*
X398840Y527481D01*
X397833Y527549D01*
X397831Y527548D01*
X397830Y527549D01*
X396749Y527540D01*
X396742Y527535D01*
X396738Y527539D01*
X395686Y527290D01*
X395681Y527283D01*
X395676Y527286D01*
X394706Y526809D01*
X394703Y526801D01*
X394697Y526803D01*
X393858Y526122D01*
X393856Y526114D01*
X393850Y526114D01*
X393184Y525264D01*
X393183Y525255D01*
X393178Y525254D01*
X392717Y524277D01*
X392719Y524269D01*
X392714Y524266D01*
X392482Y523211D01*
X392485Y523203D01*
X392481Y523200D01*
X392481Y511200D01*
X392485Y511195D01*
X392481Y511192D01*
X392674Y510086D01*
X392680Y510081D01*
X392677Y510076D01*
X393110Y509041D01*
X393117Y509037D01*
X393115Y509032D01*
X393768Y508119D01*
X393776Y508117D01*
X393775Y508111D01*
X394614Y507367D01*
X394623Y507366D01*
X394623Y507361D01*
X395607Y506822D01*
X395615Y506823D01*
X395617Y506818D01*
X396696Y506511D01*
X396704Y506514D01*
X396707Y506509D01*
X397827Y506451D01*
X397832Y506454D01*
G37*
G36*
X311334Y550956D02*
X311334Y550956D01*
X311339Y550952D01*
X312476Y551159D01*
X312482Y551165D01*
X312487Y551162D01*
X313549Y551617D01*
X313553Y551624D01*
X313559Y551622D01*
X314494Y552302D01*
X314496Y552310D01*
X314502Y552309D01*
X315262Y553180D01*
X315262Y553188D01*
X315268Y553189D01*
X315815Y554208D01*
X315814Y554216D01*
X315819Y554218D01*
X315825Y554237D01*
X315838Y554286D01*
X315852Y554336D01*
X315865Y554385D01*
X315879Y554434D01*
X315892Y554483D01*
X315893Y554483D01*
X315892Y554483D01*
X315906Y554533D01*
X315920Y554582D01*
X315933Y554631D01*
X315947Y554680D01*
X315960Y554730D01*
X315974Y554779D01*
X315987Y554828D01*
X316001Y554877D01*
X316015Y554927D01*
X316028Y554976D01*
X316042Y555025D01*
X316126Y555332D01*
X316123Y555340D01*
X316128Y555343D01*
X316179Y556498D01*
X316178Y556499D01*
X316179Y556500D01*
X316179Y562500D01*
X316175Y562506D01*
X316178Y562509D01*
X315966Y563590D01*
X315960Y563595D01*
X315963Y563600D01*
X315516Y564606D01*
X315509Y564610D01*
X315511Y564616D01*
X314851Y565497D01*
X314843Y565500D01*
X314843Y565505D01*
X314004Y566218D01*
X313996Y566218D01*
X313995Y566224D01*
X313018Y566732D01*
X313010Y566731D01*
X313008Y566736D01*
X311943Y567014D01*
X311935Y567011D01*
X311932Y567015D01*
X310832Y567049D01*
X310826Y567046D01*
X310823Y567049D01*
X309748Y566894D01*
X309742Y566888D01*
X309737Y566891D01*
X308723Y566501D01*
X308719Y566494D01*
X308713Y566496D01*
X307811Y565889D01*
X307809Y565881D01*
X307803Y565882D01*
X307059Y565090D01*
X307058Y565082D01*
X307052Y565082D01*
X306503Y564144D01*
X306504Y564136D01*
X306498Y564134D01*
X306171Y563098D01*
X306174Y563090D01*
X306169Y563087D01*
X306081Y562004D01*
X306083Y562001D01*
X306081Y562000D01*
X306081Y556000D01*
X306084Y555996D01*
X306081Y555994D01*
X306231Y554861D01*
X306237Y554855D01*
X306234Y554850D01*
X306632Y553780D01*
X306639Y553776D01*
X306637Y553770D01*
X307264Y552815D01*
X307272Y552812D01*
X307271Y552807D01*
X308094Y552015D01*
X308102Y552014D01*
X308103Y552008D01*
X309082Y551419D01*
X309090Y551420D01*
X309092Y551415D01*
X310177Y551059D01*
X310185Y551062D01*
X310188Y551057D01*
X311325Y550951D01*
X311334Y550956D01*
G37*
G36*
X398472Y551057D02*
X398472Y551057D01*
X398478Y551062D01*
X398483Y551059D01*
X399568Y551415D01*
X399573Y551422D01*
X399578Y551419D01*
X400557Y552008D01*
X400560Y552016D01*
X400566Y552015D01*
X401389Y552807D01*
X401390Y552815D01*
X401396Y552815D01*
X402023Y553770D01*
X402022Y553778D01*
X402028Y553780D01*
X402426Y554850D01*
X402424Y554858D01*
X402429Y554861D01*
X402579Y555994D01*
X402576Y555998D01*
X402579Y556000D01*
X402579Y562000D01*
X402576Y562004D01*
X402579Y562006D01*
X402429Y563139D01*
X402423Y563145D01*
X402426Y563150D01*
X402028Y564220D01*
X402021Y564224D01*
X402023Y564230D01*
X401396Y565185D01*
X401388Y565188D01*
X401389Y565193D01*
X400566Y565985D01*
X400558Y565986D01*
X400557Y565992D01*
X399578Y566581D01*
X399570Y566580D01*
X399568Y566585D01*
X398483Y566941D01*
X398475Y566939D01*
X398472Y566943D01*
X397335Y567049D01*
X397328Y567045D01*
X397324Y567049D01*
X396236Y566904D01*
X396230Y566898D01*
X396225Y566901D01*
X395197Y566518D01*
X395192Y566511D01*
X395187Y566513D01*
X394270Y565910D01*
X394267Y565902D01*
X394261Y565903D01*
X393501Y565111D01*
X393500Y565103D01*
X393494Y565102D01*
X392930Y564161D01*
X392931Y564153D01*
X392925Y564151D01*
X392584Y563108D01*
X392586Y563100D01*
X392582Y563097D01*
X392481Y562005D01*
X392483Y562002D01*
X392481Y562000D01*
X392481Y556000D01*
X392483Y555997D01*
X392481Y555996D01*
X392582Y554903D01*
X392587Y554897D01*
X392584Y554892D01*
X392925Y553849D01*
X392932Y553844D01*
X392930Y553839D01*
X393494Y552898D01*
X393502Y552895D01*
X393501Y552889D01*
X394261Y552097D01*
X394269Y552096D01*
X394270Y552090D01*
X395187Y551488D01*
X395195Y551488D01*
X395197Y551483D01*
X396225Y551099D01*
X396233Y551101D01*
X396236Y551096D01*
X397324Y550951D01*
X397331Y550955D01*
X397335Y550951D01*
X398472Y551057D01*
G37*
D10*
X295600Y421060D02*
X305600Y421060D01*
X305600Y412060D01*
X295600Y412060D01*
X295600Y421060D01*
X295600Y413010D02*
X305600Y413010D01*
X305600Y413960D02*
X295600Y413960D01*
X295600Y414910D02*
X305600Y414910D01*
X305600Y415860D02*
X295600Y415860D01*
X295600Y416810D02*
X305600Y416810D01*
X305600Y417760D02*
X295600Y417760D01*
X295600Y418710D02*
X305600Y418710D01*
X305600Y419660D02*
X295600Y419660D01*
X295600Y420610D02*
X305600Y420610D01*
X288600Y421060D02*
X278600Y421060D01*
X288600Y421060D02*
X288600Y412060D01*
X278600Y412060D01*
X278600Y421060D01*
X278600Y413010D02*
X288600Y413010D01*
X288600Y413960D02*
X278600Y413960D01*
X278600Y414910D02*
X288600Y414910D01*
X288600Y415860D02*
X278600Y415860D01*
X278600Y416810D02*
X288600Y416810D01*
X288600Y417760D02*
X278600Y417760D01*
X278600Y418710D02*
X288600Y418710D01*
X288600Y419660D02*
X278600Y419660D01*
X278600Y420610D02*
X288600Y420610D01*
X212400Y382850D02*
X202400Y382850D01*
X202400Y391850D01*
X212400Y391850D01*
X212400Y382850D01*
X212400Y383800D02*
X202400Y383800D01*
X202400Y384750D02*
X212400Y384750D01*
X212400Y385700D02*
X202400Y385700D01*
X202400Y386650D02*
X212400Y386650D01*
X212400Y387600D02*
X202400Y387600D01*
X202400Y388550D02*
X212400Y388550D01*
X212400Y389500D02*
X202400Y389500D01*
X202400Y390450D02*
X212400Y390450D01*
X212400Y391400D02*
X202400Y391400D01*
X219400Y382850D02*
X229400Y382850D01*
X219400Y382850D02*
X219400Y391850D01*
X229400Y391850D01*
X229400Y382850D01*
X229400Y383800D02*
X219400Y383800D01*
X219400Y384750D02*
X229400Y384750D01*
X229400Y385700D02*
X219400Y385700D01*
X219400Y386650D02*
X229400Y386650D01*
X229400Y387600D02*
X219400Y387600D01*
X219400Y388550D02*
X229400Y388550D01*
X229400Y389500D02*
X219400Y389500D01*
X219400Y390450D02*
X229400Y390450D01*
X229400Y391400D02*
X219400Y391400D01*
D11*
X81410Y337710D02*
X81410Y322690D01*
X68390Y322690D01*
X68390Y337710D01*
X81410Y337710D01*
X81410Y323621D02*
X68390Y323621D01*
X68390Y324552D02*
X81410Y324552D01*
X81410Y325483D02*
X68390Y325483D01*
X68390Y326414D02*
X81410Y326414D01*
X81410Y327345D02*
X68390Y327345D01*
X68390Y328276D02*
X81410Y328276D01*
X81410Y329207D02*
X68390Y329207D01*
X68390Y330138D02*
X81410Y330138D01*
X81410Y331069D02*
X68390Y331069D01*
X68390Y332000D02*
X81410Y332000D01*
X81410Y332931D02*
X68390Y332931D01*
X68390Y333862D02*
X81410Y333862D01*
X81410Y334793D02*
X68390Y334793D01*
X68390Y335724D02*
X81410Y335724D01*
X81410Y336655D02*
X68390Y336655D01*
X68390Y337586D02*
X81410Y337586D01*
X109410Y337710D02*
X109410Y322690D01*
X96390Y322690D01*
X96390Y337710D01*
X109410Y337710D01*
X109410Y323621D02*
X96390Y323621D01*
X96390Y324552D02*
X109410Y324552D01*
X109410Y325483D02*
X96390Y325483D01*
X96390Y326414D02*
X109410Y326414D01*
X109410Y327345D02*
X96390Y327345D01*
X96390Y328276D02*
X109410Y328276D01*
X109410Y329207D02*
X96390Y329207D01*
X96390Y330138D02*
X109410Y330138D01*
X109410Y331069D02*
X96390Y331069D01*
X96390Y332000D02*
X109410Y332000D01*
X109410Y332931D02*
X96390Y332931D01*
X96390Y333862D02*
X109410Y333862D01*
X109410Y334793D02*
X96390Y334793D01*
X96390Y335724D02*
X109410Y335724D01*
X109410Y336655D02*
X96390Y336655D01*
X96390Y337586D02*
X109410Y337586D01*
X223390Y330090D02*
X223390Y315070D01*
X223390Y330090D02*
X236410Y330090D01*
X236410Y315070D01*
X223390Y315070D01*
X223390Y316001D02*
X236410Y316001D01*
X236410Y316932D02*
X223390Y316932D01*
X223390Y317863D02*
X236410Y317863D01*
X236410Y318794D02*
X223390Y318794D01*
X223390Y319725D02*
X236410Y319725D01*
X236410Y320656D02*
X223390Y320656D01*
X223390Y321587D02*
X236410Y321587D01*
X236410Y322518D02*
X223390Y322518D01*
X223390Y323449D02*
X236410Y323449D01*
X236410Y324380D02*
X223390Y324380D01*
X223390Y325311D02*
X236410Y325311D01*
X236410Y326242D02*
X223390Y326242D01*
X223390Y327173D02*
X236410Y327173D01*
X236410Y328104D02*
X223390Y328104D01*
X223390Y329035D02*
X236410Y329035D01*
X236410Y329966D02*
X223390Y329966D01*
X195390Y330090D02*
X195390Y315070D01*
X195390Y330090D02*
X208410Y330090D01*
X208410Y315070D01*
X195390Y315070D01*
X195390Y316001D02*
X208410Y316001D01*
X208410Y316932D02*
X195390Y316932D01*
X195390Y317863D02*
X208410Y317863D01*
X208410Y318794D02*
X195390Y318794D01*
X195390Y319725D02*
X208410Y319725D01*
X208410Y320656D02*
X195390Y320656D01*
X195390Y321587D02*
X208410Y321587D01*
X208410Y322518D02*
X195390Y322518D01*
X195390Y323449D02*
X208410Y323449D01*
X208410Y324380D02*
X195390Y324380D01*
X195390Y325311D02*
X208410Y325311D01*
X208410Y326242D02*
X195390Y326242D01*
X195390Y327173D02*
X208410Y327173D01*
X208410Y328104D02*
X195390Y328104D01*
X195390Y329035D02*
X208410Y329035D01*
X208410Y329966D02*
X195390Y329966D01*
D10*
X106100Y354800D02*
X106100Y364800D01*
X106100Y354800D02*
X97100Y354800D01*
X97100Y364800D01*
X106100Y364800D01*
X106100Y355750D02*
X97100Y355750D01*
X97100Y356700D02*
X106100Y356700D01*
X106100Y357650D02*
X97100Y357650D01*
X97100Y358600D02*
X106100Y358600D01*
X106100Y359550D02*
X97100Y359550D01*
X97100Y360500D02*
X106100Y360500D01*
X106100Y361450D02*
X97100Y361450D01*
X97100Y362400D02*
X106100Y362400D01*
X106100Y363350D02*
X97100Y363350D01*
X97100Y364300D02*
X106100Y364300D01*
X106100Y371800D02*
X106100Y381800D01*
X106100Y371800D02*
X97100Y371800D01*
X97100Y381800D01*
X106100Y381800D01*
X106100Y372750D02*
X97100Y372750D01*
X97100Y373700D02*
X106100Y373700D01*
X106100Y374650D02*
X97100Y374650D01*
X97100Y375600D02*
X106100Y375600D01*
X106100Y376550D02*
X97100Y376550D01*
X97100Y377500D02*
X106100Y377500D01*
X106100Y378450D02*
X97100Y378450D01*
X97100Y379400D02*
X106100Y379400D01*
X106100Y380350D02*
X97100Y380350D01*
X97100Y381300D02*
X106100Y381300D01*
X276550Y377880D02*
X286550Y377880D01*
X286550Y368880D01*
X276550Y368880D01*
X276550Y377880D01*
X276550Y369830D02*
X286550Y369830D01*
X286550Y370780D02*
X276550Y370780D01*
X276550Y371730D02*
X286550Y371730D01*
X286550Y372680D02*
X276550Y372680D01*
X276550Y373630D02*
X286550Y373630D01*
X286550Y374580D02*
X276550Y374580D01*
X276550Y375530D02*
X286550Y375530D01*
X286550Y376480D02*
X276550Y376480D01*
X276550Y377430D02*
X286550Y377430D01*
X269550Y377880D02*
X259550Y377880D01*
X269550Y377880D02*
X269550Y368880D01*
X259550Y368880D01*
X259550Y377880D01*
X259550Y369830D02*
X269550Y369830D01*
X269550Y370780D02*
X259550Y370780D01*
X259550Y371730D02*
X269550Y371730D01*
X269550Y372680D02*
X259550Y372680D01*
X259550Y373630D02*
X269550Y373630D01*
X269550Y374580D02*
X259550Y374580D01*
X259550Y375530D02*
X269550Y375530D01*
X269550Y376480D02*
X259550Y376480D01*
X259550Y377430D02*
X269550Y377430D01*
D12*
X229560Y449390D02*
X222560Y449390D01*
X229560Y449390D02*
X229560Y442390D01*
X222560Y442390D01*
X222560Y449390D01*
X222560Y445240D02*
X229560Y445240D01*
X229560Y448090D02*
X222560Y448090D01*
X222560Y466930D02*
X229560Y466930D01*
X229560Y459930D01*
X222560Y459930D01*
X222560Y466930D01*
X222560Y462780D02*
X229560Y462780D01*
X229560Y465630D02*
X222560Y465630D01*
D13*
X303660Y478420D02*
X318700Y478420D01*
X318700Y461380D01*
X303660Y461380D01*
X303660Y478420D01*
X303660Y462292D02*
X318700Y462292D01*
X318700Y463204D02*
X303660Y463204D01*
X303660Y464116D02*
X318700Y464116D01*
X318700Y465028D02*
X303660Y465028D01*
X303660Y465940D02*
X318700Y465940D01*
X318700Y466852D02*
X303660Y466852D01*
X303660Y467764D02*
X318700Y467764D01*
X318700Y468676D02*
X303660Y468676D01*
X303660Y469588D02*
X318700Y469588D01*
X318700Y470500D02*
X303660Y470500D01*
X303660Y471412D02*
X318700Y471412D01*
X318700Y472324D02*
X303660Y472324D01*
X303660Y473236D02*
X318700Y473236D01*
X318700Y474148D02*
X303660Y474148D01*
X303660Y475060D02*
X318700Y475060D01*
X318700Y475972D02*
X303660Y475972D01*
X303660Y476884D02*
X318700Y476884D01*
X318700Y477796D02*
X303660Y477796D01*
X290700Y478420D02*
X275660Y478420D01*
X290700Y478420D02*
X290700Y461380D01*
X275660Y461380D01*
X275660Y478420D01*
X275660Y462292D02*
X290700Y462292D01*
X290700Y463204D02*
X275660Y463204D01*
X275660Y464116D02*
X290700Y464116D01*
X290700Y465028D02*
X275660Y465028D01*
X275660Y465940D02*
X290700Y465940D01*
X290700Y466852D02*
X275660Y466852D01*
X275660Y467764D02*
X290700Y467764D01*
X290700Y468676D02*
X275660Y468676D01*
X275660Y469588D02*
X290700Y469588D01*
X290700Y470500D02*
X275660Y470500D01*
X275660Y471412D02*
X290700Y471412D01*
X290700Y472324D02*
X275660Y472324D01*
X275660Y473236D02*
X290700Y473236D01*
X290700Y474148D02*
X275660Y474148D01*
X275660Y475060D02*
X290700Y475060D01*
X290700Y475972D02*
X275660Y475972D01*
X275660Y476884D02*
X290700Y476884D01*
X290700Y477796D02*
X275660Y477796D01*
D14*
X345840Y515890D02*
X347820Y515890D01*
X347820Y506910D01*
X345840Y506910D01*
X345840Y515890D01*
X345840Y507879D02*
X347820Y507879D01*
X347820Y508848D02*
X345840Y508848D01*
X345840Y509817D02*
X347820Y509817D01*
X347820Y510786D02*
X345840Y510786D01*
X345840Y511755D02*
X347820Y511755D01*
X347820Y512724D02*
X345840Y512724D01*
X345840Y513693D02*
X347820Y513693D01*
X347820Y514662D02*
X345840Y514662D01*
X345840Y515631D02*
X347820Y515631D01*
X350840Y515890D02*
X352820Y515890D01*
X352820Y506910D01*
X350840Y506910D01*
X350840Y515890D01*
X350840Y507879D02*
X352820Y507879D01*
X352820Y508848D02*
X350840Y508848D01*
X350840Y509817D02*
X352820Y509817D01*
X352820Y510786D02*
X350840Y510786D01*
X350840Y511755D02*
X352820Y511755D01*
X352820Y512724D02*
X350840Y512724D01*
X350840Y513693D02*
X352820Y513693D01*
X352820Y514662D02*
X350840Y514662D01*
X350840Y515631D02*
X352820Y515631D01*
X324570Y515890D02*
X319590Y515890D01*
X324570Y515890D02*
X324570Y506910D01*
X319590Y506910D01*
X319590Y515890D01*
X319590Y507879D02*
X324570Y507879D01*
X324570Y508848D02*
X319590Y508848D01*
X319590Y509817D02*
X324570Y509817D01*
X324570Y510786D02*
X319590Y510786D01*
X319590Y511755D02*
X324570Y511755D01*
X324570Y512724D02*
X319590Y512724D01*
X319590Y513693D02*
X324570Y513693D01*
X324570Y514662D02*
X319590Y514662D01*
X319590Y515631D02*
X324570Y515631D01*
X327340Y515890D02*
X332320Y515890D01*
X332320Y506910D01*
X327340Y506910D01*
X327340Y515890D01*
X327340Y507879D02*
X332320Y507879D01*
X332320Y508848D02*
X327340Y508848D01*
X327340Y509817D02*
X332320Y509817D01*
X332320Y510786D02*
X327340Y510786D01*
X327340Y511755D02*
X332320Y511755D01*
X332320Y512724D02*
X327340Y512724D01*
X327340Y513693D02*
X332320Y513693D01*
X332320Y514662D02*
X327340Y514662D01*
X327340Y515631D02*
X332320Y515631D01*
X335840Y515890D02*
X337820Y515890D01*
X337820Y506910D01*
X335840Y506910D01*
X335840Y515890D01*
X335840Y507879D02*
X337820Y507879D01*
X337820Y508848D02*
X335840Y508848D01*
X335840Y509817D02*
X337820Y509817D01*
X337820Y510786D02*
X335840Y510786D01*
X335840Y511755D02*
X337820Y511755D01*
X337820Y512724D02*
X335840Y512724D01*
X335840Y513693D02*
X337820Y513693D01*
X337820Y514662D02*
X335840Y514662D01*
X335840Y515631D02*
X337820Y515631D01*
X340840Y515890D02*
X342820Y515890D01*
X342820Y506910D01*
X340840Y506910D01*
X340840Y515890D01*
X340840Y507879D02*
X342820Y507879D01*
X342820Y508848D02*
X340840Y508848D01*
X340840Y509817D02*
X342820Y509817D01*
X342820Y510786D02*
X340840Y510786D01*
X340840Y511755D02*
X342820Y511755D01*
X342820Y512724D02*
X340840Y512724D01*
X340840Y513693D02*
X342820Y513693D01*
X342820Y514662D02*
X340840Y514662D01*
X340840Y515631D02*
X342820Y515631D01*
X360840Y506910D02*
X362820Y506910D01*
X360840Y506910D02*
X360840Y515890D01*
X362820Y515890D01*
X362820Y506910D01*
X362820Y507879D02*
X360840Y507879D01*
X360840Y508848D02*
X362820Y508848D01*
X362820Y509817D02*
X360840Y509817D01*
X360840Y510786D02*
X362820Y510786D01*
X362820Y511755D02*
X360840Y511755D01*
X360840Y512724D02*
X362820Y512724D01*
X362820Y513693D02*
X360840Y513693D01*
X360840Y514662D02*
X362820Y514662D01*
X362820Y515631D02*
X360840Y515631D01*
X357820Y506910D02*
X355840Y506910D01*
X355840Y515890D01*
X357820Y515890D01*
X357820Y506910D01*
X357820Y507879D02*
X355840Y507879D01*
X355840Y508848D02*
X357820Y508848D01*
X357820Y509817D02*
X355840Y509817D01*
X355840Y510786D02*
X357820Y510786D01*
X357820Y511755D02*
X355840Y511755D01*
X355840Y512724D02*
X357820Y512724D01*
X357820Y513693D02*
X355840Y513693D01*
X355840Y514662D02*
X357820Y514662D01*
X357820Y515631D02*
X355840Y515631D01*
X384090Y506910D02*
X389070Y506910D01*
X384090Y506910D02*
X384090Y515890D01*
X389070Y515890D01*
X389070Y506910D01*
X389070Y507879D02*
X384090Y507879D01*
X384090Y508848D02*
X389070Y508848D01*
X389070Y509817D02*
X384090Y509817D01*
X384090Y510786D02*
X389070Y510786D01*
X389070Y511755D02*
X384090Y511755D01*
X384090Y512724D02*
X389070Y512724D01*
X389070Y513693D02*
X384090Y513693D01*
X384090Y514662D02*
X389070Y514662D01*
X389070Y515631D02*
X384090Y515631D01*
X381320Y506910D02*
X376340Y506910D01*
X376340Y515890D01*
X381320Y515890D01*
X381320Y506910D01*
X381320Y507879D02*
X376340Y507879D01*
X376340Y508848D02*
X381320Y508848D01*
X381320Y509817D02*
X376340Y509817D01*
X376340Y510786D02*
X381320Y510786D01*
X381320Y511755D02*
X376340Y511755D01*
X376340Y512724D02*
X381320Y512724D01*
X381320Y513693D02*
X376340Y513693D01*
X376340Y514662D02*
X381320Y514662D01*
X381320Y515631D02*
X376340Y515631D01*
X372820Y506910D02*
X370840Y506910D01*
X370840Y515890D01*
X372820Y515890D01*
X372820Y506910D01*
X372820Y507879D02*
X370840Y507879D01*
X370840Y508848D02*
X372820Y508848D01*
X372820Y509817D02*
X370840Y509817D01*
X370840Y510786D02*
X372820Y510786D01*
X372820Y511755D02*
X370840Y511755D01*
X370840Y512724D02*
X372820Y512724D01*
X372820Y513693D02*
X370840Y513693D01*
X370840Y514662D02*
X372820Y514662D01*
X372820Y515631D02*
X370840Y515631D01*
X367820Y506910D02*
X365840Y506910D01*
X365840Y515890D01*
X367820Y515890D01*
X367820Y506910D01*
X367820Y507879D02*
X365840Y507879D01*
X365840Y508848D02*
X367820Y508848D01*
X367820Y509817D02*
X365840Y509817D01*
X365840Y510786D02*
X367820Y510786D01*
X367820Y511755D02*
X365840Y511755D01*
X365840Y512724D02*
X367820Y512724D01*
X367820Y513693D02*
X365840Y513693D01*
X365840Y514662D02*
X367820Y514662D01*
X367820Y515631D02*
X365840Y515631D01*
D10*
X240610Y468160D02*
X240610Y458160D01*
X240610Y468160D02*
X249610Y468160D01*
X249610Y458160D01*
X240610Y458160D01*
X240610Y459110D02*
X249610Y459110D01*
X249610Y460060D02*
X240610Y460060D01*
X240610Y461010D02*
X249610Y461010D01*
X249610Y461960D02*
X240610Y461960D01*
X240610Y462910D02*
X249610Y462910D01*
X249610Y463860D02*
X240610Y463860D01*
X240610Y464810D02*
X249610Y464810D01*
X249610Y465760D02*
X240610Y465760D01*
X240610Y466710D02*
X249610Y466710D01*
X249610Y467660D02*
X240610Y467660D01*
X240610Y451160D02*
X240610Y441160D01*
X240610Y451160D02*
X249610Y451160D01*
X249610Y441160D01*
X240610Y441160D01*
X240610Y442110D02*
X249610Y442110D01*
X249610Y443060D02*
X240610Y443060D01*
X240610Y444010D02*
X249610Y444010D01*
X249610Y444960D02*
X240610Y444960D01*
X240610Y445910D02*
X249610Y445910D01*
X249610Y446860D02*
X240610Y446860D01*
X240610Y447810D02*
X249610Y447810D01*
X249610Y448760D02*
X240610Y448760D01*
X240610Y449710D02*
X249610Y449710D01*
X249610Y450660D02*
X240610Y450660D01*
X365070Y473400D02*
X365070Y483400D01*
X374070Y483400D01*
X374070Y473400D01*
X365070Y473400D01*
X365070Y474350D02*
X374070Y474350D01*
X374070Y475300D02*
X365070Y475300D01*
X365070Y476250D02*
X374070Y476250D01*
X374070Y477200D02*
X365070Y477200D01*
X365070Y478150D02*
X374070Y478150D01*
X374070Y479100D02*
X365070Y479100D01*
X365070Y480050D02*
X374070Y480050D01*
X374070Y481000D02*
X365070Y481000D01*
X365070Y481950D02*
X374070Y481950D01*
X374070Y482900D02*
X365070Y482900D01*
X365070Y466400D02*
X365070Y456400D01*
X365070Y466400D02*
X374070Y466400D01*
X374070Y456400D01*
X365070Y456400D01*
X365070Y457350D02*
X374070Y457350D01*
X374070Y458300D02*
X365070Y458300D01*
X365070Y459250D02*
X374070Y459250D01*
X374070Y460200D02*
X365070Y460200D01*
X365070Y461150D02*
X374070Y461150D01*
X374070Y462100D02*
X365070Y462100D01*
X365070Y463050D02*
X374070Y463050D01*
X374070Y464000D02*
X365070Y464000D01*
X365070Y464950D02*
X374070Y464950D01*
X374070Y465900D02*
X365070Y465900D01*
X348560Y473400D02*
X348560Y483400D01*
X357560Y483400D01*
X357560Y473400D01*
X348560Y473400D01*
X348560Y474350D02*
X357560Y474350D01*
X357560Y475300D02*
X348560Y475300D01*
X348560Y476250D02*
X357560Y476250D01*
X357560Y477200D02*
X348560Y477200D01*
X348560Y478150D02*
X357560Y478150D01*
X357560Y479100D02*
X348560Y479100D01*
X348560Y480050D02*
X357560Y480050D01*
X357560Y481000D02*
X348560Y481000D01*
X348560Y481950D02*
X357560Y481950D01*
X357560Y482900D02*
X348560Y482900D01*
X348560Y466400D02*
X348560Y456400D01*
X348560Y466400D02*
X357560Y466400D01*
X357560Y456400D01*
X348560Y456400D01*
X348560Y457350D02*
X357560Y457350D01*
X357560Y458300D02*
X348560Y458300D01*
X348560Y459250D02*
X357560Y459250D01*
X357560Y460200D02*
X348560Y460200D01*
X348560Y461150D02*
X357560Y461150D01*
X357560Y462100D02*
X348560Y462100D01*
X348560Y463050D02*
X357560Y463050D01*
X357560Y464000D02*
X348560Y464000D01*
X348560Y464950D02*
X357560Y464950D01*
X357560Y465900D02*
X348560Y465900D01*
X393120Y423220D02*
X393120Y413220D01*
X384120Y413220D01*
X384120Y423220D01*
X393120Y423220D01*
X393120Y414170D02*
X384120Y414170D01*
X384120Y415120D02*
X393120Y415120D01*
X393120Y416070D02*
X384120Y416070D01*
X384120Y417020D02*
X393120Y417020D01*
X393120Y417970D02*
X384120Y417970D01*
X384120Y418920D02*
X393120Y418920D01*
X393120Y419870D02*
X384120Y419870D01*
X384120Y420820D02*
X393120Y420820D01*
X393120Y421770D02*
X384120Y421770D01*
X384120Y422720D02*
X393120Y422720D01*
X393120Y430220D02*
X393120Y440220D01*
X393120Y430220D02*
X384120Y430220D01*
X384120Y440220D01*
X393120Y440220D01*
X393120Y431170D02*
X384120Y431170D01*
X384120Y432120D02*
X393120Y432120D01*
X393120Y433070D02*
X384120Y433070D01*
X384120Y434020D02*
X393120Y434020D01*
X393120Y434970D02*
X384120Y434970D01*
X384120Y435920D02*
X393120Y435920D01*
X393120Y436870D02*
X384120Y436870D01*
X384120Y437820D02*
X393120Y437820D01*
X393120Y438770D02*
X384120Y438770D01*
X384120Y439720D02*
X393120Y439720D01*
X229400Y410900D02*
X219400Y410900D01*
X229400Y410900D02*
X229400Y401900D01*
X219400Y401900D01*
X219400Y410900D01*
X219400Y402850D02*
X229400Y402850D01*
X229400Y403800D02*
X219400Y403800D01*
X219400Y404750D02*
X229400Y404750D01*
X229400Y405700D02*
X219400Y405700D01*
X219400Y406650D02*
X229400Y406650D01*
X229400Y407600D02*
X219400Y407600D01*
X219400Y408550D02*
X229400Y408550D01*
X229400Y409500D02*
X219400Y409500D01*
X219400Y410450D02*
X229400Y410450D01*
X212400Y410900D02*
X202400Y410900D01*
X212400Y410900D02*
X212400Y401900D01*
X202400Y401900D01*
X202400Y410900D01*
X202400Y402850D02*
X212400Y402850D01*
X212400Y403800D02*
X202400Y403800D01*
X202400Y404750D02*
X212400Y404750D01*
X212400Y405700D02*
X202400Y405700D01*
X202400Y406650D02*
X212400Y406650D01*
X212400Y407600D02*
X202400Y407600D01*
X202400Y408550D02*
X212400Y408550D01*
X212400Y409500D02*
X202400Y409500D01*
X202400Y410450D02*
X212400Y410450D01*
X212400Y363800D02*
X202400Y363800D01*
X202400Y372800D01*
X212400Y372800D01*
X212400Y363800D01*
X212400Y364750D02*
X202400Y364750D01*
X202400Y365700D02*
X212400Y365700D01*
X212400Y366650D02*
X202400Y366650D01*
X202400Y367600D02*
X212400Y367600D01*
X212400Y368550D02*
X202400Y368550D01*
X202400Y369500D02*
X212400Y369500D01*
X212400Y370450D02*
X202400Y370450D01*
X202400Y371400D02*
X212400Y371400D01*
X212400Y372350D02*
X202400Y372350D01*
X219400Y363800D02*
X229400Y363800D01*
X219400Y363800D02*
X219400Y372800D01*
X229400Y372800D01*
X229400Y363800D01*
X229400Y364750D02*
X219400Y364750D01*
X219400Y365700D02*
X229400Y365700D01*
X229400Y366650D02*
X219400Y366650D01*
X219400Y367600D02*
X229400Y367600D01*
X229400Y368550D02*
X219400Y368550D01*
X219400Y369500D02*
X229400Y369500D01*
X229400Y370450D02*
X219400Y370450D01*
X219400Y371400D02*
X229400Y371400D01*
X229400Y372350D02*
X219400Y372350D01*
D15*
X396735Y220485D02*
X403365Y220485D01*
X403365Y206235D01*
X396735Y206235D01*
X396735Y220485D01*
X396735Y207176D02*
X403365Y207176D01*
X403365Y208117D02*
X396735Y208117D01*
X396735Y209058D02*
X403365Y209058D01*
X403365Y209999D02*
X396735Y209999D01*
X396735Y210940D02*
X403365Y210940D01*
X403365Y211881D02*
X396735Y211881D01*
X396735Y212822D02*
X403365Y212822D01*
X403365Y213763D02*
X396735Y213763D01*
X396735Y214704D02*
X403365Y214704D01*
X403365Y215645D02*
X396735Y215645D01*
X396735Y216586D02*
X403365Y216586D01*
X403365Y217527D02*
X396735Y217527D01*
X396735Y218468D02*
X403365Y218468D01*
X403365Y219409D02*
X396735Y219409D01*
X396735Y220350D02*
X403365Y220350D01*
X403365Y276365D02*
X396735Y276365D01*
X403365Y276365D02*
X403365Y262115D01*
X396735Y262115D01*
X396735Y276365D01*
X396735Y263056D02*
X403365Y263056D01*
X403365Y263997D02*
X396735Y263997D01*
X396735Y264938D02*
X403365Y264938D01*
X403365Y265879D02*
X396735Y265879D01*
X396735Y266820D02*
X403365Y266820D01*
X403365Y267761D02*
X396735Y267761D01*
X396735Y268702D02*
X403365Y268702D01*
X403365Y269643D02*
X396735Y269643D01*
X396735Y270584D02*
X403365Y270584D01*
X403365Y271525D02*
X396735Y271525D01*
X396735Y272466D02*
X403365Y272466D01*
X403365Y273407D02*
X396735Y273407D01*
X396735Y274348D02*
X403365Y274348D01*
X403365Y275289D02*
X396735Y275289D01*
X396735Y276230D02*
X403365Y276230D01*
X434835Y220485D02*
X441465Y220485D01*
X441465Y206235D01*
X434835Y206235D01*
X434835Y220485D01*
X434835Y207176D02*
X441465Y207176D01*
X441465Y208117D02*
X434835Y208117D01*
X434835Y209058D02*
X441465Y209058D01*
X441465Y209999D02*
X434835Y209999D01*
X434835Y210940D02*
X441465Y210940D01*
X441465Y211881D02*
X434835Y211881D01*
X434835Y212822D02*
X441465Y212822D01*
X441465Y213763D02*
X434835Y213763D01*
X434835Y214704D02*
X441465Y214704D01*
X441465Y215645D02*
X434835Y215645D01*
X434835Y216586D02*
X441465Y216586D01*
X441465Y217527D02*
X434835Y217527D01*
X434835Y218468D02*
X441465Y218468D01*
X441465Y219409D02*
X434835Y219409D01*
X434835Y220350D02*
X441465Y220350D01*
X441465Y276365D02*
X434835Y276365D01*
X441465Y276365D02*
X441465Y262115D01*
X434835Y262115D01*
X434835Y276365D01*
X434835Y263056D02*
X441465Y263056D01*
X441465Y263997D02*
X434835Y263997D01*
X434835Y264938D02*
X441465Y264938D01*
X441465Y265879D02*
X434835Y265879D01*
X434835Y266820D02*
X441465Y266820D01*
X441465Y267761D02*
X434835Y267761D01*
X434835Y268702D02*
X441465Y268702D01*
X441465Y269643D02*
X434835Y269643D01*
X434835Y270584D02*
X441465Y270584D01*
X441465Y271525D02*
X434835Y271525D01*
X434835Y272466D02*
X441465Y272466D01*
X441465Y273407D02*
X434835Y273407D01*
X434835Y274348D02*
X441465Y274348D01*
X441465Y275289D02*
X434835Y275289D01*
X434835Y276230D02*
X441465Y276230D01*
D16*
X181123Y376957D02*
X169905Y376957D01*
X181123Y376957D02*
X181123Y355579D01*
X169905Y355579D01*
X169905Y376957D01*
X169905Y356505D02*
X181123Y356505D01*
X181123Y357431D02*
X169905Y357431D01*
X169905Y358357D02*
X181123Y358357D01*
X181123Y359283D02*
X169905Y359283D01*
X169905Y360209D02*
X181123Y360209D01*
X181123Y361135D02*
X169905Y361135D01*
X169905Y362061D02*
X181123Y362061D01*
X181123Y362987D02*
X169905Y362987D01*
X169905Y363913D02*
X181123Y363913D01*
X181123Y364839D02*
X169905Y364839D01*
X169905Y365765D02*
X181123Y365765D01*
X181123Y366691D02*
X169905Y366691D01*
X169905Y367617D02*
X181123Y367617D01*
X181123Y368543D02*
X169905Y368543D01*
X169905Y369469D02*
X181123Y369469D01*
X181123Y370395D02*
X169905Y370395D01*
X169905Y371321D02*
X181123Y371321D01*
X181123Y372247D02*
X169905Y372247D01*
X169905Y373173D02*
X181123Y373173D01*
X181123Y374099D02*
X169905Y374099D01*
X169905Y375025D02*
X181123Y375025D01*
X181123Y375951D02*
X169905Y375951D01*
X169905Y376877D02*
X181123Y376877D01*
X158009Y376957D02*
X146791Y376957D01*
X158009Y376957D02*
X158009Y355579D01*
X146791Y355579D01*
X146791Y376957D01*
X146791Y356505D02*
X158009Y356505D01*
X158009Y357431D02*
X146791Y357431D01*
X146791Y358357D02*
X158009Y358357D01*
X158009Y359283D02*
X146791Y359283D01*
X146791Y360209D02*
X158009Y360209D01*
X158009Y361135D02*
X146791Y361135D01*
X146791Y362061D02*
X158009Y362061D01*
X158009Y362987D02*
X146791Y362987D01*
X146791Y363913D02*
X158009Y363913D01*
X158009Y364839D02*
X146791Y364839D01*
X146791Y365765D02*
X158009Y365765D01*
X158009Y366691D02*
X146791Y366691D01*
X146791Y367617D02*
X158009Y367617D01*
X158009Y368543D02*
X146791Y368543D01*
X146791Y369469D02*
X158009Y369469D01*
X158009Y370395D02*
X146791Y370395D01*
X146791Y371321D02*
X158009Y371321D01*
X158009Y372247D02*
X146791Y372247D01*
X146791Y373173D02*
X158009Y373173D01*
X158009Y374099D02*
X146791Y374099D01*
X146791Y375025D02*
X158009Y375025D01*
X158009Y375951D02*
X146791Y375951D01*
X146791Y376877D02*
X158009Y376877D01*
X134895Y376957D02*
X123677Y376957D01*
X134895Y376957D02*
X134895Y355579D01*
X123677Y355579D01*
X123677Y376957D01*
X123677Y356505D02*
X134895Y356505D01*
X134895Y357431D02*
X123677Y357431D01*
X123677Y358357D02*
X134895Y358357D01*
X134895Y359283D02*
X123677Y359283D01*
X123677Y360209D02*
X134895Y360209D01*
X134895Y361135D02*
X123677Y361135D01*
X123677Y362061D02*
X134895Y362061D01*
X134895Y362987D02*
X123677Y362987D01*
X123677Y363913D02*
X134895Y363913D01*
X134895Y364839D02*
X123677Y364839D01*
X123677Y365765D02*
X134895Y365765D01*
X134895Y366691D02*
X123677Y366691D01*
X123677Y367617D02*
X134895Y367617D01*
X134895Y368543D02*
X123677Y368543D01*
X123677Y369469D02*
X134895Y369469D01*
X134895Y370395D02*
X123677Y370395D01*
X123677Y371321D02*
X134895Y371321D01*
X134895Y372247D02*
X123677Y372247D01*
X123677Y373173D02*
X134895Y373173D01*
X134895Y374099D02*
X123677Y374099D01*
X123677Y375025D02*
X134895Y375025D01*
X134895Y375951D02*
X123677Y375951D01*
X123677Y376877D02*
X134895Y376877D01*
D17*
X134950Y314740D02*
X169850Y314740D01*
X169850Y293840D01*
X134950Y293840D01*
X134950Y314740D01*
X134950Y294885D02*
X169850Y294885D01*
X169850Y295930D02*
X134950Y295930D01*
X134950Y296975D02*
X169850Y296975D01*
X169850Y298020D02*
X134950Y298020D01*
X134950Y299065D02*
X169850Y299065D01*
X169850Y300110D02*
X134950Y300110D01*
X134950Y301155D02*
X169850Y301155D01*
X169850Y302200D02*
X134950Y302200D01*
X134950Y303245D02*
X169850Y303245D01*
X169850Y304290D02*
X134950Y304290D01*
X134950Y305335D02*
X169850Y305335D01*
X169850Y306380D02*
X134950Y306380D01*
X134950Y307425D02*
X169850Y307425D01*
X169850Y308470D02*
X134950Y308470D01*
X134950Y309515D02*
X169850Y309515D01*
X169850Y310560D02*
X134950Y310560D01*
X134950Y311605D02*
X169850Y311605D01*
X169850Y312650D02*
X134950Y312650D01*
X134950Y313695D02*
X169850Y313695D01*
X169850Y314740D02*
X134950Y314740D01*
D14*
X123140Y217970D02*
X118160Y217970D01*
X118160Y228950D01*
X123140Y228950D01*
X123140Y217970D01*
X123140Y218939D02*
X118160Y218939D01*
X118160Y219908D02*
X123140Y219908D01*
X123140Y220877D02*
X118160Y220877D01*
X118160Y221846D02*
X123140Y221846D01*
X123140Y222815D02*
X118160Y222815D01*
X118160Y223784D02*
X123140Y223784D01*
X123140Y224753D02*
X118160Y224753D01*
X118160Y225722D02*
X123140Y225722D01*
X123140Y226691D02*
X118160Y226691D01*
X118160Y227660D02*
X123140Y227660D01*
X123140Y228629D02*
X118160Y228629D01*
X130860Y217970D02*
X135840Y217970D01*
X130860Y217970D02*
X130860Y228950D01*
X135840Y228950D01*
X135840Y217970D01*
X135840Y218939D02*
X130860Y218939D01*
X130860Y219908D02*
X135840Y219908D01*
X135840Y220877D02*
X130860Y220877D01*
X130860Y221846D02*
X135840Y221846D01*
X135840Y222815D02*
X130860Y222815D01*
X130860Y223784D02*
X135840Y223784D01*
X135840Y224753D02*
X130860Y224753D01*
X130860Y225722D02*
X135840Y225722D01*
X135840Y226691D02*
X130860Y226691D01*
X130860Y227660D02*
X135840Y227660D01*
X135840Y228629D02*
X130860Y228629D01*
X143560Y217970D02*
X148540Y217970D01*
X143560Y217970D02*
X143560Y228950D01*
X148540Y228950D01*
X148540Y217970D01*
X148540Y218939D02*
X143560Y218939D01*
X143560Y219908D02*
X148540Y219908D01*
X148540Y220877D02*
X143560Y220877D01*
X143560Y221846D02*
X148540Y221846D01*
X148540Y222815D02*
X143560Y222815D01*
X143560Y223784D02*
X148540Y223784D01*
X148540Y224753D02*
X143560Y224753D01*
X143560Y225722D02*
X148540Y225722D01*
X148540Y226691D02*
X143560Y226691D01*
X143560Y227660D02*
X148540Y227660D01*
X148540Y228629D02*
X143560Y228629D01*
X156260Y217970D02*
X161240Y217970D01*
X156260Y217970D02*
X156260Y228950D01*
X161240Y228950D01*
X161240Y217970D01*
X161240Y218939D02*
X156260Y218939D01*
X156260Y219908D02*
X161240Y219908D01*
X161240Y220877D02*
X156260Y220877D01*
X156260Y221846D02*
X161240Y221846D01*
X161240Y222815D02*
X156260Y222815D01*
X156260Y223784D02*
X161240Y223784D01*
X161240Y224753D02*
X156260Y224753D01*
X156260Y225722D02*
X161240Y225722D01*
X161240Y226691D02*
X156260Y226691D01*
X156260Y227660D02*
X161240Y227660D01*
X161240Y228629D02*
X156260Y228629D01*
X168960Y217970D02*
X173940Y217970D01*
X168960Y217970D02*
X168960Y228950D01*
X173940Y228950D01*
X173940Y217970D01*
X173940Y218939D02*
X168960Y218939D01*
X168960Y219908D02*
X173940Y219908D01*
X173940Y220877D02*
X168960Y220877D01*
X168960Y221846D02*
X173940Y221846D01*
X173940Y222815D02*
X168960Y222815D01*
X168960Y223784D02*
X173940Y223784D01*
X173940Y224753D02*
X168960Y224753D01*
X168960Y225722D02*
X173940Y225722D01*
X173940Y226691D02*
X168960Y226691D01*
X168960Y227660D02*
X173940Y227660D01*
X173940Y228629D02*
X168960Y228629D01*
X181660Y217970D02*
X186640Y217970D01*
X181660Y217970D02*
X181660Y228950D01*
X186640Y228950D01*
X186640Y217970D01*
X186640Y218939D02*
X181660Y218939D01*
X181660Y219908D02*
X186640Y219908D01*
X186640Y220877D02*
X181660Y220877D01*
X181660Y221846D02*
X186640Y221846D01*
X186640Y222815D02*
X181660Y222815D01*
X181660Y223784D02*
X186640Y223784D01*
X186640Y224753D02*
X181660Y224753D01*
X181660Y225722D02*
X186640Y225722D01*
X186640Y226691D02*
X181660Y226691D01*
X181660Y227660D02*
X186640Y227660D01*
X186640Y228629D02*
X181660Y228629D01*
X194360Y217970D02*
X199340Y217970D01*
X194360Y217970D02*
X194360Y228950D01*
X199340Y228950D01*
X199340Y217970D01*
X199340Y218939D02*
X194360Y218939D01*
X194360Y219908D02*
X199340Y219908D01*
X199340Y220877D02*
X194360Y220877D01*
X194360Y221846D02*
X199340Y221846D01*
X199340Y222815D02*
X194360Y222815D01*
X194360Y223784D02*
X199340Y223784D01*
X199340Y224753D02*
X194360Y224753D01*
X194360Y225722D02*
X199340Y225722D01*
X199340Y226691D02*
X194360Y226691D01*
X194360Y227660D02*
X199340Y227660D01*
X199340Y228629D02*
X194360Y228629D01*
X207060Y217970D02*
X212040Y217970D01*
X207060Y217970D02*
X207060Y228950D01*
X212040Y228950D01*
X212040Y217970D01*
X212040Y218939D02*
X207060Y218939D01*
X207060Y219908D02*
X212040Y219908D01*
X212040Y220877D02*
X207060Y220877D01*
X207060Y221846D02*
X212040Y221846D01*
X212040Y222815D02*
X207060Y222815D01*
X207060Y223784D02*
X212040Y223784D01*
X212040Y224753D02*
X207060Y224753D01*
X207060Y225722D02*
X212040Y225722D01*
X212040Y226691D02*
X207060Y226691D01*
X207060Y227660D02*
X212040Y227660D01*
X212040Y228629D02*
X207060Y228629D01*
X207060Y273970D02*
X212040Y273970D01*
X207060Y273970D02*
X207060Y284950D01*
X212040Y284950D01*
X212040Y273970D01*
X212040Y274939D02*
X207060Y274939D01*
X207060Y275908D02*
X212040Y275908D01*
X212040Y276877D02*
X207060Y276877D01*
X207060Y277846D02*
X212040Y277846D01*
X212040Y278815D02*
X207060Y278815D01*
X207060Y279784D02*
X212040Y279784D01*
X212040Y280753D02*
X207060Y280753D01*
X207060Y281722D02*
X212040Y281722D01*
X212040Y282691D02*
X207060Y282691D01*
X207060Y283660D02*
X212040Y283660D01*
X212040Y284629D02*
X207060Y284629D01*
X199340Y273970D02*
X194360Y273970D01*
X194360Y284950D01*
X199340Y284950D01*
X199340Y273970D01*
X199340Y274939D02*
X194360Y274939D01*
X194360Y275908D02*
X199340Y275908D01*
X199340Y276877D02*
X194360Y276877D01*
X194360Y277846D02*
X199340Y277846D01*
X199340Y278815D02*
X194360Y278815D01*
X194360Y279784D02*
X199340Y279784D01*
X199340Y280753D02*
X194360Y280753D01*
X194360Y281722D02*
X199340Y281722D01*
X199340Y282691D02*
X194360Y282691D01*
X194360Y283660D02*
X199340Y283660D01*
X199340Y284629D02*
X194360Y284629D01*
X186640Y273970D02*
X181660Y273970D01*
X181660Y284950D01*
X186640Y284950D01*
X186640Y273970D01*
X186640Y274939D02*
X181660Y274939D01*
X181660Y275908D02*
X186640Y275908D01*
X186640Y276877D02*
X181660Y276877D01*
X181660Y277846D02*
X186640Y277846D01*
X186640Y278815D02*
X181660Y278815D01*
X181660Y279784D02*
X186640Y279784D01*
X186640Y280753D02*
X181660Y280753D01*
X181660Y281722D02*
X186640Y281722D01*
X186640Y282691D02*
X181660Y282691D01*
X181660Y283660D02*
X186640Y283660D01*
X186640Y284629D02*
X181660Y284629D01*
X173940Y273970D02*
X168960Y273970D01*
X168960Y284950D01*
X173940Y284950D01*
X173940Y273970D01*
X173940Y274939D02*
X168960Y274939D01*
X168960Y275908D02*
X173940Y275908D01*
X173940Y276877D02*
X168960Y276877D01*
X168960Y277846D02*
X173940Y277846D01*
X173940Y278815D02*
X168960Y278815D01*
X168960Y279784D02*
X173940Y279784D01*
X173940Y280753D02*
X168960Y280753D01*
X168960Y281722D02*
X173940Y281722D01*
X173940Y282691D02*
X168960Y282691D01*
X168960Y283660D02*
X173940Y283660D01*
X173940Y284629D02*
X168960Y284629D01*
X161240Y273970D02*
X156260Y273970D01*
X156260Y284950D01*
X161240Y284950D01*
X161240Y273970D01*
X161240Y274939D02*
X156260Y274939D01*
X156260Y275908D02*
X161240Y275908D01*
X161240Y276877D02*
X156260Y276877D01*
X156260Y277846D02*
X161240Y277846D01*
X161240Y278815D02*
X156260Y278815D01*
X156260Y279784D02*
X161240Y279784D01*
X161240Y280753D02*
X156260Y280753D01*
X156260Y281722D02*
X161240Y281722D01*
X161240Y282691D02*
X156260Y282691D01*
X156260Y283660D02*
X161240Y283660D01*
X161240Y284629D02*
X156260Y284629D01*
X148540Y273970D02*
X143560Y273970D01*
X143560Y284950D01*
X148540Y284950D01*
X148540Y273970D01*
X148540Y274939D02*
X143560Y274939D01*
X143560Y275908D02*
X148540Y275908D01*
X148540Y276877D02*
X143560Y276877D01*
X143560Y277846D02*
X148540Y277846D01*
X148540Y278815D02*
X143560Y278815D01*
X143560Y279784D02*
X148540Y279784D01*
X148540Y280753D02*
X143560Y280753D01*
X143560Y281722D02*
X148540Y281722D01*
X148540Y282691D02*
X143560Y282691D01*
X143560Y283660D02*
X148540Y283660D01*
X148540Y284629D02*
X143560Y284629D01*
X135840Y273970D02*
X130860Y273970D01*
X130860Y284950D01*
X135840Y284950D01*
X135840Y273970D01*
X135840Y274939D02*
X130860Y274939D01*
X130860Y275908D02*
X135840Y275908D01*
X135840Y276877D02*
X130860Y276877D01*
X130860Y277846D02*
X135840Y277846D01*
X135840Y278815D02*
X130860Y278815D01*
X130860Y279784D02*
X135840Y279784D01*
X135840Y280753D02*
X130860Y280753D01*
X130860Y281722D02*
X135840Y281722D01*
X135840Y282691D02*
X130860Y282691D01*
X130860Y283660D02*
X135840Y283660D01*
X135840Y284629D02*
X130860Y284629D01*
X123140Y273970D02*
X118160Y273970D01*
X118160Y284950D01*
X123140Y284950D01*
X123140Y273970D01*
X123140Y274939D02*
X118160Y274939D01*
X118160Y275908D02*
X123140Y275908D01*
X123140Y276877D02*
X118160Y276877D01*
X118160Y277846D02*
X123140Y277846D01*
X123140Y278815D02*
X118160Y278815D01*
X118160Y279784D02*
X123140Y279784D01*
X123140Y280753D02*
X118160Y280753D01*
X118160Y281722D02*
X123140Y281722D01*
X123140Y282691D02*
X118160Y282691D01*
X118160Y283660D02*
X123140Y283660D01*
X123140Y284629D02*
X118160Y284629D01*
D18*
X87955Y386806D02*
X83445Y386806D01*
X87955Y386806D02*
X87955Y375796D01*
X83445Y375796D01*
X83445Y386806D01*
X83445Y376736D02*
X87955Y376736D01*
X87955Y377676D02*
X83445Y377676D01*
X83445Y378616D02*
X87955Y378616D01*
X87955Y379556D02*
X83445Y379556D01*
X83445Y380496D02*
X87955Y380496D01*
X87955Y381436D02*
X83445Y381436D01*
X83445Y382376D02*
X87955Y382376D01*
X87955Y383316D02*
X83445Y383316D01*
X83445Y384256D02*
X87955Y384256D01*
X87955Y385196D02*
X83445Y385196D01*
X83445Y386136D02*
X87955Y386136D01*
X78455Y386806D02*
X73945Y386806D01*
X78455Y386806D02*
X78455Y375796D01*
X73945Y375796D01*
X73945Y386806D01*
X73945Y376736D02*
X78455Y376736D01*
X78455Y377676D02*
X73945Y377676D01*
X73945Y378616D02*
X78455Y378616D01*
X78455Y379556D02*
X73945Y379556D01*
X73945Y380496D02*
X78455Y380496D01*
X78455Y381436D02*
X73945Y381436D01*
X73945Y382376D02*
X78455Y382376D01*
X78455Y383316D02*
X73945Y383316D01*
X73945Y384256D02*
X78455Y384256D01*
X78455Y385196D02*
X73945Y385196D01*
X73945Y386136D02*
X78455Y386136D01*
X68955Y386806D02*
X64445Y386806D01*
X68955Y386806D02*
X68955Y375796D01*
X64445Y375796D01*
X64445Y386806D01*
X64445Y376736D02*
X68955Y376736D01*
X68955Y377676D02*
X64445Y377676D01*
X64445Y378616D02*
X68955Y378616D01*
X68955Y379556D02*
X64445Y379556D01*
X64445Y380496D02*
X68955Y380496D01*
X68955Y381436D02*
X64445Y381436D01*
X64445Y382376D02*
X68955Y382376D01*
X68955Y383316D02*
X64445Y383316D01*
X64445Y384256D02*
X68955Y384256D01*
X68955Y385196D02*
X64445Y385196D01*
X64445Y386136D02*
X68955Y386136D01*
X68955Y360804D02*
X64445Y360804D01*
X68955Y360804D02*
X68955Y349794D01*
X64445Y349794D01*
X64445Y360804D01*
X64445Y350734D02*
X68955Y350734D01*
X68955Y351674D02*
X64445Y351674D01*
X64445Y352614D02*
X68955Y352614D01*
X68955Y353554D02*
X64445Y353554D01*
X64445Y354494D02*
X68955Y354494D01*
X68955Y355434D02*
X64445Y355434D01*
X64445Y356374D02*
X68955Y356374D01*
X68955Y357314D02*
X64445Y357314D01*
X64445Y358254D02*
X68955Y358254D01*
X68955Y359194D02*
X64445Y359194D01*
X64445Y360134D02*
X68955Y360134D01*
X83445Y360804D02*
X87955Y360804D01*
X87955Y349794D01*
X83445Y349794D01*
X83445Y360804D01*
X83445Y350734D02*
X87955Y350734D01*
X87955Y351674D02*
X83445Y351674D01*
X83445Y352614D02*
X87955Y352614D01*
X87955Y353554D02*
X83445Y353554D01*
X83445Y354494D02*
X87955Y354494D01*
X87955Y355434D02*
X83445Y355434D01*
X83445Y356374D02*
X87955Y356374D01*
X87955Y357314D02*
X83445Y357314D01*
X83445Y358254D02*
X87955Y358254D01*
X87955Y359194D02*
X83445Y359194D01*
X83445Y360134D02*
X87955Y360134D01*
X307835Y405805D02*
X318845Y405805D01*
X318845Y395795D01*
X307835Y395795D01*
X307835Y405805D01*
X307835Y396735D02*
X318845Y396735D01*
X318845Y397675D02*
X307835Y397675D01*
X307835Y398615D02*
X318845Y398615D01*
X318845Y399555D02*
X307835Y399555D01*
X307835Y400495D02*
X318845Y400495D01*
X318845Y401435D02*
X307835Y401435D01*
X307835Y402375D02*
X318845Y402375D01*
X318845Y403315D02*
X307835Y403315D01*
X307835Y404255D02*
X318845Y404255D01*
X318845Y405195D02*
X307835Y405195D01*
X301845Y405805D02*
X290835Y405805D01*
X301845Y405805D02*
X301845Y395795D01*
X290835Y395795D01*
X290835Y405805D01*
X290835Y396735D02*
X301845Y396735D01*
X301845Y397675D02*
X290835Y397675D01*
X290835Y398615D02*
X301845Y398615D01*
X301845Y399555D02*
X290835Y399555D01*
X290835Y400495D02*
X301845Y400495D01*
X301845Y401435D02*
X290835Y401435D01*
X290835Y402375D02*
X301845Y402375D01*
X301845Y403315D02*
X290835Y403315D01*
X290835Y404255D02*
X301845Y404255D01*
X301845Y405195D02*
X290835Y405195D01*
X290835Y391805D02*
X301845Y391805D01*
X301845Y381795D01*
X290835Y381795D01*
X290835Y391805D01*
X290835Y382735D02*
X301845Y382735D01*
X301845Y383675D02*
X290835Y383675D01*
X290835Y384615D02*
X301845Y384615D01*
X301845Y385555D02*
X290835Y385555D01*
X290835Y386495D02*
X301845Y386495D01*
X301845Y387435D02*
X290835Y387435D01*
X290835Y388375D02*
X301845Y388375D01*
X301845Y389315D02*
X290835Y389315D01*
X290835Y390255D02*
X301845Y390255D01*
X301845Y391195D02*
X290835Y391195D01*
X307835Y391805D02*
X318845Y391805D01*
X318845Y381795D01*
X307835Y381795D01*
X307835Y391805D01*
X307835Y382735D02*
X318845Y382735D01*
X318845Y383675D02*
X307835Y383675D01*
X307835Y384615D02*
X318845Y384615D01*
X318845Y385555D02*
X307835Y385555D01*
X307835Y386495D02*
X318845Y386495D01*
X318845Y387435D02*
X307835Y387435D01*
X307835Y388375D02*
X318845Y388375D01*
X318845Y389315D02*
X307835Y389315D01*
X307835Y390255D02*
X318845Y390255D01*
X318845Y391195D02*
X307835Y391195D01*
D10*
X334700Y411950D02*
X334700Y421950D01*
X334700Y411950D02*
X325700Y411950D01*
X325700Y421950D01*
X334700Y421950D01*
X334700Y412900D02*
X325700Y412900D01*
X325700Y413850D02*
X334700Y413850D01*
X334700Y414800D02*
X325700Y414800D01*
X325700Y415750D02*
X334700Y415750D01*
X334700Y416700D02*
X325700Y416700D01*
X325700Y417650D02*
X334700Y417650D01*
X334700Y418600D02*
X325700Y418600D01*
X325700Y419550D02*
X334700Y419550D01*
X334700Y420500D02*
X325700Y420500D01*
X325700Y421450D02*
X334700Y421450D01*
X334700Y428950D02*
X334700Y438950D01*
X334700Y428950D02*
X325700Y428950D01*
X325700Y438950D01*
X334700Y438950D01*
X334700Y429900D02*
X325700Y429900D01*
X325700Y430850D02*
X334700Y430850D01*
X334700Y431800D02*
X325700Y431800D01*
X325700Y432750D02*
X334700Y432750D01*
X334700Y433700D02*
X325700Y433700D01*
X325700Y434650D02*
X334700Y434650D01*
X334700Y435600D02*
X325700Y435600D01*
X325700Y436550D02*
X334700Y436550D01*
X334700Y437500D02*
X325700Y437500D01*
X325700Y438450D02*
X334700Y438450D01*
X353750Y421950D02*
X353750Y411950D01*
X344750Y411950D01*
X344750Y421950D01*
X353750Y421950D01*
X353750Y412900D02*
X344750Y412900D01*
X344750Y413850D02*
X353750Y413850D01*
X353750Y414800D02*
X344750Y414800D01*
X344750Y415750D02*
X353750Y415750D01*
X353750Y416700D02*
X344750Y416700D01*
X344750Y417650D02*
X353750Y417650D01*
X353750Y418600D02*
X344750Y418600D01*
X344750Y419550D02*
X353750Y419550D01*
X353750Y420500D02*
X344750Y420500D01*
X344750Y421450D02*
X353750Y421450D01*
X353750Y428950D02*
X353750Y438950D01*
X353750Y428950D02*
X344750Y428950D01*
X344750Y438950D01*
X353750Y438950D01*
X353750Y429900D02*
X344750Y429900D01*
X344750Y430850D02*
X353750Y430850D01*
X353750Y431800D02*
X344750Y431800D01*
X344750Y432750D02*
X353750Y432750D01*
X353750Y433700D02*
X344750Y433700D01*
X344750Y434650D02*
X353750Y434650D01*
X353750Y435600D02*
X344750Y435600D01*
X344750Y436550D02*
X353750Y436550D01*
X353750Y437500D02*
X344750Y437500D01*
X344750Y438450D02*
X353750Y438450D01*
X212400Y338400D02*
X202400Y338400D01*
X202400Y347400D01*
X212400Y347400D01*
X212400Y338400D01*
X212400Y339350D02*
X202400Y339350D01*
X202400Y340300D02*
X212400Y340300D01*
X212400Y341250D02*
X202400Y341250D01*
X202400Y342200D02*
X212400Y342200D01*
X212400Y343150D02*
X202400Y343150D01*
X202400Y344100D02*
X212400Y344100D01*
X212400Y345050D02*
X202400Y345050D01*
X202400Y346000D02*
X212400Y346000D01*
X212400Y346950D02*
X202400Y346950D01*
X219400Y338400D02*
X229400Y338400D01*
X219400Y338400D02*
X219400Y347400D01*
X229400Y347400D01*
X229400Y338400D01*
X229400Y339350D02*
X219400Y339350D01*
X219400Y340300D02*
X229400Y340300D01*
X229400Y341250D02*
X219400Y341250D01*
X219400Y342200D02*
X229400Y342200D01*
X229400Y343150D02*
X219400Y343150D01*
X219400Y344100D02*
X229400Y344100D01*
X229400Y345050D02*
X219400Y345050D01*
X219400Y346000D02*
X229400Y346000D01*
X229400Y346950D02*
X219400Y346950D01*
X107480Y313110D02*
X97480Y313110D01*
X107480Y313110D02*
X107480Y304110D01*
X97480Y304110D01*
X97480Y313110D01*
X97480Y305060D02*
X107480Y305060D01*
X107480Y306010D02*
X97480Y306010D01*
X97480Y306960D02*
X107480Y306960D01*
X107480Y307910D02*
X97480Y307910D01*
X97480Y308860D02*
X107480Y308860D01*
X107480Y309810D02*
X97480Y309810D01*
X97480Y310760D02*
X107480Y310760D01*
X107480Y311710D02*
X97480Y311710D01*
X97480Y312660D02*
X107480Y312660D01*
X90480Y313110D02*
X80480Y313110D01*
X90480Y313110D02*
X90480Y304110D01*
X80480Y304110D01*
X80480Y313110D01*
X80480Y305060D02*
X90480Y305060D01*
X90480Y306010D02*
X80480Y306010D01*
X80480Y306960D02*
X90480Y306960D01*
X90480Y307910D02*
X80480Y307910D01*
X80480Y308860D02*
X90480Y308860D01*
X90480Y309810D02*
X80480Y309810D01*
X80480Y310760D02*
X90480Y310760D01*
X90480Y311710D02*
X80480Y311710D01*
X80480Y312660D02*
X90480Y312660D01*
X325700Y299250D02*
X325700Y289250D01*
X325700Y299250D02*
X334700Y299250D01*
X334700Y289250D01*
X325700Y289250D01*
X325700Y290200D02*
X334700Y290200D01*
X334700Y291150D02*
X325700Y291150D01*
X325700Y292100D02*
X334700Y292100D01*
X334700Y293050D02*
X325700Y293050D01*
X325700Y294000D02*
X334700Y294000D01*
X334700Y294950D02*
X325700Y294950D01*
X325700Y295900D02*
X334700Y295900D01*
X334700Y296850D02*
X325700Y296850D01*
X325700Y297800D02*
X334700Y297800D01*
X334700Y298750D02*
X325700Y298750D01*
X325700Y282250D02*
X325700Y272250D01*
X325700Y282250D02*
X334700Y282250D01*
X334700Y272250D01*
X325700Y272250D01*
X325700Y273200D02*
X334700Y273200D01*
X334700Y274150D02*
X325700Y274150D01*
X325700Y275100D02*
X334700Y275100D01*
X334700Y276050D02*
X325700Y276050D01*
X325700Y277000D02*
X334700Y277000D01*
X334700Y277950D02*
X325700Y277950D01*
X325700Y278900D02*
X334700Y278900D01*
X334700Y279850D02*
X325700Y279850D01*
X325700Y280800D02*
X334700Y280800D01*
X334700Y281750D02*
X325700Y281750D01*
X131900Y476110D02*
X122900Y476110D01*
X131900Y476110D02*
X131900Y465610D01*
X122900Y465610D01*
X122900Y476110D01*
X122900Y466560D02*
X131900Y466560D01*
X131900Y467510D02*
X122900Y467510D01*
X122900Y468460D02*
X131900Y468460D01*
X131900Y469410D02*
X122900Y469410D01*
X122900Y470360D02*
X131900Y470360D01*
X131900Y471310D02*
X122900Y471310D01*
X122900Y472260D02*
X131900Y472260D01*
X131900Y473210D02*
X122900Y473210D01*
X122900Y474160D02*
X131900Y474160D01*
X131900Y475110D02*
X122900Y475110D01*
X122900Y476060D02*
X131900Y476060D01*
X147900Y476110D02*
X156900Y476110D01*
X156900Y465610D01*
X147900Y465610D01*
X147900Y476110D01*
X147900Y466560D02*
X156900Y466560D01*
X156900Y467510D02*
X147900Y467510D01*
X147900Y468460D02*
X156900Y468460D01*
X156900Y469410D02*
X147900Y469410D01*
X147900Y470360D02*
X156900Y470360D01*
X156900Y471310D02*
X147900Y471310D01*
X147900Y472260D02*
X156900Y472260D01*
X156900Y473210D02*
X147900Y473210D01*
X147900Y474160D02*
X156900Y474160D01*
X156900Y475110D02*
X147900Y475110D01*
X147900Y476060D02*
X156900Y476060D01*
X172900Y476110D02*
X181900Y476110D01*
X181900Y465610D01*
X172900Y465610D01*
X172900Y476110D01*
X172900Y466560D02*
X181900Y466560D01*
X181900Y467510D02*
X172900Y467510D01*
X172900Y468460D02*
X181900Y468460D01*
X181900Y469410D02*
X172900Y469410D01*
X172900Y470360D02*
X181900Y470360D01*
X181900Y471310D02*
X172900Y471310D01*
X172900Y472260D02*
X181900Y472260D01*
X181900Y473210D02*
X172900Y473210D01*
X172900Y474160D02*
X181900Y474160D01*
X181900Y475110D02*
X172900Y475110D01*
X172900Y476060D02*
X181900Y476060D01*
X131900Y532610D02*
X122900Y532610D01*
X131900Y532610D02*
X131900Y522110D01*
X122900Y522110D01*
X122900Y532610D01*
X122900Y523060D02*
X131900Y523060D01*
X131900Y524010D02*
X122900Y524010D01*
X122900Y524960D02*
X131900Y524960D01*
X131900Y525910D02*
X122900Y525910D01*
X122900Y526860D02*
X131900Y526860D01*
X131900Y527810D02*
X122900Y527810D01*
X122900Y528760D02*
X131900Y528760D01*
X131900Y529710D02*
X122900Y529710D01*
X122900Y530660D02*
X131900Y530660D01*
X131900Y531610D02*
X122900Y531610D01*
X122900Y532560D02*
X131900Y532560D01*
X147900Y532610D02*
X156900Y532610D01*
X156900Y522110D01*
X147900Y522110D01*
X147900Y532610D01*
X147900Y523060D02*
X156900Y523060D01*
X156900Y524010D02*
X147900Y524010D01*
X147900Y524960D02*
X156900Y524960D01*
X156900Y525910D02*
X147900Y525910D01*
X147900Y526860D02*
X156900Y526860D01*
X156900Y527810D02*
X147900Y527810D01*
X147900Y528760D02*
X156900Y528760D01*
X156900Y529710D02*
X147900Y529710D01*
X147900Y530660D02*
X156900Y530660D01*
X156900Y531610D02*
X147900Y531610D01*
X147900Y532560D02*
X156900Y532560D01*
X172900Y532610D02*
X181900Y532610D01*
X181900Y522110D01*
X172900Y522110D01*
X172900Y532610D01*
X172900Y523060D02*
X181900Y523060D01*
X181900Y524010D02*
X172900Y524010D01*
X172900Y524960D02*
X181900Y524960D01*
X181900Y525910D02*
X172900Y525910D01*
X172900Y526860D02*
X181900Y526860D01*
X181900Y527810D02*
X172900Y527810D01*
X172900Y528760D02*
X181900Y528760D01*
X181900Y529710D02*
X172900Y529710D01*
X172900Y530660D02*
X181900Y530660D01*
X181900Y531610D02*
X172900Y531610D01*
X172900Y532560D02*
X181900Y532560D01*
D19*
X234232Y503832D02*
X248368Y503832D01*
X234232Y503832D02*
X234232Y524868D01*
X248368Y524868D01*
X248368Y503832D01*
X248368Y504843D02*
X234232Y504843D01*
X234232Y505854D02*
X248368Y505854D01*
X248368Y506865D02*
X234232Y506865D01*
X234232Y507876D02*
X248368Y507876D01*
X248368Y508887D02*
X234232Y508887D01*
X234232Y509898D02*
X248368Y509898D01*
X248368Y510909D02*
X234232Y510909D01*
X234232Y511920D02*
X248368Y511920D01*
X248368Y512931D02*
X234232Y512931D01*
X234232Y513942D02*
X248368Y513942D01*
X248368Y514953D02*
X234232Y514953D01*
X234232Y515964D02*
X248368Y515964D01*
X248368Y516975D02*
X234232Y516975D01*
X234232Y517986D02*
X248368Y517986D01*
X248368Y518997D02*
X234232Y518997D01*
X234232Y520008D02*
X248368Y520008D01*
X248368Y521019D02*
X234232Y521019D01*
X234232Y522030D02*
X248368Y522030D01*
X248368Y523041D02*
X234232Y523041D01*
X234232Y524052D02*
X248368Y524052D01*
X274932Y503832D02*
X289068Y503832D01*
X274932Y503832D02*
X274932Y524868D01*
X289068Y524868D01*
X289068Y503832D01*
X289068Y504843D02*
X274932Y504843D01*
X274932Y505854D02*
X289068Y505854D01*
X289068Y506865D02*
X274932Y506865D01*
X274932Y507876D02*
X289068Y507876D01*
X289068Y508887D02*
X274932Y508887D01*
X274932Y509898D02*
X289068Y509898D01*
X289068Y510909D02*
X274932Y510909D01*
X274932Y511920D02*
X289068Y511920D01*
X289068Y512931D02*
X274932Y512931D01*
X274932Y513942D02*
X289068Y513942D01*
X289068Y514953D02*
X274932Y514953D01*
X274932Y515964D02*
X289068Y515964D01*
X289068Y516975D02*
X274932Y516975D01*
X274932Y517986D02*
X289068Y517986D01*
X289068Y518997D02*
X274932Y518997D01*
X274932Y520008D02*
X289068Y520008D01*
X289068Y521019D02*
X274932Y521019D01*
X274932Y522030D02*
X289068Y522030D01*
X289068Y523041D02*
X274932Y523041D01*
X274932Y524052D02*
X289068Y524052D01*
D10*
X108750Y294060D02*
X98750Y294060D01*
X108750Y294060D02*
X108750Y285060D01*
X98750Y285060D01*
X98750Y294060D01*
X98750Y286010D02*
X108750Y286010D01*
X108750Y286960D02*
X98750Y286960D01*
X98750Y287910D02*
X108750Y287910D01*
X108750Y288860D02*
X98750Y288860D01*
X98750Y289810D02*
X108750Y289810D01*
X108750Y290760D02*
X98750Y290760D01*
X98750Y291710D02*
X108750Y291710D01*
X108750Y292660D02*
X98750Y292660D01*
X98750Y293610D02*
X108750Y293610D01*
X91750Y294060D02*
X81750Y294060D01*
X91750Y294060D02*
X91750Y285060D01*
X81750Y285060D01*
X81750Y294060D01*
X81750Y286010D02*
X91750Y286010D01*
X91750Y286960D02*
X81750Y286960D01*
X81750Y287910D02*
X91750Y287910D01*
X91750Y288860D02*
X81750Y288860D01*
X81750Y289810D02*
X91750Y289810D01*
X91750Y290760D02*
X81750Y290760D01*
X81750Y291710D02*
X91750Y291710D01*
X91750Y292660D02*
X81750Y292660D01*
X81750Y293610D02*
X91750Y293610D01*
X70160Y246960D02*
X60160Y246960D01*
X60160Y255960D01*
X70160Y255960D01*
X70160Y246960D01*
X70160Y247910D02*
X60160Y247910D01*
X60160Y248860D02*
X70160Y248860D01*
X70160Y249810D02*
X60160Y249810D01*
X60160Y250760D02*
X70160Y250760D01*
X70160Y251710D02*
X60160Y251710D01*
X60160Y252660D02*
X70160Y252660D01*
X70160Y253610D02*
X60160Y253610D01*
X60160Y254560D02*
X70160Y254560D01*
X70160Y255510D02*
X60160Y255510D01*
X77160Y246960D02*
X87160Y246960D01*
X77160Y246960D02*
X77160Y255960D01*
X87160Y255960D01*
X87160Y246960D01*
X87160Y247910D02*
X77160Y247910D01*
X77160Y248860D02*
X87160Y248860D01*
X87160Y249810D02*
X77160Y249810D01*
X77160Y250760D02*
X87160Y250760D01*
X87160Y251710D02*
X77160Y251710D01*
X77160Y252660D02*
X87160Y252660D01*
X87160Y253610D02*
X77160Y253610D01*
X77160Y254560D02*
X87160Y254560D01*
X87160Y255510D02*
X77160Y255510D01*
D20*
X380104Y338996D02*
X394696Y338996D01*
X394696Y337204D01*
X380104Y337204D01*
X380104Y338996D01*
X380104Y338162D02*
X394696Y338162D01*
X394696Y343996D02*
X380104Y343996D01*
X394696Y343996D02*
X394696Y342204D01*
X380104Y342204D01*
X380104Y343996D01*
X380104Y343162D02*
X394696Y343162D01*
X394696Y348996D02*
X380104Y348996D01*
X394696Y348996D02*
X394696Y347204D01*
X380104Y347204D01*
X380104Y348996D01*
X380104Y348162D02*
X394696Y348162D01*
X394696Y353996D02*
X380104Y353996D01*
X394696Y353996D02*
X394696Y352204D01*
X380104Y352204D01*
X380104Y353996D01*
X380104Y353162D02*
X394696Y353162D01*
X394696Y358996D02*
X380104Y358996D01*
X394696Y358996D02*
X394696Y357204D01*
X380104Y357204D01*
X380104Y358996D01*
X380104Y358162D02*
X394696Y358162D01*
X394696Y363996D02*
X380104Y363996D01*
X394696Y363996D02*
X394696Y362204D01*
X380104Y362204D01*
X380104Y363996D01*
X380104Y363162D02*
X394696Y363162D01*
X394696Y368996D02*
X380104Y368996D01*
X394696Y368996D02*
X394696Y367204D01*
X380104Y367204D01*
X380104Y368996D01*
X380104Y368162D02*
X394696Y368162D01*
X394696Y373996D02*
X380104Y373996D01*
X394696Y373996D02*
X394696Y372204D01*
X380104Y372204D01*
X380104Y373996D01*
X380104Y373162D02*
X394696Y373162D01*
X331096Y373996D02*
X316504Y373996D01*
X331096Y373996D02*
X331096Y372204D01*
X316504Y372204D01*
X316504Y373996D01*
X316504Y373162D02*
X331096Y373162D01*
X331096Y368996D02*
X316504Y368996D01*
X331096Y368996D02*
X331096Y367204D01*
X316504Y367204D01*
X316504Y368996D01*
X316504Y368162D02*
X331096Y368162D01*
X331096Y363996D02*
X316504Y363996D01*
X331096Y363996D02*
X331096Y362204D01*
X316504Y362204D01*
X316504Y363996D01*
X316504Y363162D02*
X331096Y363162D01*
X331096Y358996D02*
X316504Y358996D01*
X331096Y358996D02*
X331096Y357204D01*
X316504Y357204D01*
X316504Y358996D01*
X316504Y358162D02*
X331096Y358162D01*
X331096Y353996D02*
X316504Y353996D01*
X331096Y353996D02*
X331096Y352204D01*
X316504Y352204D01*
X316504Y353996D01*
X316504Y353162D02*
X331096Y353162D01*
X331096Y348996D02*
X316504Y348996D01*
X331096Y348996D02*
X331096Y347204D01*
X316504Y347204D01*
X316504Y348996D01*
X316504Y348162D02*
X331096Y348162D01*
X331096Y343996D02*
X316504Y343996D01*
X331096Y343996D02*
X331096Y342204D01*
X316504Y342204D01*
X316504Y343996D01*
X316504Y343162D02*
X331096Y343162D01*
X331096Y338996D02*
X316504Y338996D01*
X331096Y338996D02*
X331096Y337204D01*
X316504Y337204D01*
X316504Y338996D01*
X316504Y338162D02*
X331096Y338162D01*
X338996Y331096D02*
X338996Y316504D01*
X337204Y316504D01*
X337204Y331096D01*
X338996Y331096D01*
X338996Y317462D02*
X337204Y317462D01*
X337204Y318420D02*
X338996Y318420D01*
X338996Y319378D02*
X337204Y319378D01*
X337204Y320336D02*
X338996Y320336D01*
X338996Y321294D02*
X337204Y321294D01*
X337204Y322252D02*
X338996Y322252D01*
X338996Y323210D02*
X337204Y323210D01*
X337204Y324168D02*
X338996Y324168D01*
X338996Y325126D02*
X337204Y325126D01*
X337204Y326084D02*
X338996Y326084D01*
X338996Y327042D02*
X337204Y327042D01*
X337204Y328000D02*
X338996Y328000D01*
X338996Y328958D02*
X337204Y328958D01*
X337204Y329916D02*
X338996Y329916D01*
X338996Y330874D02*
X337204Y330874D01*
X343996Y331096D02*
X343996Y316504D01*
X342204Y316504D01*
X342204Y331096D01*
X343996Y331096D01*
X343996Y317462D02*
X342204Y317462D01*
X342204Y318420D02*
X343996Y318420D01*
X343996Y319378D02*
X342204Y319378D01*
X342204Y320336D02*
X343996Y320336D01*
X343996Y321294D02*
X342204Y321294D01*
X342204Y322252D02*
X343996Y322252D01*
X343996Y323210D02*
X342204Y323210D01*
X342204Y324168D02*
X343996Y324168D01*
X343996Y325126D02*
X342204Y325126D01*
X342204Y326084D02*
X343996Y326084D01*
X343996Y327042D02*
X342204Y327042D01*
X342204Y328000D02*
X343996Y328000D01*
X343996Y328958D02*
X342204Y328958D01*
X342204Y329916D02*
X343996Y329916D01*
X343996Y330874D02*
X342204Y330874D01*
X348996Y331096D02*
X348996Y316504D01*
X347204Y316504D01*
X347204Y331096D01*
X348996Y331096D01*
X348996Y317462D02*
X347204Y317462D01*
X347204Y318420D02*
X348996Y318420D01*
X348996Y319378D02*
X347204Y319378D01*
X347204Y320336D02*
X348996Y320336D01*
X348996Y321294D02*
X347204Y321294D01*
X347204Y322252D02*
X348996Y322252D01*
X348996Y323210D02*
X347204Y323210D01*
X347204Y324168D02*
X348996Y324168D01*
X348996Y325126D02*
X347204Y325126D01*
X347204Y326084D02*
X348996Y326084D01*
X348996Y327042D02*
X347204Y327042D01*
X347204Y328000D02*
X348996Y328000D01*
X348996Y328958D02*
X347204Y328958D01*
X347204Y329916D02*
X348996Y329916D01*
X348996Y330874D02*
X347204Y330874D01*
X353996Y331096D02*
X353996Y316504D01*
X352204Y316504D01*
X352204Y331096D01*
X353996Y331096D01*
X353996Y317462D02*
X352204Y317462D01*
X352204Y318420D02*
X353996Y318420D01*
X353996Y319378D02*
X352204Y319378D01*
X352204Y320336D02*
X353996Y320336D01*
X353996Y321294D02*
X352204Y321294D01*
X352204Y322252D02*
X353996Y322252D01*
X353996Y323210D02*
X352204Y323210D01*
X352204Y324168D02*
X353996Y324168D01*
X353996Y325126D02*
X352204Y325126D01*
X352204Y326084D02*
X353996Y326084D01*
X353996Y327042D02*
X352204Y327042D01*
X352204Y328000D02*
X353996Y328000D01*
X353996Y328958D02*
X352204Y328958D01*
X352204Y329916D02*
X353996Y329916D01*
X353996Y330874D02*
X352204Y330874D01*
X358996Y331096D02*
X358996Y316504D01*
X357204Y316504D01*
X357204Y331096D01*
X358996Y331096D01*
X358996Y317462D02*
X357204Y317462D01*
X357204Y318420D02*
X358996Y318420D01*
X358996Y319378D02*
X357204Y319378D01*
X357204Y320336D02*
X358996Y320336D01*
X358996Y321294D02*
X357204Y321294D01*
X357204Y322252D02*
X358996Y322252D01*
X358996Y323210D02*
X357204Y323210D01*
X357204Y324168D02*
X358996Y324168D01*
X358996Y325126D02*
X357204Y325126D01*
X357204Y326084D02*
X358996Y326084D01*
X358996Y327042D02*
X357204Y327042D01*
X357204Y328000D02*
X358996Y328000D01*
X358996Y328958D02*
X357204Y328958D01*
X357204Y329916D02*
X358996Y329916D01*
X358996Y330874D02*
X357204Y330874D01*
X363996Y331096D02*
X363996Y316504D01*
X362204Y316504D01*
X362204Y331096D01*
X363996Y331096D01*
X363996Y317462D02*
X362204Y317462D01*
X362204Y318420D02*
X363996Y318420D01*
X363996Y319378D02*
X362204Y319378D01*
X362204Y320336D02*
X363996Y320336D01*
X363996Y321294D02*
X362204Y321294D01*
X362204Y322252D02*
X363996Y322252D01*
X363996Y323210D02*
X362204Y323210D01*
X362204Y324168D02*
X363996Y324168D01*
X363996Y325126D02*
X362204Y325126D01*
X362204Y326084D02*
X363996Y326084D01*
X363996Y327042D02*
X362204Y327042D01*
X362204Y328000D02*
X363996Y328000D01*
X363996Y328958D02*
X362204Y328958D01*
X362204Y329916D02*
X363996Y329916D01*
X363996Y330874D02*
X362204Y330874D01*
X368996Y331096D02*
X368996Y316504D01*
X367204Y316504D01*
X367204Y331096D01*
X368996Y331096D01*
X368996Y317462D02*
X367204Y317462D01*
X367204Y318420D02*
X368996Y318420D01*
X368996Y319378D02*
X367204Y319378D01*
X367204Y320336D02*
X368996Y320336D01*
X368996Y321294D02*
X367204Y321294D01*
X367204Y322252D02*
X368996Y322252D01*
X368996Y323210D02*
X367204Y323210D01*
X367204Y324168D02*
X368996Y324168D01*
X368996Y325126D02*
X367204Y325126D01*
X367204Y326084D02*
X368996Y326084D01*
X368996Y327042D02*
X367204Y327042D01*
X367204Y328000D02*
X368996Y328000D01*
X368996Y328958D02*
X367204Y328958D01*
X367204Y329916D02*
X368996Y329916D01*
X368996Y330874D02*
X367204Y330874D01*
X373996Y331096D02*
X373996Y316504D01*
X372204Y316504D01*
X372204Y331096D01*
X373996Y331096D01*
X373996Y317462D02*
X372204Y317462D01*
X372204Y318420D02*
X373996Y318420D01*
X373996Y319378D02*
X372204Y319378D01*
X372204Y320336D02*
X373996Y320336D01*
X373996Y321294D02*
X372204Y321294D01*
X372204Y322252D02*
X373996Y322252D01*
X373996Y323210D02*
X372204Y323210D01*
X372204Y324168D02*
X373996Y324168D01*
X373996Y325126D02*
X372204Y325126D01*
X372204Y326084D02*
X373996Y326084D01*
X373996Y327042D02*
X372204Y327042D01*
X372204Y328000D02*
X373996Y328000D01*
X373996Y328958D02*
X372204Y328958D01*
X372204Y329916D02*
X373996Y329916D01*
X373996Y330874D02*
X372204Y330874D01*
X373996Y380104D02*
X373996Y394696D01*
X373996Y380104D02*
X372204Y380104D01*
X372204Y394696D01*
X373996Y394696D01*
X373996Y381062D02*
X372204Y381062D01*
X372204Y382020D02*
X373996Y382020D01*
X373996Y382978D02*
X372204Y382978D01*
X372204Y383936D02*
X373996Y383936D01*
X373996Y384894D02*
X372204Y384894D01*
X372204Y385852D02*
X373996Y385852D01*
X373996Y386810D02*
X372204Y386810D01*
X372204Y387768D02*
X373996Y387768D01*
X373996Y388726D02*
X372204Y388726D01*
X372204Y389684D02*
X373996Y389684D01*
X373996Y390642D02*
X372204Y390642D01*
X372204Y391600D02*
X373996Y391600D01*
X373996Y392558D02*
X372204Y392558D01*
X372204Y393516D02*
X373996Y393516D01*
X373996Y394474D02*
X372204Y394474D01*
X368996Y394696D02*
X368996Y380104D01*
X367204Y380104D01*
X367204Y394696D01*
X368996Y394696D01*
X368996Y381062D02*
X367204Y381062D01*
X367204Y382020D02*
X368996Y382020D01*
X368996Y382978D02*
X367204Y382978D01*
X367204Y383936D02*
X368996Y383936D01*
X368996Y384894D02*
X367204Y384894D01*
X367204Y385852D02*
X368996Y385852D01*
X368996Y386810D02*
X367204Y386810D01*
X367204Y387768D02*
X368996Y387768D01*
X368996Y388726D02*
X367204Y388726D01*
X367204Y389684D02*
X368996Y389684D01*
X368996Y390642D02*
X367204Y390642D01*
X367204Y391600D02*
X368996Y391600D01*
X368996Y392558D02*
X367204Y392558D01*
X367204Y393516D02*
X368996Y393516D01*
X368996Y394474D02*
X367204Y394474D01*
X363996Y394696D02*
X363996Y380104D01*
X362204Y380104D01*
X362204Y394696D01*
X363996Y394696D01*
X363996Y381062D02*
X362204Y381062D01*
X362204Y382020D02*
X363996Y382020D01*
X363996Y382978D02*
X362204Y382978D01*
X362204Y383936D02*
X363996Y383936D01*
X363996Y384894D02*
X362204Y384894D01*
X362204Y385852D02*
X363996Y385852D01*
X363996Y386810D02*
X362204Y386810D01*
X362204Y387768D02*
X363996Y387768D01*
X363996Y388726D02*
X362204Y388726D01*
X362204Y389684D02*
X363996Y389684D01*
X363996Y390642D02*
X362204Y390642D01*
X362204Y391600D02*
X363996Y391600D01*
X363996Y392558D02*
X362204Y392558D01*
X362204Y393516D02*
X363996Y393516D01*
X363996Y394474D02*
X362204Y394474D01*
X358996Y394696D02*
X358996Y380104D01*
X357204Y380104D01*
X357204Y394696D01*
X358996Y394696D01*
X358996Y381062D02*
X357204Y381062D01*
X357204Y382020D02*
X358996Y382020D01*
X358996Y382978D02*
X357204Y382978D01*
X357204Y383936D02*
X358996Y383936D01*
X358996Y384894D02*
X357204Y384894D01*
X357204Y385852D02*
X358996Y385852D01*
X358996Y386810D02*
X357204Y386810D01*
X357204Y387768D02*
X358996Y387768D01*
X358996Y388726D02*
X357204Y388726D01*
X357204Y389684D02*
X358996Y389684D01*
X358996Y390642D02*
X357204Y390642D01*
X357204Y391600D02*
X358996Y391600D01*
X358996Y392558D02*
X357204Y392558D01*
X357204Y393516D02*
X358996Y393516D01*
X358996Y394474D02*
X357204Y394474D01*
X353996Y394696D02*
X353996Y380104D01*
X352204Y380104D01*
X352204Y394696D01*
X353996Y394696D01*
X353996Y381062D02*
X352204Y381062D01*
X352204Y382020D02*
X353996Y382020D01*
X353996Y382978D02*
X352204Y382978D01*
X352204Y383936D02*
X353996Y383936D01*
X353996Y384894D02*
X352204Y384894D01*
X352204Y385852D02*
X353996Y385852D01*
X353996Y386810D02*
X352204Y386810D01*
X352204Y387768D02*
X353996Y387768D01*
X353996Y388726D02*
X352204Y388726D01*
X352204Y389684D02*
X353996Y389684D01*
X353996Y390642D02*
X352204Y390642D01*
X352204Y391600D02*
X353996Y391600D01*
X353996Y392558D02*
X352204Y392558D01*
X352204Y393516D02*
X353996Y393516D01*
X353996Y394474D02*
X352204Y394474D01*
X348996Y394696D02*
X348996Y380104D01*
X347204Y380104D01*
X347204Y394696D01*
X348996Y394696D01*
X348996Y381062D02*
X347204Y381062D01*
X347204Y382020D02*
X348996Y382020D01*
X348996Y382978D02*
X347204Y382978D01*
X347204Y383936D02*
X348996Y383936D01*
X348996Y384894D02*
X347204Y384894D01*
X347204Y385852D02*
X348996Y385852D01*
X348996Y386810D02*
X347204Y386810D01*
X347204Y387768D02*
X348996Y387768D01*
X348996Y388726D02*
X347204Y388726D01*
X347204Y389684D02*
X348996Y389684D01*
X348996Y390642D02*
X347204Y390642D01*
X347204Y391600D02*
X348996Y391600D01*
X348996Y392558D02*
X347204Y392558D01*
X347204Y393516D02*
X348996Y393516D01*
X348996Y394474D02*
X347204Y394474D01*
X343996Y394696D02*
X343996Y380104D01*
X342204Y380104D01*
X342204Y394696D01*
X343996Y394696D01*
X343996Y381062D02*
X342204Y381062D01*
X342204Y382020D02*
X343996Y382020D01*
X343996Y382978D02*
X342204Y382978D01*
X342204Y383936D02*
X343996Y383936D01*
X343996Y384894D02*
X342204Y384894D01*
X342204Y385852D02*
X343996Y385852D01*
X343996Y386810D02*
X342204Y386810D01*
X342204Y387768D02*
X343996Y387768D01*
X343996Y388726D02*
X342204Y388726D01*
X342204Y389684D02*
X343996Y389684D01*
X343996Y390642D02*
X342204Y390642D01*
X342204Y391600D02*
X343996Y391600D01*
X343996Y392558D02*
X342204Y392558D01*
X342204Y393516D02*
X343996Y393516D01*
X343996Y394474D02*
X342204Y394474D01*
X338996Y394696D02*
X338996Y380104D01*
X337204Y380104D01*
X337204Y394696D01*
X338996Y394696D01*
X338996Y381062D02*
X337204Y381062D01*
X337204Y382020D02*
X338996Y382020D01*
X338996Y382978D02*
X337204Y382978D01*
X337204Y383936D02*
X338996Y383936D01*
X338996Y384894D02*
X337204Y384894D01*
X337204Y385852D02*
X338996Y385852D01*
X338996Y386810D02*
X337204Y386810D01*
X337204Y387768D02*
X338996Y387768D01*
X338996Y388726D02*
X337204Y388726D01*
X337204Y389684D02*
X338996Y389684D01*
X338996Y390642D02*
X337204Y390642D01*
X337204Y391600D02*
X338996Y391600D01*
X338996Y392558D02*
X337204Y392558D01*
X337204Y393516D02*
X338996Y393516D01*
X338996Y394474D02*
X337204Y394474D01*
D10*
X181900Y442100D02*
X172900Y442100D01*
X172900Y452600D01*
X181900Y452600D01*
X181900Y442100D01*
X181900Y443050D02*
X172900Y443050D01*
X172900Y444000D02*
X181900Y444000D01*
X181900Y444950D02*
X172900Y444950D01*
X172900Y445900D02*
X181900Y445900D01*
X181900Y446850D02*
X172900Y446850D01*
X172900Y447800D02*
X181900Y447800D01*
X181900Y448750D02*
X172900Y448750D01*
X172900Y449700D02*
X181900Y449700D01*
X181900Y450650D02*
X172900Y450650D01*
X172900Y451600D02*
X181900Y451600D01*
X181900Y452550D02*
X172900Y452550D01*
X156900Y442100D02*
X147900Y442100D01*
X147900Y452600D01*
X156900Y452600D01*
X156900Y442100D01*
X156900Y443050D02*
X147900Y443050D01*
X147900Y444000D02*
X156900Y444000D01*
X156900Y444950D02*
X147900Y444950D01*
X147900Y445900D02*
X156900Y445900D01*
X156900Y446850D02*
X147900Y446850D01*
X147900Y447800D02*
X156900Y447800D01*
X156900Y448750D02*
X147900Y448750D01*
X147900Y449700D02*
X156900Y449700D01*
X156900Y450650D02*
X147900Y450650D01*
X147900Y451600D02*
X156900Y451600D01*
X156900Y452550D02*
X147900Y452550D01*
X131900Y442100D02*
X122900Y442100D01*
X122900Y452600D01*
X131900Y452600D01*
X131900Y442100D01*
X131900Y443050D02*
X122900Y443050D01*
X122900Y444000D02*
X131900Y444000D01*
X131900Y444950D02*
X122900Y444950D01*
X122900Y445900D02*
X131900Y445900D01*
X131900Y446850D02*
X122900Y446850D01*
X122900Y447800D02*
X131900Y447800D01*
X131900Y448750D02*
X122900Y448750D01*
X122900Y449700D02*
X131900Y449700D01*
X131900Y450650D02*
X122900Y450650D01*
X122900Y451600D02*
X131900Y451600D01*
X131900Y452550D02*
X122900Y452550D01*
X172900Y385600D02*
X181900Y385600D01*
X172900Y385600D02*
X172900Y396100D01*
X181900Y396100D01*
X181900Y385600D01*
X181900Y386550D02*
X172900Y386550D01*
X172900Y387500D02*
X181900Y387500D01*
X181900Y388450D02*
X172900Y388450D01*
X172900Y389400D02*
X181900Y389400D01*
X181900Y390350D02*
X172900Y390350D01*
X172900Y391300D02*
X181900Y391300D01*
X181900Y392250D02*
X172900Y392250D01*
X172900Y393200D02*
X181900Y393200D01*
X181900Y394150D02*
X172900Y394150D01*
X172900Y395100D02*
X181900Y395100D01*
X181900Y396050D02*
X172900Y396050D01*
X156900Y385600D02*
X147900Y385600D01*
X147900Y396100D01*
X156900Y396100D01*
X156900Y385600D01*
X156900Y386550D02*
X147900Y386550D01*
X147900Y387500D02*
X156900Y387500D01*
X156900Y388450D02*
X147900Y388450D01*
X147900Y389400D02*
X156900Y389400D01*
X156900Y390350D02*
X147900Y390350D01*
X147900Y391300D02*
X156900Y391300D01*
X156900Y392250D02*
X147900Y392250D01*
X147900Y393200D02*
X156900Y393200D01*
X156900Y394150D02*
X147900Y394150D01*
X147900Y395100D02*
X156900Y395100D01*
X156900Y396050D02*
X147900Y396050D01*
X131900Y385600D02*
X122900Y385600D01*
X122900Y396100D01*
X131900Y396100D01*
X131900Y385600D01*
X131900Y386550D02*
X122900Y386550D01*
X122900Y387500D02*
X131900Y387500D01*
X131900Y388450D02*
X122900Y388450D01*
X122900Y389400D02*
X131900Y389400D01*
X131900Y390350D02*
X122900Y390350D01*
X122900Y391300D02*
X131900Y391300D01*
X131900Y392250D02*
X122900Y392250D01*
X122900Y393200D02*
X131900Y393200D01*
X131900Y394150D02*
X122900Y394150D01*
X122900Y395100D02*
X131900Y395100D01*
X131900Y396050D02*
X122900Y396050D01*
X389200Y486100D02*
X389200Y496100D01*
X398200Y496100D01*
X398200Y486100D01*
X389200Y486100D01*
X389200Y487050D02*
X398200Y487050D01*
X398200Y488000D02*
X389200Y488000D01*
X389200Y488950D02*
X398200Y488950D01*
X398200Y489900D02*
X389200Y489900D01*
X389200Y490850D02*
X398200Y490850D01*
X398200Y491800D02*
X389200Y491800D01*
X389200Y492750D02*
X398200Y492750D01*
X398200Y493700D02*
X389200Y493700D01*
X389200Y494650D02*
X398200Y494650D01*
X398200Y495600D02*
X389200Y495600D01*
X389200Y479100D02*
X389200Y469100D01*
X389200Y479100D02*
X398200Y479100D01*
X398200Y469100D01*
X389200Y469100D01*
X389200Y470050D02*
X398200Y470050D01*
X398200Y471000D02*
X389200Y471000D01*
X389200Y471950D02*
X398200Y471950D01*
X398200Y472900D02*
X389200Y472900D01*
X389200Y473850D02*
X398200Y473850D01*
X398200Y474800D02*
X389200Y474800D01*
X389200Y475750D02*
X398200Y475750D01*
X398200Y476700D02*
X389200Y476700D01*
X389200Y477650D02*
X398200Y477650D01*
X398200Y478600D02*
X389200Y478600D01*
X332050Y484830D02*
X332050Y494830D01*
X341050Y494830D01*
X341050Y484830D01*
X332050Y484830D01*
X332050Y485780D02*
X341050Y485780D01*
X341050Y486730D02*
X332050Y486730D01*
X332050Y487680D02*
X341050Y487680D01*
X341050Y488630D02*
X332050Y488630D01*
X332050Y489580D02*
X341050Y489580D01*
X341050Y490530D02*
X332050Y490530D01*
X332050Y491480D02*
X341050Y491480D01*
X341050Y492430D02*
X332050Y492430D01*
X332050Y493380D02*
X341050Y493380D01*
X341050Y494330D02*
X332050Y494330D01*
X332050Y477830D02*
X332050Y467830D01*
X332050Y477830D02*
X341050Y477830D01*
X341050Y467830D01*
X332050Y467830D01*
X332050Y468780D02*
X341050Y468780D01*
X341050Y469730D02*
X332050Y469730D01*
X332050Y470680D02*
X341050Y470680D01*
X341050Y471630D02*
X332050Y471630D01*
X332050Y472580D02*
X341050Y472580D01*
X341050Y473530D02*
X332050Y473530D01*
X332050Y474480D02*
X341050Y474480D01*
X341050Y475430D02*
X332050Y475430D01*
X332050Y476380D02*
X341050Y476380D01*
X341050Y477330D02*
X332050Y477330D01*
M02*
