G04 EAGLE Gerber RS-274X export*
G75*
%MOMM*%
%FSLAX34Y34*%
%LPD*%
%IN*%
%IPPOS*%
%AMOC8*
5,1,8,0,0,1.08239X$1,22.5*%
G01*
%ADD10C,0.203200*%
%ADD11C,0.000000*%
%ADD12C,0.600000*%
%ADD13C,0.254000*%


D10*
X25400Y-25400D02*
X508000Y-25400D01*
X533400Y0D01*
X533400Y546100D01*
X508000Y546100D01*
X482600Y571500D01*
X152400Y571500D01*
X127000Y546100D01*
X12700Y546100D01*
X0Y533400D01*
X0Y0D01*
X25400Y-25400D01*
D11*
X379980Y522450D02*
X379982Y522563D01*
X379988Y522677D01*
X379998Y522790D01*
X380012Y522902D01*
X380029Y523014D01*
X380051Y523126D01*
X380077Y523236D01*
X380106Y523346D01*
X380139Y523454D01*
X380176Y523562D01*
X380217Y523667D01*
X380261Y523772D01*
X380309Y523875D01*
X380360Y523976D01*
X380415Y524075D01*
X380474Y524172D01*
X380536Y524267D01*
X380601Y524360D01*
X380669Y524451D01*
X380740Y524539D01*
X380815Y524625D01*
X380892Y524708D01*
X380972Y524788D01*
X381055Y524865D01*
X381141Y524940D01*
X381229Y525011D01*
X381320Y525079D01*
X381413Y525144D01*
X381508Y525206D01*
X381605Y525265D01*
X381704Y525320D01*
X381805Y525371D01*
X381908Y525419D01*
X382013Y525463D01*
X382118Y525504D01*
X382226Y525541D01*
X382334Y525574D01*
X382444Y525603D01*
X382554Y525629D01*
X382666Y525651D01*
X382778Y525668D01*
X382890Y525682D01*
X383003Y525692D01*
X383117Y525698D01*
X383230Y525700D01*
X383343Y525698D01*
X383457Y525692D01*
X383570Y525682D01*
X383682Y525668D01*
X383794Y525651D01*
X383906Y525629D01*
X384016Y525603D01*
X384126Y525574D01*
X384234Y525541D01*
X384342Y525504D01*
X384447Y525463D01*
X384552Y525419D01*
X384655Y525371D01*
X384756Y525320D01*
X384855Y525265D01*
X384952Y525206D01*
X385047Y525144D01*
X385140Y525079D01*
X385231Y525011D01*
X385319Y524940D01*
X385405Y524865D01*
X385488Y524788D01*
X385568Y524708D01*
X385645Y524625D01*
X385720Y524539D01*
X385791Y524451D01*
X385859Y524360D01*
X385924Y524267D01*
X385986Y524172D01*
X386045Y524075D01*
X386100Y523976D01*
X386151Y523875D01*
X386199Y523772D01*
X386243Y523667D01*
X386284Y523562D01*
X386321Y523454D01*
X386354Y523346D01*
X386383Y523236D01*
X386409Y523126D01*
X386431Y523014D01*
X386448Y522902D01*
X386462Y522790D01*
X386472Y522677D01*
X386478Y522563D01*
X386480Y522450D01*
X386478Y522337D01*
X386472Y522223D01*
X386462Y522110D01*
X386448Y521998D01*
X386431Y521886D01*
X386409Y521774D01*
X386383Y521664D01*
X386354Y521554D01*
X386321Y521446D01*
X386284Y521338D01*
X386243Y521233D01*
X386199Y521128D01*
X386151Y521025D01*
X386100Y520924D01*
X386045Y520825D01*
X385986Y520728D01*
X385924Y520633D01*
X385859Y520540D01*
X385791Y520449D01*
X385720Y520361D01*
X385645Y520275D01*
X385568Y520192D01*
X385488Y520112D01*
X385405Y520035D01*
X385319Y519960D01*
X385231Y519889D01*
X385140Y519821D01*
X385047Y519756D01*
X384952Y519694D01*
X384855Y519635D01*
X384756Y519580D01*
X384655Y519529D01*
X384552Y519481D01*
X384447Y519437D01*
X384342Y519396D01*
X384234Y519359D01*
X384126Y519326D01*
X384016Y519297D01*
X383906Y519271D01*
X383794Y519249D01*
X383682Y519232D01*
X383570Y519218D01*
X383457Y519208D01*
X383343Y519202D01*
X383230Y519200D01*
X383117Y519202D01*
X383003Y519208D01*
X382890Y519218D01*
X382778Y519232D01*
X382666Y519249D01*
X382554Y519271D01*
X382444Y519297D01*
X382334Y519326D01*
X382226Y519359D01*
X382118Y519396D01*
X382013Y519437D01*
X381908Y519481D01*
X381805Y519529D01*
X381704Y519580D01*
X381605Y519635D01*
X381508Y519694D01*
X381413Y519756D01*
X381320Y519821D01*
X381229Y519889D01*
X381141Y519960D01*
X381055Y520035D01*
X380972Y520112D01*
X380892Y520192D01*
X380815Y520275D01*
X380740Y520361D01*
X380669Y520449D01*
X380601Y520540D01*
X380536Y520633D01*
X380474Y520728D01*
X380415Y520825D01*
X380360Y520924D01*
X380309Y521025D01*
X380261Y521128D01*
X380217Y521233D01*
X380176Y521338D01*
X380139Y521446D01*
X380106Y521554D01*
X380077Y521664D01*
X380051Y521774D01*
X380029Y521886D01*
X380012Y521998D01*
X379998Y522110D01*
X379988Y522223D01*
X379982Y522337D01*
X379980Y522450D01*
X322180Y522450D02*
X322182Y522563D01*
X322188Y522677D01*
X322198Y522790D01*
X322212Y522902D01*
X322229Y523014D01*
X322251Y523126D01*
X322277Y523236D01*
X322306Y523346D01*
X322339Y523454D01*
X322376Y523562D01*
X322417Y523667D01*
X322461Y523772D01*
X322509Y523875D01*
X322560Y523976D01*
X322615Y524075D01*
X322674Y524172D01*
X322736Y524267D01*
X322801Y524360D01*
X322869Y524451D01*
X322940Y524539D01*
X323015Y524625D01*
X323092Y524708D01*
X323172Y524788D01*
X323255Y524865D01*
X323341Y524940D01*
X323429Y525011D01*
X323520Y525079D01*
X323613Y525144D01*
X323708Y525206D01*
X323805Y525265D01*
X323904Y525320D01*
X324005Y525371D01*
X324108Y525419D01*
X324213Y525463D01*
X324318Y525504D01*
X324426Y525541D01*
X324534Y525574D01*
X324644Y525603D01*
X324754Y525629D01*
X324866Y525651D01*
X324978Y525668D01*
X325090Y525682D01*
X325203Y525692D01*
X325317Y525698D01*
X325430Y525700D01*
X325543Y525698D01*
X325657Y525692D01*
X325770Y525682D01*
X325882Y525668D01*
X325994Y525651D01*
X326106Y525629D01*
X326216Y525603D01*
X326326Y525574D01*
X326434Y525541D01*
X326542Y525504D01*
X326647Y525463D01*
X326752Y525419D01*
X326855Y525371D01*
X326956Y525320D01*
X327055Y525265D01*
X327152Y525206D01*
X327247Y525144D01*
X327340Y525079D01*
X327431Y525011D01*
X327519Y524940D01*
X327605Y524865D01*
X327688Y524788D01*
X327768Y524708D01*
X327845Y524625D01*
X327920Y524539D01*
X327991Y524451D01*
X328059Y524360D01*
X328124Y524267D01*
X328186Y524172D01*
X328245Y524075D01*
X328300Y523976D01*
X328351Y523875D01*
X328399Y523772D01*
X328443Y523667D01*
X328484Y523562D01*
X328521Y523454D01*
X328554Y523346D01*
X328583Y523236D01*
X328609Y523126D01*
X328631Y523014D01*
X328648Y522902D01*
X328662Y522790D01*
X328672Y522677D01*
X328678Y522563D01*
X328680Y522450D01*
X328678Y522337D01*
X328672Y522223D01*
X328662Y522110D01*
X328648Y521998D01*
X328631Y521886D01*
X328609Y521774D01*
X328583Y521664D01*
X328554Y521554D01*
X328521Y521446D01*
X328484Y521338D01*
X328443Y521233D01*
X328399Y521128D01*
X328351Y521025D01*
X328300Y520924D01*
X328245Y520825D01*
X328186Y520728D01*
X328124Y520633D01*
X328059Y520540D01*
X327991Y520449D01*
X327920Y520361D01*
X327845Y520275D01*
X327768Y520192D01*
X327688Y520112D01*
X327605Y520035D01*
X327519Y519960D01*
X327431Y519889D01*
X327340Y519821D01*
X327247Y519756D01*
X327152Y519694D01*
X327055Y519635D01*
X326956Y519580D01*
X326855Y519529D01*
X326752Y519481D01*
X326647Y519437D01*
X326542Y519396D01*
X326434Y519359D01*
X326326Y519326D01*
X326216Y519297D01*
X326106Y519271D01*
X325994Y519249D01*
X325882Y519232D01*
X325770Y519218D01*
X325657Y519208D01*
X325543Y519202D01*
X325430Y519200D01*
X325317Y519202D01*
X325203Y519208D01*
X325090Y519218D01*
X324978Y519232D01*
X324866Y519249D01*
X324754Y519271D01*
X324644Y519297D01*
X324534Y519326D01*
X324426Y519359D01*
X324318Y519396D01*
X324213Y519437D01*
X324108Y519481D01*
X324005Y519529D01*
X323904Y519580D01*
X323805Y519635D01*
X323708Y519694D01*
X323613Y519756D01*
X323520Y519821D01*
X323429Y519889D01*
X323341Y519960D01*
X323255Y520035D01*
X323172Y520112D01*
X323092Y520192D01*
X323015Y520275D01*
X322940Y520361D01*
X322869Y520449D01*
X322801Y520540D01*
X322736Y520633D01*
X322674Y520728D01*
X322615Y520825D01*
X322560Y520924D01*
X322509Y521025D01*
X322461Y521128D01*
X322417Y521233D01*
X322376Y521338D01*
X322339Y521446D01*
X322306Y521554D01*
X322277Y521664D01*
X322251Y521774D01*
X322229Y521886D01*
X322212Y521998D01*
X322198Y522110D01*
X322188Y522223D01*
X322182Y522337D01*
X322180Y522450D01*
D12*
X397510Y522650D02*
X397510Y511650D01*
X311150Y511650D02*
X311150Y522650D01*
X397510Y555800D02*
X397510Y562000D01*
X311150Y562000D02*
X311150Y555800D01*
D11*
X133150Y499110D02*
X133152Y499240D01*
X133158Y499370D01*
X133168Y499500D01*
X133182Y499630D01*
X133200Y499759D01*
X133222Y499887D01*
X133247Y500015D01*
X133277Y500142D01*
X133311Y500268D01*
X133348Y500392D01*
X133389Y500516D01*
X133434Y500638D01*
X133483Y500759D01*
X133535Y500878D01*
X133591Y500996D01*
X133651Y501112D01*
X133714Y501226D01*
X133781Y501338D01*
X133851Y501447D01*
X133924Y501555D01*
X134000Y501660D01*
X134080Y501763D01*
X134163Y501864D01*
X134249Y501962D01*
X134338Y502057D01*
X134430Y502150D01*
X134524Y502239D01*
X134621Y502326D01*
X134721Y502409D01*
X134824Y502490D01*
X134928Y502567D01*
X135035Y502641D01*
X135145Y502712D01*
X135256Y502780D01*
X135370Y502844D01*
X135485Y502904D01*
X135602Y502961D01*
X135721Y503014D01*
X135842Y503064D01*
X135963Y503110D01*
X136087Y503152D01*
X136211Y503190D01*
X136337Y503225D01*
X136463Y503256D01*
X136591Y503282D01*
X136719Y503305D01*
X136848Y503324D01*
X136977Y503339D01*
X137107Y503350D01*
X137237Y503357D01*
X137367Y503360D01*
X137498Y503359D01*
X137628Y503354D01*
X137758Y503345D01*
X137887Y503332D01*
X138017Y503315D01*
X138145Y503294D01*
X138273Y503269D01*
X138400Y503241D01*
X138526Y503208D01*
X138651Y503172D01*
X138775Y503131D01*
X138898Y503087D01*
X139019Y503040D01*
X139139Y502988D01*
X139257Y502933D01*
X139373Y502874D01*
X139487Y502812D01*
X139600Y502746D01*
X139710Y502677D01*
X139818Y502605D01*
X139924Y502529D01*
X140028Y502450D01*
X140129Y502368D01*
X140228Y502283D01*
X140324Y502195D01*
X140417Y502104D01*
X140507Y502010D01*
X140594Y501913D01*
X140679Y501814D01*
X140760Y501712D01*
X140838Y501608D01*
X140913Y501502D01*
X140985Y501393D01*
X141053Y501282D01*
X141118Y501169D01*
X141179Y501054D01*
X141237Y500937D01*
X141291Y500819D01*
X141342Y500699D01*
X141389Y500577D01*
X141432Y500454D01*
X141471Y500330D01*
X141507Y500205D01*
X141538Y500078D01*
X141566Y499951D01*
X141590Y499823D01*
X141610Y499694D01*
X141626Y499565D01*
X141638Y499435D01*
X141646Y499305D01*
X141650Y499175D01*
X141650Y499045D01*
X141646Y498915D01*
X141638Y498785D01*
X141626Y498655D01*
X141610Y498526D01*
X141590Y498397D01*
X141566Y498269D01*
X141538Y498142D01*
X141507Y498015D01*
X141471Y497890D01*
X141432Y497766D01*
X141389Y497643D01*
X141342Y497521D01*
X141291Y497401D01*
X141237Y497283D01*
X141179Y497166D01*
X141118Y497051D01*
X141053Y496938D01*
X140985Y496827D01*
X140913Y496718D01*
X140838Y496612D01*
X140760Y496508D01*
X140679Y496406D01*
X140594Y496307D01*
X140507Y496210D01*
X140417Y496116D01*
X140324Y496025D01*
X140228Y495937D01*
X140129Y495852D01*
X140028Y495770D01*
X139924Y495691D01*
X139818Y495615D01*
X139710Y495543D01*
X139600Y495474D01*
X139487Y495408D01*
X139373Y495346D01*
X139257Y495287D01*
X139139Y495232D01*
X139019Y495180D01*
X138898Y495133D01*
X138775Y495089D01*
X138651Y495048D01*
X138526Y495012D01*
X138400Y494979D01*
X138273Y494951D01*
X138145Y494926D01*
X138017Y494905D01*
X137887Y494888D01*
X137758Y494875D01*
X137628Y494866D01*
X137498Y494861D01*
X137367Y494860D01*
X137237Y494863D01*
X137107Y494870D01*
X136977Y494881D01*
X136848Y494896D01*
X136719Y494915D01*
X136591Y494938D01*
X136463Y494964D01*
X136337Y494995D01*
X136211Y495030D01*
X136087Y495068D01*
X135963Y495110D01*
X135842Y495156D01*
X135721Y495206D01*
X135602Y495259D01*
X135485Y495316D01*
X135370Y495376D01*
X135256Y495440D01*
X135145Y495508D01*
X135035Y495579D01*
X134928Y495653D01*
X134824Y495730D01*
X134721Y495811D01*
X134621Y495894D01*
X134524Y495981D01*
X134430Y496070D01*
X134338Y496163D01*
X134249Y496258D01*
X134163Y496356D01*
X134080Y496457D01*
X134000Y496560D01*
X133924Y496665D01*
X133851Y496773D01*
X133781Y496882D01*
X133714Y496994D01*
X133651Y497108D01*
X133591Y497224D01*
X133535Y497342D01*
X133483Y497461D01*
X133434Y497582D01*
X133389Y497704D01*
X133348Y497828D01*
X133311Y497952D01*
X133277Y498078D01*
X133247Y498205D01*
X133222Y498333D01*
X133200Y498461D01*
X133182Y498590D01*
X133168Y498720D01*
X133158Y498850D01*
X133152Y498980D01*
X133150Y499110D01*
X163150Y499110D02*
X163152Y499240D01*
X163158Y499370D01*
X163168Y499500D01*
X163182Y499630D01*
X163200Y499759D01*
X163222Y499887D01*
X163247Y500015D01*
X163277Y500142D01*
X163311Y500268D01*
X163348Y500392D01*
X163389Y500516D01*
X163434Y500638D01*
X163483Y500759D01*
X163535Y500878D01*
X163591Y500996D01*
X163651Y501112D01*
X163714Y501226D01*
X163781Y501338D01*
X163851Y501447D01*
X163924Y501555D01*
X164000Y501660D01*
X164080Y501763D01*
X164163Y501864D01*
X164249Y501962D01*
X164338Y502057D01*
X164430Y502150D01*
X164524Y502239D01*
X164621Y502326D01*
X164721Y502409D01*
X164824Y502490D01*
X164928Y502567D01*
X165035Y502641D01*
X165145Y502712D01*
X165256Y502780D01*
X165370Y502844D01*
X165485Y502904D01*
X165602Y502961D01*
X165721Y503014D01*
X165842Y503064D01*
X165963Y503110D01*
X166087Y503152D01*
X166211Y503190D01*
X166337Y503225D01*
X166463Y503256D01*
X166591Y503282D01*
X166719Y503305D01*
X166848Y503324D01*
X166977Y503339D01*
X167107Y503350D01*
X167237Y503357D01*
X167367Y503360D01*
X167498Y503359D01*
X167628Y503354D01*
X167758Y503345D01*
X167887Y503332D01*
X168017Y503315D01*
X168145Y503294D01*
X168273Y503269D01*
X168400Y503241D01*
X168526Y503208D01*
X168651Y503172D01*
X168775Y503131D01*
X168898Y503087D01*
X169019Y503040D01*
X169139Y502988D01*
X169257Y502933D01*
X169373Y502874D01*
X169487Y502812D01*
X169600Y502746D01*
X169710Y502677D01*
X169818Y502605D01*
X169924Y502529D01*
X170028Y502450D01*
X170129Y502368D01*
X170228Y502283D01*
X170324Y502195D01*
X170417Y502104D01*
X170507Y502010D01*
X170594Y501913D01*
X170679Y501814D01*
X170760Y501712D01*
X170838Y501608D01*
X170913Y501502D01*
X170985Y501393D01*
X171053Y501282D01*
X171118Y501169D01*
X171179Y501054D01*
X171237Y500937D01*
X171291Y500819D01*
X171342Y500699D01*
X171389Y500577D01*
X171432Y500454D01*
X171471Y500330D01*
X171507Y500205D01*
X171538Y500078D01*
X171566Y499951D01*
X171590Y499823D01*
X171610Y499694D01*
X171626Y499565D01*
X171638Y499435D01*
X171646Y499305D01*
X171650Y499175D01*
X171650Y499045D01*
X171646Y498915D01*
X171638Y498785D01*
X171626Y498655D01*
X171610Y498526D01*
X171590Y498397D01*
X171566Y498269D01*
X171538Y498142D01*
X171507Y498015D01*
X171471Y497890D01*
X171432Y497766D01*
X171389Y497643D01*
X171342Y497521D01*
X171291Y497401D01*
X171237Y497283D01*
X171179Y497166D01*
X171118Y497051D01*
X171053Y496938D01*
X170985Y496827D01*
X170913Y496718D01*
X170838Y496612D01*
X170760Y496508D01*
X170679Y496406D01*
X170594Y496307D01*
X170507Y496210D01*
X170417Y496116D01*
X170324Y496025D01*
X170228Y495937D01*
X170129Y495852D01*
X170028Y495770D01*
X169924Y495691D01*
X169818Y495615D01*
X169710Y495543D01*
X169600Y495474D01*
X169487Y495408D01*
X169373Y495346D01*
X169257Y495287D01*
X169139Y495232D01*
X169019Y495180D01*
X168898Y495133D01*
X168775Y495089D01*
X168651Y495048D01*
X168526Y495012D01*
X168400Y494979D01*
X168273Y494951D01*
X168145Y494926D01*
X168017Y494905D01*
X167887Y494888D01*
X167758Y494875D01*
X167628Y494866D01*
X167498Y494861D01*
X167367Y494860D01*
X167237Y494863D01*
X167107Y494870D01*
X166977Y494881D01*
X166848Y494896D01*
X166719Y494915D01*
X166591Y494938D01*
X166463Y494964D01*
X166337Y494995D01*
X166211Y495030D01*
X166087Y495068D01*
X165963Y495110D01*
X165842Y495156D01*
X165721Y495206D01*
X165602Y495259D01*
X165485Y495316D01*
X165370Y495376D01*
X165256Y495440D01*
X165145Y495508D01*
X165035Y495579D01*
X164928Y495653D01*
X164824Y495730D01*
X164721Y495811D01*
X164621Y495894D01*
X164524Y495981D01*
X164430Y496070D01*
X164338Y496163D01*
X164249Y496258D01*
X164163Y496356D01*
X164080Y496457D01*
X164000Y496560D01*
X163924Y496665D01*
X163851Y496773D01*
X163781Y496882D01*
X163714Y496994D01*
X163651Y497108D01*
X163591Y497224D01*
X163535Y497342D01*
X163483Y497461D01*
X163434Y497582D01*
X163389Y497704D01*
X163348Y497828D01*
X163311Y497952D01*
X163277Y498078D01*
X163247Y498205D01*
X163222Y498333D01*
X163200Y498461D01*
X163182Y498590D01*
X163168Y498720D01*
X163158Y498850D01*
X163152Y498980D01*
X163150Y499110D01*
X163150Y419100D02*
X163152Y419230D01*
X163158Y419360D01*
X163168Y419490D01*
X163182Y419620D01*
X163200Y419749D01*
X163222Y419877D01*
X163247Y420005D01*
X163277Y420132D01*
X163311Y420258D01*
X163348Y420382D01*
X163389Y420506D01*
X163434Y420628D01*
X163483Y420749D01*
X163535Y420868D01*
X163591Y420986D01*
X163651Y421102D01*
X163714Y421216D01*
X163781Y421328D01*
X163851Y421437D01*
X163924Y421545D01*
X164000Y421650D01*
X164080Y421753D01*
X164163Y421854D01*
X164249Y421952D01*
X164338Y422047D01*
X164430Y422140D01*
X164524Y422229D01*
X164621Y422316D01*
X164721Y422399D01*
X164824Y422480D01*
X164928Y422557D01*
X165035Y422631D01*
X165145Y422702D01*
X165256Y422770D01*
X165370Y422834D01*
X165485Y422894D01*
X165602Y422951D01*
X165721Y423004D01*
X165842Y423054D01*
X165963Y423100D01*
X166087Y423142D01*
X166211Y423180D01*
X166337Y423215D01*
X166463Y423246D01*
X166591Y423272D01*
X166719Y423295D01*
X166848Y423314D01*
X166977Y423329D01*
X167107Y423340D01*
X167237Y423347D01*
X167367Y423350D01*
X167498Y423349D01*
X167628Y423344D01*
X167758Y423335D01*
X167887Y423322D01*
X168017Y423305D01*
X168145Y423284D01*
X168273Y423259D01*
X168400Y423231D01*
X168526Y423198D01*
X168651Y423162D01*
X168775Y423121D01*
X168898Y423077D01*
X169019Y423030D01*
X169139Y422978D01*
X169257Y422923D01*
X169373Y422864D01*
X169487Y422802D01*
X169600Y422736D01*
X169710Y422667D01*
X169818Y422595D01*
X169924Y422519D01*
X170028Y422440D01*
X170129Y422358D01*
X170228Y422273D01*
X170324Y422185D01*
X170417Y422094D01*
X170507Y422000D01*
X170594Y421903D01*
X170679Y421804D01*
X170760Y421702D01*
X170838Y421598D01*
X170913Y421492D01*
X170985Y421383D01*
X171053Y421272D01*
X171118Y421159D01*
X171179Y421044D01*
X171237Y420927D01*
X171291Y420809D01*
X171342Y420689D01*
X171389Y420567D01*
X171432Y420444D01*
X171471Y420320D01*
X171507Y420195D01*
X171538Y420068D01*
X171566Y419941D01*
X171590Y419813D01*
X171610Y419684D01*
X171626Y419555D01*
X171638Y419425D01*
X171646Y419295D01*
X171650Y419165D01*
X171650Y419035D01*
X171646Y418905D01*
X171638Y418775D01*
X171626Y418645D01*
X171610Y418516D01*
X171590Y418387D01*
X171566Y418259D01*
X171538Y418132D01*
X171507Y418005D01*
X171471Y417880D01*
X171432Y417756D01*
X171389Y417633D01*
X171342Y417511D01*
X171291Y417391D01*
X171237Y417273D01*
X171179Y417156D01*
X171118Y417041D01*
X171053Y416928D01*
X170985Y416817D01*
X170913Y416708D01*
X170838Y416602D01*
X170760Y416498D01*
X170679Y416396D01*
X170594Y416297D01*
X170507Y416200D01*
X170417Y416106D01*
X170324Y416015D01*
X170228Y415927D01*
X170129Y415842D01*
X170028Y415760D01*
X169924Y415681D01*
X169818Y415605D01*
X169710Y415533D01*
X169600Y415464D01*
X169487Y415398D01*
X169373Y415336D01*
X169257Y415277D01*
X169139Y415222D01*
X169019Y415170D01*
X168898Y415123D01*
X168775Y415079D01*
X168651Y415038D01*
X168526Y415002D01*
X168400Y414969D01*
X168273Y414941D01*
X168145Y414916D01*
X168017Y414895D01*
X167887Y414878D01*
X167758Y414865D01*
X167628Y414856D01*
X167498Y414851D01*
X167367Y414850D01*
X167237Y414853D01*
X167107Y414860D01*
X166977Y414871D01*
X166848Y414886D01*
X166719Y414905D01*
X166591Y414928D01*
X166463Y414954D01*
X166337Y414985D01*
X166211Y415020D01*
X166087Y415058D01*
X165963Y415100D01*
X165842Y415146D01*
X165721Y415196D01*
X165602Y415249D01*
X165485Y415306D01*
X165370Y415366D01*
X165256Y415430D01*
X165145Y415498D01*
X165035Y415569D01*
X164928Y415643D01*
X164824Y415720D01*
X164721Y415801D01*
X164621Y415884D01*
X164524Y415971D01*
X164430Y416060D01*
X164338Y416153D01*
X164249Y416248D01*
X164163Y416346D01*
X164080Y416447D01*
X164000Y416550D01*
X163924Y416655D01*
X163851Y416763D01*
X163781Y416872D01*
X163714Y416984D01*
X163651Y417098D01*
X163591Y417214D01*
X163535Y417332D01*
X163483Y417451D01*
X163434Y417572D01*
X163389Y417694D01*
X163348Y417818D01*
X163311Y417942D01*
X163277Y418068D01*
X163247Y418195D01*
X163222Y418323D01*
X163200Y418451D01*
X163182Y418580D01*
X163168Y418710D01*
X163158Y418840D01*
X163152Y418970D01*
X163150Y419100D01*
X133150Y419100D02*
X133152Y419230D01*
X133158Y419360D01*
X133168Y419490D01*
X133182Y419620D01*
X133200Y419749D01*
X133222Y419877D01*
X133247Y420005D01*
X133277Y420132D01*
X133311Y420258D01*
X133348Y420382D01*
X133389Y420506D01*
X133434Y420628D01*
X133483Y420749D01*
X133535Y420868D01*
X133591Y420986D01*
X133651Y421102D01*
X133714Y421216D01*
X133781Y421328D01*
X133851Y421437D01*
X133924Y421545D01*
X134000Y421650D01*
X134080Y421753D01*
X134163Y421854D01*
X134249Y421952D01*
X134338Y422047D01*
X134430Y422140D01*
X134524Y422229D01*
X134621Y422316D01*
X134721Y422399D01*
X134824Y422480D01*
X134928Y422557D01*
X135035Y422631D01*
X135145Y422702D01*
X135256Y422770D01*
X135370Y422834D01*
X135485Y422894D01*
X135602Y422951D01*
X135721Y423004D01*
X135842Y423054D01*
X135963Y423100D01*
X136087Y423142D01*
X136211Y423180D01*
X136337Y423215D01*
X136463Y423246D01*
X136591Y423272D01*
X136719Y423295D01*
X136848Y423314D01*
X136977Y423329D01*
X137107Y423340D01*
X137237Y423347D01*
X137367Y423350D01*
X137498Y423349D01*
X137628Y423344D01*
X137758Y423335D01*
X137887Y423322D01*
X138017Y423305D01*
X138145Y423284D01*
X138273Y423259D01*
X138400Y423231D01*
X138526Y423198D01*
X138651Y423162D01*
X138775Y423121D01*
X138898Y423077D01*
X139019Y423030D01*
X139139Y422978D01*
X139257Y422923D01*
X139373Y422864D01*
X139487Y422802D01*
X139600Y422736D01*
X139710Y422667D01*
X139818Y422595D01*
X139924Y422519D01*
X140028Y422440D01*
X140129Y422358D01*
X140228Y422273D01*
X140324Y422185D01*
X140417Y422094D01*
X140507Y422000D01*
X140594Y421903D01*
X140679Y421804D01*
X140760Y421702D01*
X140838Y421598D01*
X140913Y421492D01*
X140985Y421383D01*
X141053Y421272D01*
X141118Y421159D01*
X141179Y421044D01*
X141237Y420927D01*
X141291Y420809D01*
X141342Y420689D01*
X141389Y420567D01*
X141432Y420444D01*
X141471Y420320D01*
X141507Y420195D01*
X141538Y420068D01*
X141566Y419941D01*
X141590Y419813D01*
X141610Y419684D01*
X141626Y419555D01*
X141638Y419425D01*
X141646Y419295D01*
X141650Y419165D01*
X141650Y419035D01*
X141646Y418905D01*
X141638Y418775D01*
X141626Y418645D01*
X141610Y418516D01*
X141590Y418387D01*
X141566Y418259D01*
X141538Y418132D01*
X141507Y418005D01*
X141471Y417880D01*
X141432Y417756D01*
X141389Y417633D01*
X141342Y417511D01*
X141291Y417391D01*
X141237Y417273D01*
X141179Y417156D01*
X141118Y417041D01*
X141053Y416928D01*
X140985Y416817D01*
X140913Y416708D01*
X140838Y416602D01*
X140760Y416498D01*
X140679Y416396D01*
X140594Y416297D01*
X140507Y416200D01*
X140417Y416106D01*
X140324Y416015D01*
X140228Y415927D01*
X140129Y415842D01*
X140028Y415760D01*
X139924Y415681D01*
X139818Y415605D01*
X139710Y415533D01*
X139600Y415464D01*
X139487Y415398D01*
X139373Y415336D01*
X139257Y415277D01*
X139139Y415222D01*
X139019Y415170D01*
X138898Y415123D01*
X138775Y415079D01*
X138651Y415038D01*
X138526Y415002D01*
X138400Y414969D01*
X138273Y414941D01*
X138145Y414916D01*
X138017Y414895D01*
X137887Y414878D01*
X137758Y414865D01*
X137628Y414856D01*
X137498Y414851D01*
X137367Y414850D01*
X137237Y414853D01*
X137107Y414860D01*
X136977Y414871D01*
X136848Y414886D01*
X136719Y414905D01*
X136591Y414928D01*
X136463Y414954D01*
X136337Y414985D01*
X136211Y415020D01*
X136087Y415058D01*
X135963Y415100D01*
X135842Y415146D01*
X135721Y415196D01*
X135602Y415249D01*
X135485Y415306D01*
X135370Y415366D01*
X135256Y415430D01*
X135145Y415498D01*
X135035Y415569D01*
X134928Y415643D01*
X134824Y415720D01*
X134721Y415801D01*
X134621Y415884D01*
X134524Y415971D01*
X134430Y416060D01*
X134338Y416153D01*
X134249Y416248D01*
X134163Y416346D01*
X134080Y416447D01*
X134000Y416550D01*
X133924Y416655D01*
X133851Y416763D01*
X133781Y416872D01*
X133714Y416984D01*
X133651Y417098D01*
X133591Y417214D01*
X133535Y417332D01*
X133483Y417451D01*
X133434Y417572D01*
X133389Y417694D01*
X133348Y417818D01*
X133311Y417942D01*
X133277Y418068D01*
X133247Y418195D01*
X133222Y418323D01*
X133200Y418451D01*
X133182Y418580D01*
X133168Y418710D01*
X133158Y418840D01*
X133152Y418970D01*
X133150Y419100D01*
D13*
X0Y0D02*
X25400Y-25400D01*
X508000Y-25400D01*
X533400Y0D01*
X533400Y546100D01*
X508000Y546100D01*
X482600Y571500D01*
X152400Y571500D01*
X127000Y546100D01*
X12700Y546100D01*
X0Y533400D01*
X0Y0D01*
X379980Y522663D02*
X380036Y523085D01*
X380146Y523497D01*
X380309Y523891D01*
X380522Y524259D01*
X380781Y524597D01*
X381083Y524899D01*
X381421Y525158D01*
X381789Y525371D01*
X382183Y525534D01*
X382595Y525644D01*
X383017Y525700D01*
X383443Y525700D01*
X383865Y525644D01*
X384277Y525534D01*
X384671Y525371D01*
X385039Y525158D01*
X385377Y524899D01*
X385679Y524597D01*
X385938Y524259D01*
X386151Y523891D01*
X386314Y523497D01*
X386424Y523085D01*
X386480Y522663D01*
X386480Y522237D01*
X386424Y521815D01*
X386314Y521403D01*
X386151Y521009D01*
X385938Y520641D01*
X385679Y520303D01*
X385377Y520001D01*
X385039Y519742D01*
X384671Y519529D01*
X384277Y519366D01*
X383865Y519256D01*
X383443Y519200D01*
X383017Y519200D01*
X382595Y519256D01*
X382183Y519366D01*
X381789Y519529D01*
X381421Y519742D01*
X381083Y520001D01*
X380781Y520303D01*
X380522Y520641D01*
X380309Y521009D01*
X380146Y521403D01*
X380036Y521815D01*
X379980Y522237D01*
X379980Y522663D01*
X322180Y522663D02*
X322236Y523085D01*
X322346Y523497D01*
X322509Y523891D01*
X322722Y524259D01*
X322981Y524597D01*
X323283Y524899D01*
X323621Y525158D01*
X323989Y525371D01*
X324383Y525534D01*
X324795Y525644D01*
X325217Y525700D01*
X325643Y525700D01*
X326065Y525644D01*
X326477Y525534D01*
X326871Y525371D01*
X327239Y525158D01*
X327577Y524899D01*
X327879Y524597D01*
X328138Y524259D01*
X328351Y523891D01*
X328514Y523497D01*
X328624Y523085D01*
X328680Y522663D01*
X328680Y522237D01*
X328624Y521815D01*
X328514Y521403D01*
X328351Y521009D01*
X328138Y520641D01*
X327879Y520303D01*
X327577Y520001D01*
X327239Y519742D01*
X326871Y519529D01*
X326477Y519366D01*
X326065Y519256D01*
X325643Y519200D01*
X325217Y519200D01*
X324795Y519256D01*
X324383Y519366D01*
X323989Y519529D01*
X323621Y519742D01*
X323283Y520001D01*
X322981Y520303D01*
X322722Y520641D01*
X322509Y521009D01*
X322346Y521403D01*
X322236Y521815D01*
X322180Y522237D01*
X322180Y522663D01*
X133150Y499389D02*
X133223Y499941D01*
X133367Y500479D01*
X133580Y500994D01*
X133859Y501476D01*
X134198Y501918D01*
X134592Y502312D01*
X135034Y502651D01*
X135516Y502930D01*
X136031Y503143D01*
X136569Y503287D01*
X137121Y503360D01*
X137679Y503360D01*
X138231Y503287D01*
X138769Y503143D01*
X139284Y502930D01*
X139766Y502651D01*
X140208Y502312D01*
X140602Y501918D01*
X140941Y501476D01*
X141220Y500994D01*
X141433Y500479D01*
X141577Y499941D01*
X141650Y499389D01*
X141650Y498831D01*
X141577Y498279D01*
X141433Y497741D01*
X141220Y497226D01*
X140941Y496744D01*
X140602Y496302D01*
X140208Y495908D01*
X139766Y495569D01*
X139284Y495290D01*
X138769Y495077D01*
X138231Y494933D01*
X137679Y494860D01*
X137121Y494860D01*
X136569Y494933D01*
X136031Y495077D01*
X135516Y495290D01*
X135034Y495569D01*
X134592Y495908D01*
X134198Y496302D01*
X133859Y496744D01*
X133580Y497226D01*
X133367Y497741D01*
X133223Y498279D01*
X133150Y498831D01*
X133150Y499389D01*
X163150Y499389D02*
X163223Y499941D01*
X163367Y500479D01*
X163580Y500994D01*
X163859Y501476D01*
X164198Y501918D01*
X164592Y502312D01*
X165034Y502651D01*
X165516Y502930D01*
X166031Y503143D01*
X166569Y503287D01*
X167121Y503360D01*
X167679Y503360D01*
X168231Y503287D01*
X168769Y503143D01*
X169284Y502930D01*
X169766Y502651D01*
X170208Y502312D01*
X170602Y501918D01*
X170941Y501476D01*
X171220Y500994D01*
X171433Y500479D01*
X171577Y499941D01*
X171650Y499389D01*
X171650Y498831D01*
X171577Y498279D01*
X171433Y497741D01*
X171220Y497226D01*
X170941Y496744D01*
X170602Y496302D01*
X170208Y495908D01*
X169766Y495569D01*
X169284Y495290D01*
X168769Y495077D01*
X168231Y494933D01*
X167679Y494860D01*
X167121Y494860D01*
X166569Y494933D01*
X166031Y495077D01*
X165516Y495290D01*
X165034Y495569D01*
X164592Y495908D01*
X164198Y496302D01*
X163859Y496744D01*
X163580Y497226D01*
X163367Y497741D01*
X163223Y498279D01*
X163150Y498831D01*
X163150Y499389D01*
X171650Y418821D02*
X171577Y418269D01*
X171433Y417731D01*
X171220Y417216D01*
X170941Y416734D01*
X170602Y416292D01*
X170208Y415898D01*
X169766Y415559D01*
X169284Y415280D01*
X168769Y415067D01*
X168231Y414923D01*
X167679Y414850D01*
X167121Y414850D01*
X166569Y414923D01*
X166031Y415067D01*
X165516Y415280D01*
X165034Y415559D01*
X164592Y415898D01*
X164198Y416292D01*
X163859Y416734D01*
X163580Y417216D01*
X163367Y417731D01*
X163223Y418269D01*
X163150Y418821D01*
X163150Y419379D01*
X163223Y419931D01*
X163367Y420469D01*
X163580Y420984D01*
X163859Y421466D01*
X164198Y421908D01*
X164592Y422302D01*
X165034Y422641D01*
X165516Y422920D01*
X166031Y423133D01*
X166569Y423277D01*
X167121Y423350D01*
X167679Y423350D01*
X168231Y423277D01*
X168769Y423133D01*
X169284Y422920D01*
X169766Y422641D01*
X170208Y422302D01*
X170602Y421908D01*
X170941Y421466D01*
X171220Y420984D01*
X171433Y420469D01*
X171577Y419931D01*
X171650Y419379D01*
X171650Y418821D01*
X141650Y418821D02*
X141577Y418269D01*
X141433Y417731D01*
X141220Y417216D01*
X140941Y416734D01*
X140602Y416292D01*
X140208Y415898D01*
X139766Y415559D01*
X139284Y415280D01*
X138769Y415067D01*
X138231Y414923D01*
X137679Y414850D01*
X137121Y414850D01*
X136569Y414923D01*
X136031Y415067D01*
X135516Y415280D01*
X135034Y415559D01*
X134592Y415898D01*
X134198Y416292D01*
X133859Y416734D01*
X133580Y417216D01*
X133367Y417731D01*
X133223Y418269D01*
X133150Y418821D01*
X133150Y419379D01*
X133223Y419931D01*
X133367Y420469D01*
X133580Y420984D01*
X133859Y421466D01*
X134198Y421908D01*
X134592Y422302D01*
X135034Y422641D01*
X135516Y422920D01*
X136031Y423133D01*
X136569Y423277D01*
X137121Y423350D01*
X137679Y423350D01*
X138231Y423277D01*
X138769Y423133D01*
X139284Y422920D01*
X139766Y422641D01*
X140208Y422302D01*
X140602Y421908D01*
X140941Y421466D01*
X141220Y420984D01*
X141433Y420469D01*
X141577Y419931D01*
X141650Y419379D01*
X141650Y418821D01*
M02*
