G04 EAGLE Gerber RS-274X export*
G75*
%MOMM*%
%FSLAX34Y34*%
%LPD*%
%INSoldermask Bottom*%
%IPPOS*%
%AMOC8*
5,1,8,0,0,1.08239X$1,22.5*%
G01*
%ADD10C,0.762000*%
%ADD11C,0.777000*%
%ADD12C,2.006600*%
%ADD13C,0.977000*%


D10*
X25400Y0D03*
X469900Y558800D03*
D11*
X383230Y522450D03*
X325430Y522450D03*
D12*
X76200Y152400D03*
X101600Y152400D03*
X127000Y152400D03*
X152400Y152400D03*
X177800Y152400D03*
X203200Y152400D03*
X228600Y152400D03*
X254000Y152400D03*
X279400Y152400D03*
X304800Y152400D03*
X330200Y152400D03*
X355600Y152400D03*
X381000Y152400D03*
X406400Y152400D03*
X431800Y152400D03*
X457200Y152400D03*
D13*
X137400Y499110D03*
X167400Y499110D03*
X167400Y419100D03*
X137400Y419100D03*
D12*
X508000Y215900D03*
X508000Y241300D03*
X508000Y266700D03*
X508000Y292100D03*
X508000Y317500D03*
X508000Y342900D03*
X508000Y393700D03*
X508000Y419100D03*
X508000Y444500D03*
X508000Y469900D03*
X508000Y495300D03*
X508000Y520700D03*
X25400Y520700D03*
X25400Y495300D03*
X25400Y469900D03*
X25400Y444500D03*
X25400Y419100D03*
X25400Y393700D03*
X25400Y368300D03*
X25400Y342900D03*
X25400Y304800D03*
X25400Y279400D03*
X25400Y254000D03*
X25400Y228600D03*
X25400Y203200D03*
X25400Y177800D03*
X25400Y152400D03*
X25400Y127000D03*
X25400Y101600D03*
X25400Y76200D03*
X508000Y190500D03*
X508000Y165100D03*
X76200Y127000D03*
X101600Y127000D03*
X127000Y127000D03*
X152400Y127000D03*
X177800Y127000D03*
X203200Y127000D03*
X228600Y127000D03*
X254000Y127000D03*
X279400Y127000D03*
X304800Y127000D03*
X330200Y127000D03*
X355600Y127000D03*
X381000Y127000D03*
X406400Y127000D03*
X431800Y127000D03*
X457200Y127000D03*
X76200Y101600D03*
X101600Y101600D03*
X127000Y101600D03*
X152400Y101600D03*
X177800Y101600D03*
X203200Y101600D03*
X228600Y101600D03*
X254000Y101600D03*
X279400Y101600D03*
X304800Y101600D03*
X330200Y101600D03*
X355600Y101600D03*
X381000Y101600D03*
X406400Y101600D03*
X431800Y101600D03*
X457200Y101600D03*
X76200Y76200D03*
X101600Y76200D03*
X127000Y76200D03*
X152400Y76200D03*
X177800Y76200D03*
X203200Y76200D03*
X228600Y76200D03*
X254000Y76200D03*
X279400Y76200D03*
X304800Y76200D03*
X330200Y76200D03*
X355600Y76200D03*
X381000Y76200D03*
X406400Y76200D03*
X431800Y76200D03*
X457200Y76200D03*
X76200Y50800D03*
X101600Y50800D03*
X127000Y50800D03*
X152400Y50800D03*
X177800Y50800D03*
X203200Y50800D03*
X228600Y50800D03*
X254000Y50800D03*
X279400Y50800D03*
X304800Y50800D03*
X330200Y50800D03*
X355600Y50800D03*
X381000Y50800D03*
X406400Y50800D03*
X431800Y50800D03*
X457200Y50800D03*
X76200Y25400D03*
X101600Y25400D03*
X127000Y25400D03*
X152400Y25400D03*
X177800Y25400D03*
X203200Y25400D03*
X228600Y25400D03*
X254000Y25400D03*
X279400Y25400D03*
X304800Y25400D03*
X330200Y25400D03*
X355600Y25400D03*
X381000Y25400D03*
X406400Y25400D03*
X431800Y25400D03*
X457200Y25400D03*
X76200Y0D03*
X101600Y0D03*
X127000Y0D03*
X152400Y0D03*
X177800Y0D03*
X203200Y0D03*
X228600Y0D03*
X254000Y0D03*
X279400Y0D03*
X304800Y0D03*
X330200Y0D03*
X355600Y0D03*
X381000Y0D03*
X406400Y0D03*
X431800Y0D03*
X457200Y0D03*
M02*
