M48
;GenerationSoftware,Autodesk,EAGLE,9.6.2*%
;CreationDate,2023-01-25T20:16:17Z*%
FMAT,2
ICI,OFF
METRIC,TZ,000.000
T6C0.350
T5C0.381
T4C0.400
T3C0.650
T2C0.850
T1C1.016
%
G90
M71
T1
X61468Y221996
X64008Y221996
X66548Y221996
X69088Y221996
X71628Y221996
X74168Y221996
X76708Y221996
X79248Y221996
X81788Y221996
X84328Y221996
X86868Y221996
X89408Y221996
X91948Y221996
X94488Y221996
X97028Y221996
X99568Y221996
X104648Y228346
X104648Y230886
X104648Y233426
X104648Y235966
X104648Y238506
X104648Y241046
X104648Y246126
X104648Y248666
X104648Y251206
X104648Y253746
X104648Y256286
X104648Y258826
X56388Y258826
X56388Y256286
X56388Y253746
X56388Y251206
X56388Y248666
X56388Y246126
X56388Y243586
X56388Y241046
X56388Y237236
X56388Y234696
X56388Y232156
X56388Y229616
X56388Y227076
X56388Y224536
X56388Y221996
X56388Y219456
X56388Y216916
X56388Y214376
X104648Y225806
X7620Y151384
X10160Y151384
X12700Y151384
X15240Y151384
X17780Y151384
X20320Y151384
X22860Y151384
X25400Y151384
X27940Y151384
X30480Y151384
X33020Y151384
X35560Y151384
X38100Y151384
X40640Y151384
X43180Y151384
X45720Y151384
X7620Y148844
X10160Y148844
X12700Y148844
X15240Y148844
X17780Y148844
X20320Y148844
X22860Y148844
X25400Y148844
X27940Y148844
X30480Y148844
X33020Y148844
X35560Y148844
X38100Y148844
X40640Y148844
X43180Y148844
X45720Y148844
X7620Y146304
X10160Y146304
X12700Y146304
X15240Y146304
X17780Y146304
X20320Y146304
X22860Y146304
X25400Y146304
X27940Y146304
X30480Y146304
X33020Y146304
X35560Y146304
X38100Y146304
X40640Y146304
X43180Y146304
X45720Y146304
X7620Y143764
X10160Y143764
X12700Y143764
X15240Y143764
X17780Y143764
X20320Y143764
X22860Y143764
X25400Y143764
X27940Y143764
X30480Y143764
X33020Y143764
X35560Y143764
X38100Y143764
X40640Y143764
X43180Y143764
X45720Y143764
X7620Y141224
X10160Y141224
X12700Y141224
X15240Y141224
X17780Y141224
X20320Y141224
X22860Y141224
X25400Y141224
X27940Y141224
X30480Y141224
X33020Y141224
X35560Y141224
X38100Y141224
X40640Y141224
X43180Y141224
X45720Y141224
X7620Y138684
X10160Y138684
X12700Y138684
X15240Y138684
X17780Y138684
X104648Y223266
X22860Y138684
X25400Y138684
X27940Y138684
X30480Y138684
X33020Y138684
X35560Y138684
X38100Y138684
X40640Y138684
X43180Y138684
X45720Y138684
X61468Y151384
X64008Y151384
X66548Y151384
X69088Y151384
X7620Y15240
X10160Y15240
X12700Y15240
X15240Y15240
X17780Y15240
X20320Y15240
X22860Y15240
X25400Y15240
X27940Y15240
X30480Y15240
X33020Y15240
X35560Y15240
X38100Y15240
X40640Y15240
X43180Y15240
X45720Y15240
X7620Y12700
X10160Y12700
X12700Y12700
X15240Y12700
X17780Y12700
X20320Y12700
X22860Y12700
X25400Y12700
X27940Y12700
X30480Y12700
X33020Y12700
X35560Y12700
X38100Y12700
X40640Y12700
X43180Y12700
X45720Y12700
X7620Y10160
X10160Y10160
X12700Y10160
X15240Y10160
X17780Y10160
X20320Y10160
X22860Y10160
X25400Y10160
X27940Y10160
X30480Y10160
X33020Y10160
X35560Y10160
X38100Y10160
X40640Y10160
X43180Y10160
X45720Y10160
X7620Y7620
X10160Y7620
X12700Y7620
X15240Y7620
X17780Y7620
X20320Y7620
X22860Y7620
X25400Y7620
X27940Y7620
X30480Y7620
X33020Y7620
X35560Y7620
X38100Y7620
X40640Y7620
X43180Y7620
X45720Y7620
X7620Y5080
X10160Y5080
X12700Y5080
X15240Y5080
X17780Y5080
X20320Y5080
X22860Y5080
X25400Y5080
X27940Y5080
X30480Y5080
X33020Y5080
X35560Y5080
X38100Y5080
X40640Y5080
X43180Y5080
X45720Y5080
X7620Y2540
X10160Y2540
X12700Y2540
X15240Y2540
X17780Y2540
X20320Y2540
X22860Y2540
X25400Y2540
X27940Y2540
X30480Y2540
X33020Y2540
X35560Y2540
X38100Y2540
X40640Y2540
X43180Y2540
X45720Y2540
X71628Y151384
X74168Y151384
X76708Y151384
X79248Y151384
X81788Y151384
X84328Y151384
X86868Y151384
X89408Y151384
X91948Y151384
X94488Y151384
X97028Y151384
X99568Y151384
X61468Y148844
X64008Y148844
X66548Y148844
X69088Y148844
X71628Y148844
X74168Y148844
X76708Y148844
X79248Y148844
X81788Y148844
X84328Y148844
X86868Y148844
X89408Y148844
X91948Y148844
X94488Y148844
X97028Y148844
X99568Y148844
X61468Y146304
X64008Y146304
X66548Y146304
X69088Y146304
X71628Y146304
X74168Y146304
X76708Y146304
X79248Y146304
X81788Y146304
X84328Y146304
X86868Y146304
X89408Y146304
X91948Y146304
X94488Y146304
X97028Y146304
X99568Y146304
X61468Y143764
X64008Y143764
X66548Y143764
X69088Y143764
X71628Y143764
X74168Y143764
X76708Y143764
X79248Y143764
X81788Y143764
X84328Y143764
X86868Y143764
X89408Y143764
X91948Y143764
X94488Y143764
X97028Y143764
X99568Y143764
X61468Y141224
X64008Y141224
X66548Y141224
X69088Y141224
X71628Y141224
X74168Y141224
X76708Y141224
X79248Y141224
X81788Y141224
X84328Y141224
X86868Y141224
X89408Y141224
X91948Y141224
X94488Y141224
X97028Y141224
X99568Y141224
X61468Y138684
X64008Y138684
X20320Y138684
X66548Y138684
X69088Y138684
X71628Y138684
X74168Y138684
X76708Y138684
X79248Y138684
X81788Y138684
X84328Y138684
X86868Y138684
X89408Y138684
X91948Y138684
X94488Y138684
X97028Y138684
X99568Y138684
X7620Y219456
X10160Y219456
X12700Y219456
X15240Y219456
X17780Y219456
X20320Y219456
X22860Y219456
X25400Y219456
X27940Y219456
X30480Y219456
X33020Y219456
X35560Y219456
X38100Y219456
X40640Y219456
X43180Y219456
X45720Y219456
X7620Y216916
X10160Y216916
X12700Y216916
X15240Y216916
X17780Y216916
X20320Y216916
X22860Y216916
X25400Y216916
X27940Y216916
X30480Y216916
X33020Y216916
X35560Y216916
X38100Y216916
X40640Y216916
X43180Y216916
X45720Y216916
X7620Y214376
X10160Y214376
X12700Y214376
X15240Y214376
X17780Y214376
X20320Y214376
X22860Y214376
X25400Y214376
X27940Y214376
X30480Y214376
X33020Y214376
X35560Y214376
X38100Y214376
X40640Y214376
X43180Y214376
X45720Y214376
X7620Y211836
X10160Y211836
X12700Y211836
X15240Y211836
X17780Y211836
X20320Y211836
X22860Y211836
X25400Y211836
X27940Y211836
X30480Y211836
X33020Y211836
X35560Y211836
X38100Y211836
X40640Y211836
X43180Y211836
X45720Y211836
X7620Y209296
X10160Y209296
X12700Y209296
X15240Y209296
X17780Y209296
X20320Y209296
X22860Y209296
X25400Y209296
X27940Y209296
X30480Y209296
X61468Y15240
X64008Y15240
X66548Y15240
X69088Y15240
X71628Y15240
X74168Y15240
X76708Y15240
X79248Y15240
X81788Y15240
X84328Y15240
X86868Y15240
X89408Y15240
X91948Y15240
X94488Y15240
X97028Y15240
X99568Y15240
X61468Y12700
X64008Y12700
X66548Y12700
X69088Y12700
X71628Y12700
X74168Y12700
X76708Y12700
X79248Y12700
X81788Y12700
X84328Y12700
X86868Y12700
X89408Y12700
X91948Y12700
X94488Y12700
X97028Y12700
X99568Y12700
X61468Y10160
X64008Y10160
X66548Y10160
X69088Y10160
X71628Y10160
X74168Y10160
X76708Y10160
X79248Y10160
X81788Y10160
X84328Y10160
X86868Y10160
X89408Y10160
X91948Y10160
X94488Y10160
X97028Y10160
X99568Y10160
X61468Y7620
X64008Y7620
X66548Y7620
X69088Y7620
X71628Y7620
X74168Y7620
X76708Y7620
X79248Y7620
X81788Y7620
X84328Y7620
X86868Y7620
X89408Y7620
X91948Y7620
X94488Y7620
X97028Y7620
X99568Y7620
X61468Y5080
X64008Y5080
X66548Y5080
X69088Y5080
X71628Y5080
X74168Y5080
X76708Y5080
X79248Y5080
X81788Y5080
X84328Y5080
X86868Y5080
X89408Y5080
X91948Y5080
X94488Y5080
X97028Y5080
X99568Y5080
X61468Y2540
X64008Y2540
X66548Y2540
X69088Y2540
X71628Y2540
X74168Y2540
X76708Y2540
X79248Y2540
X81788Y2540
X84328Y2540
X86868Y2540
X89408Y2540
X91948Y2540
X94488Y2540
X97028Y2540
X99568Y2540
X33020Y209296
X35560Y209296
X38100Y209296
X40640Y209296
X43180Y209296
X45720Y209296
X7620Y206756
X10160Y206756
X12700Y206756
X15240Y206756
X17780Y206756
X20320Y206756
X22860Y206756
X25400Y206756
X27940Y206756
X30480Y206756
X33020Y206756
X35560Y206756
X38100Y206756
X40640Y206756
X43180Y206756
X45720Y206756
X56388Y27940
X61468Y219456
X64008Y219456
X66548Y219456
X69088Y219456
X71628Y219456
X74168Y219456
X76708Y219456
X79248Y219456
X81788Y219456
X84328Y219456
X86868Y219456
X89408Y219456
X91948Y219456
X94488Y219456
X97028Y219456
X99568Y219456
X61468Y216916
X64008Y216916
X66548Y216916
X69088Y216916
X71628Y216916
X74168Y216916
X76708Y216916
X79248Y216916
X81788Y216916
X84328Y216916
X86868Y216916
X89408Y216916
X91948Y216916
X94488Y216916
X97028Y216916
X99568Y216916
X61468Y214376
X64008Y214376
X66548Y214376
X69088Y214376
X71628Y214376
X74168Y214376
X76708Y214376
X79248Y214376
X81788Y214376
X84328Y214376
X86868Y214376
X89408Y214376
X91948Y214376
X94488Y214376
X97028Y214376
X99568Y214376
X61468Y211836
X64008Y211836
X66548Y211836
X69088Y211836
X71628Y211836
X74168Y211836
X76708Y211836
X79248Y211836
X81788Y211836
X84328Y211836
X86868Y211836
X89408Y211836
X91948Y211836
X94488Y211836
X97028Y211836
X99568Y211836
X61468Y209296
X64008Y209296
X66548Y209296
X69088Y209296
X71628Y209296
X74168Y209296
X76708Y209296
X79248Y209296
X81788Y209296
X84328Y209296
X86868Y209296
X89408Y209296
X91948Y209296
X94488Y209296
X97028Y209296
X99568Y209296
X61468Y206756
X64008Y206756
X66548Y206756
X69088Y206756
X71628Y206756
X74168Y206756
X76708Y206756
X79248Y206756
X81788Y206756
X84328Y206756
X86868Y206756
X89408Y206756
X91948Y206756
X94488Y206756
X97028Y206756
X99568Y206756
X7620Y17780
X10160Y17780
X12700Y17780
X15240Y17780
X17780Y17780
X20320Y17780
X22860Y17780
X25400Y17780
X27940Y17780
X30480Y17780
X33020Y17780
X35560Y17780
X38100Y17780
X40640Y17780
X43180Y17780
X45720Y17780
X50800Y24130
X50800Y26670
X50800Y29210
X50800Y31750
X50800Y34290
X50800Y36830
X50800Y41910
X50800Y44450
X50800Y46990
X50800Y49530
X50800Y52070
X50800Y54610
X2540Y54610
X2540Y52070
X2540Y49530
X2540Y46990
X2540Y44450
X2540Y41910
X2540Y39370
X2540Y36830
X2540Y33020
X2540Y30480
X2540Y27940
X2540Y25400
X2540Y22860
X2540Y20320
X2540Y17780
X2540Y15240
X2540Y12700
X2540Y10160
X50800Y21590
X50800Y19050
X7620Y83312
X10160Y83312
X12700Y83312
X15240Y83312
X17780Y83312
X20320Y83312
X22860Y83312
X25400Y83312
X27940Y83312
X30480Y83312
X33020Y83312
X35560Y83312
X38100Y83312
X40640Y83312
X43180Y83312
X45720Y83312
X7620Y80772
X10160Y80772
X12700Y80772
X15240Y80772
X17780Y80772
X20320Y80772
X22860Y80772
X25400Y80772
X27940Y80772
X30480Y80772
X33020Y80772
X35560Y80772
X38100Y80772
X40640Y80772
X43180Y80772
X45720Y80772
X7620Y78232
X10160Y78232
X12700Y78232
X15240Y78232
X17780Y78232
X20320Y78232
X22860Y78232
X25400Y78232
X27940Y78232
X30480Y78232
X33020Y78232
X35560Y78232
X38100Y78232
X40640Y78232
X43180Y78232
X45720Y78232
X7620Y75692
X10160Y75692
X12700Y75692
X15240Y75692
X17780Y75692
X20320Y75692
X22860Y75692
X25400Y75692
X27940Y75692
X30480Y75692
X33020Y75692
X35560Y75692
X38100Y75692
X40640Y75692
X43180Y75692
X45720Y75692
X7620Y73152
X10160Y73152
X12700Y73152
X15240Y73152
X17780Y73152
X20320Y73152
X22860Y73152
X25400Y73152
X27940Y73152
X30480Y73152
X33020Y73152
X35560Y73152
X38100Y73152
X40640Y73152
X43180Y73152
X45720Y73152
X7620Y70612
X10160Y70612
X12700Y70612
X15240Y70612
X17780Y70612
X20320Y70612
X22860Y70612
X25400Y70612
X27940Y70612
X30480Y70612
X33020Y70612
X35560Y70612
X38100Y70612
X40640Y70612
X43180Y70612
X45720Y70612
X61468Y17780
X64008Y17780
X66548Y17780
X69088Y17780
X71628Y17780
X74168Y17780
X76708Y17780
X79248Y17780
X81788Y17780
X84328Y17780
X86868Y17780
X89408Y17780
X91948Y17780
X94488Y17780
X97028Y17780
X99568Y17780
X104648Y24130
X104648Y26670
X104648Y29210
X104648Y31750
X104648Y34290
X104648Y36830
X104648Y41910
X104648Y44450
X104648Y46990
X104648Y49530
X104648Y52070
X104648Y54610
X56388Y54610
X56388Y52070
X56388Y49530
X56388Y46990
X56388Y44450
X56388Y41910
X56388Y39370
X56388Y36830
X56388Y33020
X56388Y30480
X56388Y25400
X56388Y22860
X56388Y20320
X56388Y17780
X56388Y15240
X56388Y12700
X56388Y10160
X104648Y21590
X104648Y19050
X7620Y85852
X10160Y85852
X12700Y85852
X15240Y85852
X17780Y85852
X20320Y85852
X22860Y85852
X25400Y85852
X27940Y85852
X30480Y85852
X33020Y85852
X35560Y85852
X38100Y85852
X40640Y85852
X43180Y85852
X45720Y85852
X50800Y92202
X50800Y94742
X50800Y97282
X50800Y99822
X50800Y102362
X50800Y104902
X50800Y109982
X50800Y112522
X50800Y115062
X50800Y117602
X50800Y120142
X50800Y122682
X2540Y122682
X2540Y120142
X2540Y117602
X2540Y115062
X2540Y112522
X2540Y109982
X2540Y107442
X2540Y104902
X2540Y101092
X2540Y98552
X2540Y96012
X2540Y93472
X2540Y90932
X2540Y88392
X2540Y85852
X2540Y83312
X2540Y80772
X2540Y78232
X50800Y89662
X50800Y87122
X61468Y85852
X64008Y85852
X66548Y85852
X69088Y85852
X71628Y85852
X74168Y85852
X76708Y85852
X79248Y85852
X81788Y85852
X84328Y85852
X86868Y85852
X89408Y85852
X91948Y85852
X94488Y85852
X97028Y85852
X99568Y85852
X104648Y92202
X104648Y94742
X104648Y97282
X104648Y99822
X104648Y102362
X104648Y104902
X104648Y109982
X104648Y112522
X104648Y115062
X104648Y117602
X104648Y120142
X104648Y122682
X56388Y122682
X56388Y120142
X56388Y117602
X56388Y115062
X56388Y112522
X56388Y109982
X56388Y107442
X56388Y104902
X56388Y101092
X56388Y98552
X56388Y96012
X56388Y93472
X56388Y90932
X56388Y88392
X56388Y85852
X56388Y83312
X56388Y80772
X56388Y78232
X104648Y89662
X104648Y87122
X7620Y153924
X10160Y153924
X12700Y153924
X15240Y153924
X17780Y153924
X20320Y153924
X22860Y153924
X25400Y153924
X27940Y153924
X30480Y153924
X33020Y153924
X35560Y153924
X38100Y153924
X40640Y153924
X43180Y153924
X45720Y153924
X50800Y160274
X50800Y162814
X50800Y165354
X50800Y167894
X50800Y170434
X50800Y172974
X50800Y178054
X50800Y180594
X61468Y83312
X64008Y83312
X66548Y83312
X69088Y83312
X71628Y83312
X74168Y83312
X76708Y83312
X79248Y83312
X81788Y83312
X84328Y83312
X86868Y83312
X89408Y83312
X91948Y83312
X94488Y83312
X97028Y83312
X99568Y83312
X61468Y80772
X64008Y80772
X66548Y80772
X69088Y80772
X71628Y80772
X74168Y80772
X76708Y80772
X79248Y80772
X81788Y80772
X84328Y80772
X86868Y80772
X89408Y80772
X91948Y80772
X94488Y80772
X97028Y80772
X99568Y80772
X61468Y78232
X64008Y78232
X66548Y78232
X69088Y78232
X71628Y78232
X74168Y78232
X76708Y78232
X79248Y78232
X81788Y78232
X84328Y78232
X86868Y78232
X89408Y78232
X91948Y78232
X94488Y78232
X97028Y78232
X99568Y78232
X61468Y75692
X64008Y75692
X66548Y75692
X69088Y75692
X71628Y75692
X74168Y75692
X76708Y75692
X79248Y75692
X81788Y75692
X84328Y75692
X86868Y75692
X89408Y75692
X91948Y75692
X94488Y75692
X97028Y75692
X99568Y75692
X61468Y73152
X64008Y73152
X66548Y73152
X69088Y73152
X71628Y73152
X74168Y73152
X76708Y73152
X79248Y73152
X81788Y73152
X84328Y73152
X86868Y73152
X89408Y73152
X91948Y73152
X94488Y73152
X97028Y73152
X99568Y73152
X61468Y70612
X64008Y70612
X66548Y70612
X69088Y70612
X71628Y70612
X74168Y70612
X76708Y70612
X79248Y70612
X81788Y70612
X84328Y70612
X86868Y70612
X89408Y70612
X91948Y70612
X94488Y70612
X97028Y70612
X99568Y70612
X50800Y183134
X50800Y185674
X50800Y188214
X50800Y190754
X2540Y190754
X2540Y188214
X2540Y185674
X2540Y183134
X2540Y180594
X2540Y178054
X2540Y175514
X2540Y172974
X2540Y169164
X2540Y166624
X2540Y164084
X2540Y161544
X2540Y159004
X2540Y156464
X2540Y153924
X2540Y151384
X2540Y148844
X2540Y146304
X50800Y157734
X50800Y155194
X61468Y153924
X64008Y153924
X66548Y153924
X69088Y153924
X71628Y153924
X74168Y153924
X76708Y153924
X79248Y153924
X81788Y153924
X84328Y153924
X86868Y153924
X89408Y153924
X91948Y153924
X94488Y153924
X97028Y153924
X99568Y153924
X104648Y160274
X104648Y162814
X104648Y165354
X104648Y167894
X104648Y170434
X104648Y172974
X104648Y178054
X104648Y180594
X104648Y183134
X104648Y185674
X104648Y188214
X104648Y190754
X56388Y190754
X56388Y188214
X56388Y185674
X56388Y183134
X56388Y180594
X56388Y178054
X56388Y175514
X56388Y172974
X56388Y169164
X56388Y166624
X56388Y164084
X56388Y161544
X56388Y159004
X56388Y156464
X56388Y153924
X56388Y151384
X56388Y148844
X56388Y146304
X104648Y157734
X104648Y155194
X7620Y221996
X10160Y221996
X12700Y221996
X15240Y221996
X17780Y221996
X20320Y221996
X22860Y221996
X25400Y221996
X27940Y221996
X30480Y221996
X33020Y221996
X35560Y221996
X38100Y221996
X40640Y221996
X43180Y221996
X45720Y221996
X50800Y228346
X50800Y230886
X50800Y233426
X50800Y235966
X50800Y238506
X50800Y241046
X50800Y246126
X50800Y248666
X50800Y251206
X50800Y253746
X50800Y256286
X50800Y258826
X2540Y258826
X2540Y256286
X2540Y253746
X2540Y251206
X2540Y248666
X2540Y246126
X2540Y243586
X2540Y241046
X2540Y237236
X2540Y234696
X2540Y232156
X2540Y229616
X2540Y227076
X2540Y224536
X2540Y221996
X2540Y219456
X2540Y216916
X2540Y214376
X50800Y225806
X50800Y223266
T2
X13740Y44958
X16740Y52705
X16740Y181102
X16740Y188849
X16740Y44958
X13740Y52705
X13740Y188849
X16740Y256921
X67588Y44958
X70588Y44958
X70588Y52705
X67588Y52705
X16740Y249174
X67588Y181102
X13740Y113030
X16740Y113030
X16740Y120777
X13740Y120777
X70588Y181102
X70588Y188849
X67588Y113030
X70588Y113030
X70588Y120777
X67588Y120777
X67588Y188849
X13740Y249174
X13740Y181102
X13740Y256921
X67588Y249174
X70588Y249174
X70588Y256921
X67588Y256921
T3
X32543Y122857
X92171Y122857
X86391Y122857
X38323Y190929
X32543Y190929
X86391Y190929
X38323Y259001
X32543Y259001
X92171Y190929
X32543Y54785
X92171Y259001
X86391Y259001
X38323Y54785
X92171Y54785
X86391Y54785
X38323Y122857
T4
X39751Y58435
X31115Y58435
X31115Y54255
X39751Y54255
X93599Y58435
X84963Y58435
X84963Y54255
X93599Y54255
X39751Y126507
X31115Y126507
X31115Y122327
X39751Y122327
X93599Y126507
X84963Y126507
X84963Y122327
X93599Y122327
X39751Y194579
X31115Y194579
X31115Y190399
X39751Y190399
X93599Y194579
X84963Y194579
X84963Y190399
X93599Y190399
X39751Y262651
X31115Y262651
X31115Y258471
X39751Y258471
X93599Y262651
X84963Y262651
X84963Y258471
X93599Y258471
T5
X45720Y30480
X20955Y58420
X5080Y50800
X5715Y38100
X10160Y46990
X5080Y48260
X10160Y48514
X21590Y52070
X20955Y48895
X23495Y48006
X21590Y44704
X25781Y38100
X31115Y30480
X31750Y33655
X33020Y24130
X31115Y24130
X29210Y20320
X48260Y19050
X45720Y25400
X41910Y23368
X8255Y29210
X29845Y58420
X29845Y52070
X20955Y55880
X43688Y38100
X6350Y49530
X33274Y28194
X41910Y52070
X6350Y46990
X28956Y39624
X24765Y43561
X5080Y19050
X38100Y46990
X20320Y53340
X26670Y48895
X26162Y31115
X44450Y58420
X49530Y57150
X10160Y50165
X1270Y6350
X1270Y3810
X20955Y46355
X16510Y48895
X13970Y49149
X19050Y48895
X48260Y1270
X20320Y44704
X29845Y44577
X7620Y43180
X7493Y33909
X41910Y40513
X26162Y32893
X762Y35179
X34290Y31750
X10922Y54229
X10160Y29210
X38735Y40513
X38735Y43815
X17145Y23495
X41618Y39271
X33020Y52578
X37846Y52578
X19456Y43180
X40136Y38396
X13335Y23495
X15875Y23495
X41021Y38354
X18415Y23495
X41402Y37630
X42164Y37084
X20320Y31623
X21590Y38481
X16510Y35560
X17780Y33782
X12065Y33655
X12573Y32385
X13970Y35560
X12700Y36830
X19050Y36830
X17780Y36830
X15240Y36830
X21209Y36322
X19050Y38100
X16383Y40894
X13970Y41402
X18923Y40259
X17653Y32258
X11684Y40894
X11557Y38227
X33655Y48260
X39370Y48260
X63373Y39116
X79121Y32004
X64389Y24892
X74930Y33020
X84797Y45505
X63823Y27686
X94234Y46228
X60325Y31750
X60198Y20955
X58928Y1270
X58928Y6350
X58928Y3810
X100838Y54610
X98298Y54610
X100838Y52070
X98298Y50800
X70993Y58420
X104648Y15240
X104648Y12700
X104648Y10160
X104648Y5080
X76708Y44704
X84963Y43815
X95758Y54610
X69088Y57785
X58928Y8890
X58928Y11430
X104648Y7620
X102108Y6350
X102108Y8890
X102108Y11430
X102108Y13970
X102108Y16510
X104648Y39370
X102108Y3810
X104648Y2540
X58928Y13970
X72898Y57150
X99568Y27940
X85471Y52832
X58928Y31750
X77978Y52070
X80518Y52070
X81788Y46990
X85598Y46990
X83693Y46990
X88138Y39370
X91059Y39370
X77978Y36830
X77724Y30353
X76708Y26162
X76708Y24130
X75438Y22860
X62103Y24130
X59563Y24130
X58928Y29210
X58928Y45720
X60198Y53340
X60198Y55880
X62738Y55880
X95758Y48260
X98298Y48260
X100838Y48260
X95758Y45720
X98298Y45720
X100838Y45720
X95758Y43180
X98298Y43180
X100838Y43180
X99568Y38100
X99568Y35560
X97028Y35560
X99568Y33020
X97028Y33020
X99568Y30480
X74803Y58420
X58928Y50800
X59563Y38100
X64008Y46990
X58928Y48260
X64008Y48514
X75438Y52070
X74803Y48895
X77343Y48006
X75438Y44704
X79629Y38100
X84963Y30480
X85598Y33655
X86868Y24130
X84963Y24130
X83058Y20320
X102108Y19050
X99568Y25400
X95758Y23368
X62103Y29210
X83693Y58420
X83693Y52070
X74803Y55880
X97536Y38100
X60198Y49530
X87122Y28194
X95758Y52070
X60198Y46990
X82804Y39624
X78613Y43561
X58928Y19050
X91948Y46990
X74168Y53340
X80518Y48895
X80010Y31115
X98298Y58420
X103378Y57150
X64008Y50165
X55118Y6350
X55118Y3810
X74803Y46355
X70358Y48895
X67818Y49149
X72898Y48895
X102108Y1270
X74168Y44704
X83693Y44577
X61468Y43180
X61341Y33909
X95758Y40513
X80010Y32893
X54610Y35179
X88138Y31750
X64770Y54229
X64008Y29210
X92583Y40513
X92583Y43815
X70993Y23495
X95466Y39271
X86868Y52578
X91694Y52578
X73304Y43180
X93984Y38396
X67183Y23495
X69723Y23495
X94869Y38354
X72263Y23495
X95250Y37630
X96012Y37084
X74168Y31623
X75438Y38481
X70358Y35560
X71628Y33782
X65913Y33655
X66421Y32385
X67818Y35560
X66548Y36830
X72898Y36830
X71628Y36830
X69088Y36830
X75057Y36322
X72898Y38100
X70231Y40894
X67818Y41402
X72771Y40259
X71501Y32258
X65532Y40894
X65405Y38227
X87503Y48260
X93218Y48260
X9525Y107188
X25273Y100076
X10541Y92964
X21082Y101092
X30949Y113577
X9975Y95758
X40386Y114300
X6477Y99822
X6350Y89027
X5080Y69342
X5080Y74422
X5080Y71882
X46990Y122682
X44450Y122682
X46990Y120142
X44450Y118872
X17145Y126492
X50800Y83312
X50800Y80772
X50800Y78232
X50800Y73152
X22860Y112776
X31115Y111887
X41910Y122682
X15240Y125857
X5080Y76962
X5080Y79502
X50800Y75692
X48260Y74422
X48260Y76962
X48260Y79502
X48260Y82042
X48260Y84582
X50800Y107442
X48260Y71882
X50800Y70612
X5080Y82042
X19050Y125222
X45720Y96012
X31623Y120904
X5080Y99822
X24130Y120142
X26670Y120142
X27940Y115062
X31750Y115062
X29845Y115062
X34290Y107442
X37211Y107442
X24130Y104902
X23876Y98425
X22860Y94234
X22860Y92202
X21590Y90932
X8255Y92202
X5715Y92202
X5080Y97282
X5080Y113792
X5080Y111252
X6350Y121412
X6350Y123952
X8890Y123952
X41910Y116332
X44450Y116332
X46990Y116332
X41910Y113792
X44450Y113792
X46990Y113792
X41910Y111252
X44450Y111252
X46990Y111252
X45720Y106172
X45720Y103632
X43180Y103632
X45720Y101092
X43180Y101092
X45720Y98552
X20955Y126492
X5080Y118872
X5715Y106172
X10160Y115062
X5080Y116332
X10160Y116586
X21590Y120142
X20955Y116967
X23495Y116078
X21590Y112776
X25781Y106172
X31115Y98552
X31750Y101727
X33020Y92202
X31115Y92202
X29210Y88392
X48260Y87122
X45720Y93472
X41910Y91440
X8255Y97282
X29845Y126492
X29845Y120142
X20955Y123952
X43688Y106172
X6350Y117602
X33274Y96266
X41910Y120142
X6350Y115062
X28956Y107696
X24765Y111633
X5080Y87122
X38100Y115062
X20320Y121412
X26670Y116967
X26162Y99187
X44450Y126492
X49530Y125222
X10160Y118237
X1270Y74422
X1270Y71882
X20955Y114427
X16510Y116967
X13970Y117221
X19050Y116967
X48260Y69342
X20320Y112776
X29845Y112649
X7620Y111252
X7493Y101981
X41910Y108585
X26162Y100965
X762Y103251
X34290Y99822
X10922Y122301
X10160Y97282
X38735Y108585
X38735Y111887
X17145Y91567
X41618Y107343
X33020Y120650
X37846Y120650
X19456Y111252
X40136Y106468
X13335Y91567
X15875Y91567
X41021Y106426
X18415Y91567
X41402Y105702
X42164Y105156
X20320Y99695
X21590Y106553
X16510Y103632
X17780Y101854
X12065Y101727
X12573Y100457
X13970Y103632
X12700Y104902
X19050Y104902
X17780Y104902
X15240Y104902
X21209Y104394
X19050Y106172
X16383Y108966
X13970Y109474
X18923Y108331
X17653Y100330
X11684Y108966
X11557Y106299
X33655Y116332
X39370Y116332
X63373Y107188
X79121Y100076
X64389Y92964
X74930Y101092
X84797Y113577
X63823Y95758
X94234Y114300
X60325Y99822
X60198Y89027
X58928Y69342
X58928Y74422
X58928Y71882
X100838Y122682
X98298Y122682
X100838Y120142
X98298Y118872
X70993Y126492
X104648Y83312
X104648Y80772
X104648Y78232
X104648Y73152
X76708Y112776
X84963Y111887
X95758Y122682
X69088Y125857
X58928Y76962
X58928Y79502
X104648Y75692
X102108Y74422
X102108Y76962
X102108Y79502
X102108Y82042
X102108Y84582
X104648Y107442
X102108Y71882
X104648Y70612
X58928Y82042
X72898Y125222
X99568Y96012
X85471Y120904
X58928Y99822
X77978Y120142
X80518Y120142
X81788Y115062
X85598Y115062
X83693Y115062
X88138Y107442
X91059Y107442
X77978Y104902
X77724Y98425
X76708Y94234
X76708Y92202
X75438Y90932
X62103Y92202
X59563Y92202
X58928Y97282
X58928Y113792
X58928Y111252
X60198Y121412
X60198Y123952
X62738Y123952
X95758Y116332
X98298Y116332
X100838Y116332
X95758Y113792
X98298Y113792
X100838Y113792
X95758Y111252
X98298Y111252
X100838Y111252
X99568Y106172
X99568Y103632
X97028Y103632
X99568Y101092
X97028Y101092
X99568Y98552
X74803Y126492
X58928Y118872
X59563Y106172
X64008Y115062
X58928Y116332
X64008Y116586
X75438Y120142
X74803Y116967
X77343Y116078
X75438Y112776
X79629Y106172
X84963Y98552
X85598Y101727
X86868Y92202
X84963Y92202
X83058Y88392
X102108Y87122
X99568Y93472
X95758Y91440
X62103Y97282
X83693Y126492
X83693Y120142
X74803Y123952
X97536Y106172
X60198Y117602
X87122Y96266
X95758Y120142
X60198Y115062
X82804Y107696
X78613Y111633
X58928Y87122
X91948Y115062
X74168Y121412
X80518Y116967
X80010Y99187
X98298Y126492
X103378Y125222
X64008Y118237
X55118Y74422
X55118Y71882
X74803Y114427
X70358Y116967
X67818Y117221
X72898Y116967
X102108Y69342
X74168Y112776
X83693Y112649
X61468Y111252
X61341Y101981
X95758Y108585
X80010Y100965
X54610Y103251
X88138Y99822
X64770Y122301
X64008Y97282
X92583Y108585
X92583Y111887
X70993Y91567
X95466Y107343
X86868Y120650
X91694Y120650
X73304Y111252
X93984Y106468
X67183Y91567
X69723Y91567
X94869Y106426
X72263Y91567
X95250Y105702
X96012Y105156
X74168Y99695
X75438Y106553
X70358Y103632
X71628Y101854
X65913Y101727
X66421Y100457
X67818Y103632
X66548Y104902
X72898Y104902
X71628Y104902
X69088Y104902
X75057Y104394
X72898Y106172
X70231Y108966
X67818Y109474
X72771Y108331
X71501Y100330
X65532Y108966
X65405Y106299
X87503Y116332
X93218Y116332
X9525Y175260
X25273Y168148
X10541Y161036
X21082Y169164
X30949Y181649
X9975Y163830
X40386Y182372
X6477Y167894
X6350Y157099
X5080Y137414
X5080Y142494
X5080Y139954
X46990Y190754
X44450Y190754
X46990Y188214
X44450Y186944
X17145Y194564
X50800Y151384
X50800Y148844
X50800Y146304
X50800Y141224
X22860Y180848
X31115Y179959
X41910Y190754
X15240Y193929
X5080Y145034
X5080Y147574
X50800Y143764
X48260Y142494
X48260Y145034
X48260Y147574
X48260Y150114
X48260Y152654
X50800Y175514
X48260Y139954
X50800Y138684
X5080Y150114
X19050Y193294
X45720Y164084
X31623Y188976
X5080Y167894
X24130Y188214
X26670Y188214
X27940Y183134
X31750Y183134
X29845Y183134
X34290Y175514
X37211Y175514
X24130Y172974
X23876Y166497
X22860Y162306
X22860Y160274
X21590Y159004
X8255Y160274
X5715Y160274
X5080Y165354
X5080Y181864
X5080Y179324
X6350Y189484
X6350Y192024
X8890Y192024
X41910Y184404
X44450Y184404
X46990Y184404
X41910Y181864
X44450Y181864
X46990Y181864
X41910Y179324
X44450Y179324
X46990Y179324
X45720Y174244
X45720Y171704
X43180Y171704
X45720Y169164
X43180Y169164
X45720Y166624
X20955Y194564
X5080Y186944
X5715Y174244
X10160Y183134
X5080Y184404
X10160Y184658
X21590Y188214
X20955Y185039
X23495Y184150
X21590Y180848
X25781Y174244
X31115Y166624
X31750Y169799
X33020Y160274
X31115Y160274
X29210Y156464
X48260Y155194
X45720Y161544
X41910Y159512
X8255Y165354
X29845Y194564
X29845Y188214
X20955Y192024
X43688Y174244
X6350Y185674
X33274Y164338
X41910Y188214
X6350Y183134
X28956Y175768
X24765Y179705
X5080Y155194
X38100Y183134
X20320Y189484
X26670Y185039
X26162Y167259
X44450Y194564
X49530Y193294
X10160Y186309
X1270Y142494
X1270Y139954
X20955Y182499
X16510Y185039
X13970Y185293
X19050Y185039
X48260Y137414
X20320Y180848
X29845Y180721
X7620Y179324
X7493Y170053
X41910Y176657
X26162Y169037
X762Y171323
X34290Y167894
X10922Y190373
X10160Y165354
X38735Y176657
X38735Y179959
X17145Y159639
X41618Y175415
X33020Y188722
X37846Y188722
X19456Y179324
X40136Y174540
X13335Y159639
X15875Y159639
X41021Y174498
X18415Y159639
X41402Y173774
X42164Y173228
X20320Y167767
X61341Y238125
X95758Y244729
X80010Y237109
X54610Y239395
X88138Y235966
X64770Y258445
X64008Y233426
X92583Y244729
X92583Y248031
X70993Y227711
X95466Y243487
X86868Y256794
X91694Y256794
X73304Y247396
X93984Y242612
X67183Y227711
X69723Y227711
X94869Y242570
X72263Y227711
X95250Y241846
X96012Y241300
X74168Y235839
X63823Y163830
X94234Y182372
X60325Y167894
X60198Y157099
X58928Y137414
X58928Y142494
X58928Y139954
X100838Y190754
X98298Y190754
X100838Y188214
X98298Y186944
X70993Y194564
X104648Y151384
X104648Y148844
X104648Y146304
X104648Y141224
X76708Y180848
X84963Y179959
X95758Y190754
X69088Y193929
X58928Y145034
X58928Y147574
X104648Y143764
X102108Y142494
X102108Y145034
X102108Y147574
X102108Y150114
X102108Y152654
X104648Y175514
X102108Y139954
X104648Y138684
X58928Y150114
X72898Y193294
X99568Y164084
X85471Y188976
X58928Y167894
X77978Y188214
X80518Y188214
X81788Y183134
X85598Y183134
X83693Y183134
X88138Y175514
X91059Y175514
X77978Y172974
X77724Y166497
X76708Y162306
X76708Y160274
X75438Y159004
X62103Y160274
X59563Y160274
X58928Y165354
X58928Y181864
X58928Y179324
X60198Y189484
X60198Y192024
X62738Y192024
X95758Y184404
X98298Y184404
X100838Y184404
X95758Y181864
X98298Y181864
X100838Y181864
X95758Y179324
X98298Y179324
X100838Y179324
X99568Y174244
X99568Y171704
X97028Y171704
X99568Y169164
X97028Y169164
X75438Y174625
X70358Y171704
X71628Y169926
X65913Y169799
X66421Y168529
X67818Y171704
X66548Y172974
X72898Y172974
X71628Y172974
X69088Y172974
X75057Y172466
X72898Y174244
X70231Y177038
X67818Y177546
X72771Y176403
X71501Y168402
X65532Y177038
X65405Y174371
X87503Y184404
X93218Y184404
X9525Y243332
X25273Y236220
X10541Y229108
X21082Y237236
X30949Y249721
X75438Y242697
X70358Y239776
X71628Y237998
X65913Y237871
X66421Y236601
X67818Y239776
X66548Y241046
X72898Y241046
X71628Y241046
X69088Y241046
X75057Y240538
X72898Y242316
X70231Y245110
X67818Y245618
X72771Y244475
X71501Y236474
X65532Y245110
X65405Y242443
X87503Y252476
X93218Y252476
X9525Y39116
X25273Y32004
X10541Y24892
X21082Y33020
X30949Y45505
X9975Y27686
X40386Y46228
X6477Y31750
X6350Y20955
X5080Y1270
X5080Y6350
X5080Y3810
X46990Y54610
X44450Y54610
X46990Y52070
X44450Y50800
X17145Y58420
X50800Y15240
X50800Y12700
X50800Y10160
X50800Y5080
X22860Y44704
X31115Y43815
X41910Y54610
X15240Y57785
X5080Y8890
X5080Y11430
X50800Y7620
X48260Y6350
X48260Y8890
X48260Y11430
X48260Y13970
X48260Y16510
X50800Y39370
X48260Y3810
X50800Y2540
X5080Y13970
X19050Y57150
X45720Y27940
X31623Y52832
X5080Y31750
X24130Y52070
X26670Y52070
X27940Y46990
X31750Y46990
X29845Y46990
X34290Y39370
X9975Y231902
X40386Y250444
X6477Y235966
X6350Y225171
X5080Y205486
X5080Y210566
X5080Y208026
X46990Y258826
X44450Y258826
X46990Y256286
X44450Y255016
X17145Y262636
X50800Y219456
X50800Y216916
X50800Y214376
X50800Y209296
X22860Y248920
X31115Y248031
X41910Y258826
X15240Y262001
X5080Y213106
X5080Y215646
X50800Y211836
X48260Y210566
X48260Y213106
X48260Y215646
X48260Y218186
X48260Y220726
X50800Y243586
X48260Y208026
X50800Y206756
X5080Y218186
X19050Y261366
X45720Y232156
X31623Y257048
X5080Y235966
X24130Y256286
X26670Y256286
X27940Y251206
X31750Y251206
X29845Y251206
X34290Y243586
X37211Y243586
X24130Y241046
X23876Y234569
X22860Y230378
X22860Y228346
X21590Y227076
X37211Y39370
X24130Y36830
X23876Y30353
X22860Y26162
X8255Y228346
X5715Y228346
X5080Y233426
X5080Y249936
X5080Y247396
X6350Y257556
X6350Y260096
X8890Y260096
X41910Y252476
X44450Y252476
X46990Y252476
X41910Y249936
X44450Y249936
X46990Y249936
X41910Y247396
X44450Y247396
X46990Y247396
X45720Y242316
X45720Y239776
X43180Y239776
X45720Y237236
X43180Y237236
X45720Y234696
X20955Y262636
X5080Y255016
X5715Y242316
X10160Y251206
X5080Y252476
X10160Y252730
X21590Y256286
X20955Y253111
X23495Y252222
X21590Y248920
X25781Y242316
X31115Y234696
X31750Y237871
X33020Y228346
X31115Y228346
X58928Y43180
X29210Y224536
X48260Y223266
X45720Y229616
X41910Y227584
X8255Y233426
X29845Y262636
X29845Y256286
X20955Y260096
X43688Y242316
X22860Y24130
X21590Y22860
X8255Y24130
X5715Y24130
X6350Y253746
X33274Y232410
X41910Y256286
X6350Y251206
X28956Y243840
X24765Y247777
X5080Y223266
X38100Y251206
X20320Y257556
X26670Y253111
X26162Y235331
X44450Y262636
X49530Y261366
X10160Y254381
X1270Y210566
X1270Y208026
X20955Y250571
X16510Y253111
X13970Y253365
X19050Y253111
X48260Y205486
X20320Y248920
X29845Y248793
X7620Y247396
X7493Y238125
X41910Y244729
X26162Y237109
X762Y239395
X34290Y235966
X10922Y258445
X10160Y233426
X38735Y244729
X38735Y248031
X17145Y227711
X41618Y243487
X33020Y256794
X37846Y256794
X19456Y247396
X40136Y242612
X13335Y227711
X15875Y227711
X41021Y242570
X18415Y227711
X41402Y241846
X42164Y241300
X20320Y235839
X99568Y166624
X74803Y194564
X5080Y29210
X5080Y45720
X5080Y43180
X6350Y53340
X58928Y186944
X59563Y174244
X64008Y183134
X58928Y184404
X64008Y184658
X75438Y188214
X74803Y185039
X77343Y184150
X75438Y180848
X79629Y174244
X84963Y166624
X85598Y169799
X86868Y160274
X84963Y160274
X83058Y156464
X102108Y155194
X99568Y161544
X95758Y159512
X62103Y165354
X83693Y194564
X83693Y188214
X74803Y192024
X97536Y174244
X60198Y185674
X87122Y164338
X95758Y188214
X60198Y183134
X82804Y175768
X78613Y179705
X58928Y155194
X91948Y183134
X74168Y189484
X80518Y185039
X80010Y167259
X98298Y194564
X103378Y193294
X64008Y186309
X55118Y142494
X55118Y139954
X74803Y182499
X70358Y185039
X67818Y185293
X72898Y185039
X102108Y137414
X74168Y180848
X83693Y180721
X61468Y179324
X61341Y170053
X6350Y55880
X8890Y55880
X41910Y48260
X44450Y48260
X95758Y176657
X80010Y169037
X54610Y171323
X88138Y167894
X64770Y190373
X64008Y165354
X92583Y176657
X92583Y179959
X70993Y159639
X95466Y175415
X86868Y188722
X91694Y188722
X73304Y179324
X93984Y174540
X67183Y159639
X69723Y159639
X94869Y174498
X72263Y159639
X95250Y173774
X96012Y173228
X74168Y167767
X21590Y174625
X16510Y171704
X17780Y169926
X12065Y169799
X12573Y168529
X13970Y171704
X12700Y172974
X19050Y172974
X17780Y172974
X15240Y172974
X21209Y172466
X19050Y174244
X16383Y177038
X13970Y177546
X18923Y176403
X17653Y168402
X11684Y177038
X11557Y174371
X33655Y184404
X39370Y184404
X63373Y175260
X79121Y168148
X64389Y161036
X74930Y169164
X21590Y242697
X16510Y239776
X46990Y48260
X41910Y45720
X44450Y45720
X46990Y45720
X17780Y237998
X12065Y237871
X12573Y236601
X13970Y239776
X12700Y241046
X19050Y241046
X17780Y241046
X15240Y241046
X21209Y240538
X19050Y242316
X16383Y245110
X13970Y245618
X18923Y244475
X17653Y236474
X11684Y245110
X11557Y242443
X33655Y252476
X39370Y252476
X63373Y243332
X79121Y236220
X64389Y229108
X74930Y237236
X84797Y249721
X63823Y231902
X94234Y250444
X60325Y235966
X60198Y225171
X58928Y205486
X58928Y210566
X58928Y208026
X100838Y258826
X98298Y258826
X100838Y256286
X98298Y255016
X70993Y262636
X104648Y219456
X104648Y216916
X104648Y214376
X104648Y209296
X76708Y248920
X84963Y248031
X95758Y258826
X69088Y262001
X58928Y213106
X58928Y215646
X104648Y211836
X102108Y210566
X41910Y43180
X44450Y43180
X46990Y43180
X45720Y38100
X102108Y213106
X102108Y215646
X102108Y218186
X102108Y220726
X104648Y243586
X102108Y208026
X104648Y206756
X58928Y218186
X72898Y261366
X99568Y232156
X85471Y257048
X58928Y235966
X77978Y256286
X80518Y256286
X81788Y251206
X85598Y251206
X83693Y251206
X88138Y243586
X91059Y243586
X77978Y241046
X77724Y234569
X76708Y230378
X76708Y228346
X75438Y227076
X62103Y228346
X59563Y228346
X58928Y233426
X58928Y249936
X58928Y247396
X60198Y257556
X60198Y260096
X62738Y260096
X95758Y252476
X98298Y252476
X100838Y252476
X95758Y249936
X98298Y249936
X100838Y249936
X95758Y247396
X98298Y247396
X100838Y247396
X99568Y242316
X99568Y239776
X97028Y239776
X99568Y237236
X97028Y237236
X99568Y234696
X74803Y262636
X45720Y35560
X43180Y35560
X45720Y33020
X43180Y33020
X58928Y255016
X59563Y242316
X64008Y251206
X58928Y252476
X64008Y252730
X75438Y256286
X84797Y181649
X77343Y252222
X75438Y248920
X79629Y242316
X84963Y234696
X85598Y237871
X86868Y228346
X84963Y228346
X83058Y224536
X102108Y223266
X99568Y229616
X95758Y227584
X62103Y233426
X83693Y262636
X83693Y256286
X74803Y260096
X97536Y242316
X60198Y253746
X87122Y232410
X95758Y256286
X60198Y251206
X82804Y243840
X78613Y247777
X58928Y223266
X91948Y251206
X74168Y257556
X80518Y253111
X80010Y235331
X98298Y262636
X103378Y261366
X64008Y254381
X55118Y210566
X55118Y208026
X74803Y250571
X70358Y253111
X67818Y253365
X72898Y253111
X102108Y205486
X74168Y248920
X83693Y248793
X61468Y247396
X74803Y253111
T6
X31838Y168109
X85686Y100037
X85686Y168109
X85686Y236181
X31838Y100037
X85686Y31965
X31838Y31965
X31838Y236181
M30